0
SECTION
2
HEADER
9
$ACADVER
1
AC1009
9
$INSUNITS
70
4
0
ENDSEC
0
SECTION
2
TABLES
0
TABLE
2
LTYPE
70
1
0
LTYPE
2
CONTINUOUS
70
0
3
Solid line
72
65
73
0
40
0
0
ENDTAB
0
TABLE
2
LAYER
70
1
0
LAYER
2
Edge_Cuts
70
0
62
7
6
CONTINUOUS
0
ENDTAB
0
ENDSEC
0
SECTION
2
ENTITIES
0
POLYLINE
8
Edge_Cuts
66
1
70
1
10
0
20
0
30
0
0
VERTEX
8
Edge_Cuts
10
-10
20
-13.949
30
0
0
VERTEX
8
Edge_Cuts
10
27.785801
20
-13.949
30
0
0
VERTEX
8
Edge_Cuts
10
27.785801
20
13.949
30
0
0
VERTEX
8
Edge_Cuts
10
-10
20
13.949
30
0
0
SEQEND
8
Edge_Cuts
0
ENDSEC
0
EOF
