<?xml version="1.0" encoding="UTF-8"?>
<svg xmlns="http://www.w3.org/2000/svg" version="1.1" width="160mm" height="160.856mm" viewBox="0 0 160 160.856" font-family="'IBM Plex Sans', Helvetica, Arial, sans-serif"><title>UAV blade antenna (867 MHz) — technical drawing</title><desc>UAV blade antenna (867 MHz) (blade-867) · Fairbeam 0.7.0 · third-angle projection</desc><rect x="0" y="0" width="160" height="160.856" fill="#fff" stroke="none"/><g transform="translate(2.5 12.5)"><g class="view view-top"><g></g><g fill="none" stroke="#000" stroke-width="0.35"></g><g stroke-linejoin="round"><polygon points="0.7,65.483 65.483,65.483 65.483,0.7 0.7,0.7" fill="#d9d9d9" stroke="#000" stroke-width="0.5"/><rect x="26.613" y="32.742" width="15.116" height="0.7" fill="#000" stroke="none"/></g><g stroke="#000" stroke-width="0.25" stroke-dasharray="6 1 0.5 1"><line x1="-2.3" y1="33.092" x2="68.483" y2="33.092"/></g><g class="ports"><g><circle cx="33.092" cy="33.092" r="1.3" fill="#fff" stroke="#000" stroke-width="0.3"/><path d="M32.286 33.092Q32.689 32.117 33.092 33.092T33.898 33.092" fill="none" stroke="#000" stroke-width="0.3"/></g></g><g class="dimensions"><g stroke="#000" stroke-width="0.25" fill="none"><line x1="0.7" y1="-0.8" x2="0.7" y2="-8.5"/><line x1="33.092" y1="32.292" x2="33.092" y2="-8.5"/><line x1="0.7" y1="-7" x2="33.092" y2="-7"/><line x1="0.7" y1="66.283" x2="0.7" y2="74.683"/><line x1="65.483" y1="66.283" x2="65.483" y2="74.683"/><line x1="0.7" y1="73.183" x2="65.483" y2="73.183"/><line x1="66.283" y1="0.7" x2="74.683" y2="0.7"/><line x1="66.283" y1="65.483" x2="74.683" y2="65.483"/><line x1="73.183" y1="0.7" x2="73.183" y2="65.483"/></g><g><polygon points="0.7,-7 3.2,-7.417 3.2,-6.583" fill="#000" stroke="none"/><polygon points="33.092,-7 30.592,-6.583 30.592,-7.417" fill="#000" stroke="none"/><polygon points="0.7,73.183 3.2,72.767 3.2,73.6" fill="#000" stroke="none"/><polygon points="65.483,73.183 62.983,73.6 62.983,72.767" fill="#000" stroke="none"/><polygon points="73.183,0.7 73.6,3.2 72.767,3.2" fill="#000" stroke="none"/><polygon points="73.183,65.483 72.767,62.983 73.6,62.983" fill="#000" stroke="none"/></g><g fill="#000" font-size="2.5" stroke="none"><text x="16.896" y="-7.7" text-anchor="middle">150</text><text x="33.092" y="72.483" text-anchor="middle">gnd = 300</text><text x="72.483" y="33.092" text-anchor="middle" transform="rotate(-90 72.483 33.092)">gnd = 300</text></g></g><g class="triad"><circle cx="17.987" cy="81.017" r="0.35" fill="#000" stroke="none"/><line x1="17.987" y1="81.017" x2="22.187" y2="81.017" stroke="#000" stroke-width="0.25"/><polygon points="22.187,81.017 20.717,81.262 20.717,80.772" fill="#000" stroke="none"/><text x="23.487" y="81.752" font-size="2.1" text-anchor="start" font-style="italic">x</text><line x1="17.987" y1="81.017" x2="17.987" y2="76.817" stroke="#000" stroke-width="0.25"/><polygon points="17.987,76.817 18.232,78.287 17.742,78.287" fill="#000" stroke="none"/><text x="17.987" y="76.252" font-size="2.1" text-anchor="middle" font-style="italic">y</text></g><text x="26.187" y="81.417" font-size="3" font-weight="600">(a) Top view (xy)</text></g></g><g transform="translate(93.926 50.127)"><g class="view view-iso"><polygon points="0.7,17.895 30.482,35.09 60.265,17.895 30.482,0.7" fill="#d9d9d9" stroke="#000" stroke-width="0.35" stroke-linejoin="round"/><polygon points="30.284,17.551 30.681,17.78 33.461,18.01 34.453,10.788 31.475,9.068 27.504,14.571" fill="#d9d9d9" stroke="#000" stroke-width="0.35" stroke-linejoin="round"/><line x1="30.482" y1="17.895" x2="30.482" y2="17.666" stroke="#000" stroke-width="0.25"/><g><circle cx="30.482" cy="17.78" r="1.105" fill="#fff" stroke="#000" stroke-width="0.3"/><path d="M29.797 17.78Q30.14 16.952 30.482 17.78T31.168 17.78" fill="none" stroke="#000" stroke-width="0.3"/></g><text x="32.582" y="18.515" font-size="2.1">P1</text><g class="triad"><circle cx="16.067" cy="42.59" r="0.35" fill="#000" stroke="none"/><line x1="16.067" y1="42.59" x2="19.012" y2="44.29" stroke="#000" stroke-width="0.25"/><polygon points="19.012,44.29 17.882,43.867 18.081,43.523" fill="#000" stroke="none"/><text x="20.138" y="45.675" font-size="2.1" text-anchor="start" font-style="italic">x</text><line x1="16.067" y1="42.59" x2="19.012" y2="40.89" stroke="#000" stroke-width="0.25"/><polygon points="19.012,40.89 18.081,41.657 17.882,41.313" fill="#000" stroke="none"/><text x="20.138" y="40.975" font-size="2.1" text-anchor="start" font-style="italic">y</text><line x1="16.067" y1="42.59" x2="16.067" y2="39.19" stroke="#000" stroke-width="0.25"/><polygon points="16.067,39.19 16.266,40.38 15.869,40.38" fill="#000" stroke="none"/><text x="16.067" y="38.625" font-size="2.1" text-anchor="middle" font-style="italic">z</text></g><text x="22.867" y="43.79" font-size="3" font-weight="600">(b) Isometric view</text></g></g><g transform="translate(2.5 102.917)"><g class="view view-front"><g></g><g fill="none" stroke="#000" stroke-width="0.35"></g><g stroke-linejoin="round"><polygon points="32.66,17.976 33.524,17.976 39.57,15.384 41.729,0.7 35.251,0.7 26.613,15.384" fill="#d9d9d9" stroke="#000" stroke-width="0.5"/><rect x="0.7" y="18.057" width="64.783" height="0.7" fill="#000" stroke="none"/></g><g class="ports"><line x1="33.092" y1="18.407" x2="33.092" y2="17.976" stroke="#000" stroke-width="0.25"/><g><circle cx="33.092" cy="18.191" r="1.3" fill="#fff" stroke="#000" stroke-width="0.3"/><path d="M32.286 18.191Q32.689 17.216 33.092 18.191T33.898 18.191" fill="none" stroke="#000" stroke-width="0.3"/></g><g><polyline points="34.011,19.111 37.546,22.646 46.594,22.646" fill="none" stroke="#000" stroke-width="0.25"/><rect x="37.546" y="20.651" width="9.047" height="1.795" fill="#fff" stroke="none" fill-opacity="0.85"/><text x="38.146" y="22.046" font-size="2.1" text-anchor="start">P1 50 Ω</text></g></g><g class="dimensions"><g stroke="#000" stroke-width="0.25" fill="none"><line x1="26.613" y1="16.184" x2="26.613" y2="32.446"/><line x1="41.729" y1="1.5" x2="41.729" y2="32.446"/><line x1="26.613" y1="30.946" x2="41.729" y2="30.946"/><line x1="33.892" y1="17.976" x2="74.683" y2="17.976"/><line x1="33.892" y1="18.407" x2="74.683" y2="18.407"/><line x1="73.183" y1="8.476" x2="73.183" y2="22.407"/><line x1="42.529" y1="0.7" x2="80.183" y2="0.7"/><line x1="34.324" y1="17.976" x2="80.183" y2="17.976"/><line x1="78.683" y1="0.7" x2="78.683" y2="17.976"/></g><g><polygon points="26.613,30.946 29.113,30.53 29.113,31.363" fill="#000" stroke="none"/><polygon points="41.729,30.946 39.229,31.363 39.229,30.53" fill="#000" stroke="none"/><polygon points="73.183,17.976 72.767,15.476 73.6,15.476" fill="#000" stroke="none"/><polygon points="73.183,18.407 73.6,20.907 72.767,20.907" fill="#000" stroke="none"/><polygon points="78.683,0.7 79.1,3.2 78.267,3.2" fill="#000" stroke="none"/><polygon points="78.683,17.976 78.267,15.476 79.1,15.476" fill="#000" stroke="none"/></g><g fill="#000" font-size="2.5" stroke="none"><text x="34.171" y="30.246" text-anchor="middle">70</text><text x="72.483" y="11.226" text-anchor="middle" transform="rotate(-90 72.483 11.226)">g = 2</text><text x="77.983" y="9.338" text-anchor="middle" transform="rotate(-90 77.983 9.338)">h = 80</text></g></g><g class="angle"><polyline points="25.739,15.009 25.987,14.482 26.274,13.975 26.597,13.49 26.954,13.029 27.344,12.596 27.765,12.192 28.213,11.82 28.688,11.482 29.186,11.179 29.704,10.913 30.241,10.686 30.793,10.498 31.357,10.351 31.93,10.245 32.509,10.182 33.092,10.161 33.674,10.182 34.253,10.245 34.827,10.351 35.391,10.498 35.942,10.686 36.479,10.913 36.998,11.179 37.496,11.482 37.97,11.82 38.419,12.192 38.839,12.596 39.229,13.029 39.586,13.49 39.909,13.975 40.196,14.482 40.445,15.009" fill="none" stroke="#000" stroke-width="0.25"/><polygon points="25.739,15.009 26.34,12.547 27.106,12.876" fill="#000" stroke="none"/><polygon points="40.445,15.009 39.077,12.876 39.843,12.547" fill="#000" stroke="none"/><rect x="28.667" y="6.536" width="8.85" height="2.625" fill="#fff" stroke="none"/><text x="33.092" y="8.661" font-size="2.5" text-anchor="middle" fill="#000">133.6°</text></g><g class="triad"><circle cx="16.961" cy="38.78" r="0.35" fill="#000" stroke="none"/><line x1="16.961" y1="38.78" x2="21.161" y2="38.78" stroke="#000" stroke-width="0.25"/><polygon points="21.161,38.78 19.691,39.025 19.691,38.535" fill="#000" stroke="none"/><text x="22.461" y="39.515" font-size="2.1" text-anchor="start" font-style="italic">x</text><line x1="16.961" y1="38.78" x2="16.961" y2="34.58" stroke="#000" stroke-width="0.25"/><polygon points="16.961,34.58 17.206,36.05 16.716,36.05" fill="#000" stroke="none"/><text x="16.961" y="34.015" font-size="2.1" text-anchor="middle" font-style="italic">z</text></g><text x="25.161" y="39.18" font-size="3" font-weight="600">(c) Front view (xz)</text></g></g><g transform="translate(91.317 102.917)"><g class="view view-side"><g></g><g fill="none" stroke="#000" stroke-width="0.35"></g><g stroke-linejoin="round"><rect x="32.742" y="0.7" width="0.7" height="17.276" fill="#000" stroke="none"/><rect x="0.7" y="18.057" width="64.783" height="0.7" fill="#000" stroke="none"/></g><g stroke="#000" stroke-width="0.25" stroke-dasharray="6 1 0.5 1"><line x1="33.092" y1="-2.3" x2="33.092" y2="21.407"/></g><g class="ports"><line x1="33.092" y1="18.407" x2="33.092" y2="17.976" stroke="#000" stroke-width="0.25"/><g><circle cx="33.092" cy="18.191" r="1.3" fill="#fff" stroke="#000" stroke-width="0.3"/><path d="M32.286 18.191Q32.689 17.216 33.092 18.191T33.898 18.191" fill="none" stroke="#000" stroke-width="0.3"/></g></g><g class="triad"><circle cx="16.933" cy="25.307" r="0.35" fill="#000" stroke="none"/><line x1="16.933" y1="25.307" x2="21.133" y2="25.307" stroke="#000" stroke-width="0.25"/><polygon points="21.133,25.307 19.663,25.552 19.663,25.062" fill="#000" stroke="none"/><text x="22.433" y="26.042" font-size="2.1" text-anchor="start" font-style="italic">y</text><line x1="16.933" y1="25.307" x2="16.933" y2="21.107" stroke="#000" stroke-width="0.25"/><polygon points="16.933,21.107 17.178,22.577 16.688,22.577" fill="#000" stroke="none"/><text x="16.933" y="20.542" font-size="2.1" text-anchor="middle" font-style="italic">z</text></g><text x="25.133" y="25.707" font-size="3" font-weight="600">(d) Right view (yz)</text></g></g><g font-size="2.1" fill="#000" class="notes"><text x="2" y="148.196" font-weight="600">NOTES</text><text x="2" y="151.136">1. All dimensions in mm.</text><text x="2" y="154.076">2. Metal parts are PEC; zero-thickness sheets are drawn with a minimum line width (solid black when seen edge-on).</text><text x="2" y="157.016">3. P1: lumped port, 50 Ω, along z, gap 2 mm, excited.</text></g></svg>
