<?xml version="1.0" encoding="UTF-8"?>
<svg xmlns="http://www.w3.org/2000/svg" version="1.1" width="160mm" height="227.76mm" viewBox="0 0 160 227.76" font-family="'IBM Plex Sans', Helvetica, Arial, sans-serif"><title>Axial-mode helix (2.4 GHz, RHCP) — technical drawing</title><desc>Axial-mode helix (2.4 GHz, RHCP) (helix-axial) · Fairbeam 0.1.0 · third-angle projection</desc><rect x="0" y="0" width="160" height="227.76" fill="#fff" stroke="none"/><g transform="translate(17.384 33.816)"><g class="view view-top"><g></g><g fill="none" stroke="#000" stroke-width="0.35"></g><g stroke-linejoin="round"><polygon points="0.7,44.298 44.298,44.298 44.298,0.7 0.7,0.7" fill="#d9d9d9" stroke="#000" stroke-width="0.5"/><polygon points="31.167,22.499 31.035,20.994 30.644,19.535 30.005,18.165 29.139,16.928 28.07,15.859 26.833,14.993 25.464,14.354 24.004,13.963 22.499,13.831 20.994,13.963 19.535,14.354 18.165,14.993 16.928,15.859 15.859,16.928 14.993,18.165 14.354,19.535 13.963,20.994 13.831,22.499 13.963,24.004 14.354,25.464 14.993,26.833 15.859,28.07 16.928,29.139 18.165,30.005 19.535,30.644 20.994,31.035 22.499,31.167 24.004,31.035 25.464,30.644 26.833,30.005 28.07,29.139 29.139,28.07 30.005,26.833 30.644,25.464 31.035,24.004 31.167,22.499 31.035,20.994 30.644,19.535 30.005,18.165 29.139,16.928 28.07,15.859 26.833,14.993 25.464,14.354 24.004,13.963 22.499,13.831 20.994,13.963 19.535,14.354 18.165,14.993 16.928,15.859 15.859,16.928 14.993,18.165 14.354,19.535 13.963,20.994 13.831,22.499 13.963,24.004 14.354,25.464 14.993,26.833 15.859,28.07 16.928,29.139 18.165,30.005 19.535,30.644 20.994,31.035 22.499,31.167 24.004,31.035 25.464,30.644 26.833,30.005 28.07,29.139 29.139,28.07 30.005,26.833 30.644,25.464 31.035,24.004 31.167,22.499 31.035,20.994 30.644,19.535 30.005,18.165 29.139,16.928 28.07,15.859 26.833,14.993 25.464,14.354 24.004,13.963 22.499,13.831 20.994,13.963 19.535,14.354 18.165,14.993 16.928,15.859 15.859,16.928 14.993,18.165 14.354,19.535 13.963,20.994 13.831,22.499 13.963,24.004 14.354,25.464 14.993,26.833 15.859,28.07 16.928,29.139 18.165,30.005 19.535,30.644 20.994,31.035 22.499,31.167 24.004,31.035 25.464,30.644 26.833,30.005 28.07,29.139 29.139,28.07 30.005,26.833 30.644,25.464 31.035,24.004 31.167,22.499 31.035,20.994 30.644,19.535 30.005,18.165 29.139,16.928 28.07,15.859 26.833,14.993 25.464,14.354 24.004,13.963 22.499,13.831 20.994,13.963 19.535,14.354 18.165,14.993 16.928,15.859 15.859,16.928 14.993,18.165 14.354,19.535 13.963,20.994 13.831,22.499 13.963,24.004 14.354,25.464 14.993,26.833 15.859,28.07 16.928,29.139 18.165,30.005 19.535,30.644 20.994,31.035 22.499,31.167 24.004,31.035 25.464,30.644 26.833,30.005 28.07,29.139 29.139,28.07 30.005,26.833 30.644,25.464 31.035,24.004 31.167,22.499 31.035,20.994 30.644,19.535 30.005,18.165 29.139,16.928 28.07,15.859 26.833,14.993 25.464,14.354 24.004,13.963 22.499,13.831 20.994,13.963 19.535,14.354 18.165,14.993 16.928,15.859 15.859,16.928 14.993,18.165 14.354,19.535 13.963,20.994 13.831,22.499 13.963,24.004 14.354,25.464 14.993,26.833 15.859,28.07 16.928,29.139 18.165,30.005 19.535,30.644 20.994,31.035 22.499,31.167 24.004,31.035 25.464,30.644 26.833,30.005 28.07,29.139 29.139,28.07 30.005,26.833 30.644,25.464 31.035,24.004 31.167,22.499 31.035,20.994 30.644,19.535 30.005,18.165 29.139,16.928 28.07,15.859 26.833,14.993 25.464,14.354 24.004,13.963 22.499,13.831 20.994,13.963 19.535,14.354 18.165,14.993 16.928,15.859 15.859,16.928 14.993,18.165 14.354,19.535 13.963,20.994 13.831,22.499 13.963,24.004 14.354,25.464 14.993,26.833 15.859,28.07 16.928,29.139 18.165,30.005 19.535,30.644 20.994,31.035 22.499,31.167 24.004,31.035 25.464,30.644 26.833,30.005 28.07,29.139 29.139,28.07 30.005,26.833 30.644,25.464 31.035,24.004 31.167,22.499 31.035,20.994 30.644,19.535 30.005,18.165 29.139,16.928 28.07,15.859 26.833,14.993 25.464,14.354 24.004,13.963 22.499,13.831 20.994,13.963 19.535,14.354 18.165,14.993 16.928,15.859 15.859,16.928 14.993,18.165 14.354,19.535 13.963,20.994 13.831,22.499 13.963,24.004 14.354,25.464 14.993,26.833 15.859,28.07 16.928,29.139 18.165,30.005 19.535,30.644 20.994,31.035 22.499,31.167 24.004,31.035 25.464,30.644 26.833,30.005 28.07,29.139 29.139,28.07 30.005,26.833 30.644,25.464 31.035,24.004 31.167,22.499 31.035,24.004 30.644,25.464 30.005,26.833 29.139,28.07 28.07,29.139 26.833,30.005 25.464,30.644 24.004,31.035 22.499,31.167 20.994,31.035 19.535,30.644 18.165,30.005 16.928,29.139 15.859,28.07 14.993,26.833 14.354,25.464 13.963,24.004 13.831,22.499 13.963,20.994 14.354,19.535 14.993,18.165 15.859,16.928 16.928,15.859 18.165,14.993 19.535,14.354 20.994,13.963 22.499,13.831 24.004,13.963 25.464,14.354 26.833,14.993 28.07,15.859 29.139,16.928 30.005,18.165 30.644,19.535 31.035,20.994 31.167,22.499 31.035,24.004 30.644,25.464 30.005,26.833 29.139,28.07 28.07,29.139 26.833,30.005 25.464,30.644 24.004,31.035 22.499,31.167 20.994,31.035 19.535,30.644 18.165,30.005 16.928,29.139 15.859,28.07 14.993,26.833 14.354,25.464 13.963,24.004 13.831,22.499 13.963,20.994 14.354,19.535 14.993,18.165 15.859,16.928 16.928,15.859 18.165,14.993 19.535,14.354 20.994,13.963 22.499,13.831 24.004,13.963 25.464,14.354 26.833,14.993 28.07,15.859 29.139,16.928 30.005,18.165 30.644,19.535 31.035,20.994 31.167,22.499 31.035,24.004 30.644,25.464 30.005,26.833 29.139,28.07 28.07,29.139 26.833,30.005 25.464,30.644 24.004,31.035 22.499,31.167 20.994,31.035 19.535,30.644 18.165,30.005 16.928,29.139 15.859,28.07 14.993,26.833 14.354,25.464 13.963,24.004 13.831,22.499 13.963,20.994 14.354,19.535 14.993,18.165 15.859,16.928 16.928,15.859 18.165,14.993 19.535,14.354 20.994,13.963 22.499,13.831 24.004,13.963 25.464,14.354 26.833,14.993 28.07,15.859 29.139,16.928 30.005,18.165 30.644,19.535 31.035,20.994 31.167,22.499 31.035,24.004 30.644,25.464 30.005,26.833 29.139,28.07 28.07,29.139 26.833,30.005 25.464,30.644 24.004,31.035 22.499,31.167 20.994,31.035 19.535,30.644 18.165,30.005 16.928,29.139 15.859,28.07 14.993,26.833 14.354,25.464 13.963,24.004 13.831,22.499 13.963,20.994 14.354,19.535 14.993,18.165 15.859,16.928 16.928,15.859 18.165,14.993 19.535,14.354 20.994,13.963 22.499,13.831 24.004,13.963 25.464,14.354 26.833,14.993 28.07,15.859 29.139,16.928 30.005,18.165 30.644,19.535 31.035,20.994 31.167,22.499 31.035,24.004 30.644,25.464 30.005,26.833 29.139,28.07 28.07,29.139 26.833,30.005 25.464,30.644 24.004,31.035 22.499,31.167 20.994,31.035 19.535,30.644 18.165,30.005 16.928,29.139 15.859,28.07 14.993,26.833 14.354,25.464 13.963,24.004 13.831,22.499 13.963,20.994 14.354,19.535 14.993,18.165 15.859,16.928 16.928,15.859 18.165,14.993 19.535,14.354 20.994,13.963 22.499,13.831 24.004,13.963 25.464,14.354 26.833,14.993 28.07,15.859 29.139,16.928 30.005,18.165 30.644,19.535 31.035,20.994 31.167,22.499 31.035,24.004 30.644,25.464 30.005,26.833 29.139,28.07 28.07,29.139 26.833,30.005 25.464,30.644 24.004,31.035 22.499,31.167 20.994,31.035 19.535,30.644 18.165,30.005 16.928,29.139 15.859,28.07 14.993,26.833 14.354,25.464 13.963,24.004 13.831,22.499 13.963,20.994 14.354,19.535 14.993,18.165 15.859,16.928 16.928,15.859 18.165,14.993 19.535,14.354 20.994,13.963 22.499,13.831 24.004,13.963 25.464,14.354 26.833,14.993 28.07,15.859 29.139,16.928 30.005,18.165 30.644,19.535 31.035,20.994 31.167,22.499 31.035,24.004 30.644,25.464 30.005,26.833 29.139,28.07 28.07,29.139 26.833,30.005 25.464,30.644 24.004,31.035 22.499,31.167 20.994,31.035 19.535,30.644 18.165,30.005 16.928,29.139 15.859,28.07 14.993,26.833 14.354,25.464 13.963,24.004 13.831,22.499 13.963,20.994 14.354,19.535 14.993,18.165 15.859,16.928 16.928,15.859 18.165,14.993 19.535,14.354 20.994,13.963 22.499,13.831 24.004,13.963 25.464,14.354 26.833,14.993 28.07,15.859 29.139,16.928 30.005,18.165 30.644,19.535 31.035,20.994" fill="#d9d9d9" stroke="#000" stroke-width="0.5"/></g><g stroke="#000" stroke-width="0.25" stroke-dasharray="6 1 0.5 1"><line x1="22.499" y1="-2.3" x2="22.499" y2="47.298"/><line x1="-2.3" y1="22.499" x2="47.298" y2="22.499"/></g><g class="ports"><g><circle cx="31.167" cy="22.499" r="1.3" fill="#fff" stroke="#000" stroke-width="0.3"/><path d="M30.361 22.499Q30.764 21.524 31.167 22.499T31.973 22.499" fill="none" stroke="#000" stroke-width="0.3"/></g></g><g class="dimensions"><g stroke="#000" stroke-width="0.25" fill="none"><line x1="22.499" y1="-0.8" x2="22.499" y2="-8.5"/><line x1="31.167" y1="21.699" x2="31.167" y2="-8.5"/><line x1="22.499" y1="-7" x2="39.347" y2="-7"/><line x1="0.7" y1="45.098" x2="0.7" y2="53.498"/><line x1="44.298" y1="45.098" x2="44.298" y2="53.498"/><line x1="0.7" y1="51.998" x2="44.298" y2="51.998"/><line x1="45.098" y1="0.7" x2="53.498" y2="0.7"/><line x1="45.098" y1="44.298" x2="53.498" y2="44.298"/><line x1="51.998" y1="0.7" x2="51.998" y2="44.298"/></g><g><polygon points="22.499,-7 24.999,-7.417 24.999,-6.583" fill="#000" stroke="none"/><polygon points="31.167,-7 28.667,-6.583 28.667,-7.417" fill="#000" stroke="none"/><polygon points="0.7,51.998 3.2,51.581 3.2,52.415" fill="#000" stroke="none"/><polygon points="44.298,51.998 41.798,52.415 41.798,51.581" fill="#000" stroke="none"/><polygon points="51.998,0.7 52.415,3.2 51.581,3.2" fill="#000" stroke="none"/><polygon points="51.998,44.298 51.581,41.798 52.415,41.798" fill="#000" stroke="none"/></g><g fill="#000" font-size="2.5" stroke="none"><text x="36.007" y="-7.7" text-anchor="middle">19.88</text><text x="22.499" y="51.298" text-anchor="middle">gnd = 100</text><text x="51.298" y="22.499" text-anchor="middle" transform="rotate(-90 51.298 22.499)">gnd = 100</text></g></g><g class="triad"><circle cx="7.395" cy="59.831" r="0.35" fill="#000" stroke="none"/><line x1="7.395" y1="59.831" x2="11.595" y2="59.831" stroke="#000" stroke-width="0.25"/><polygon points="11.595,59.831 10.125,60.076 10.125,59.586" fill="#000" stroke="none"/><text x="12.895" y="60.566" font-size="2.1" text-anchor="start" font-style="italic">x</text><line x1="7.395" y1="59.831" x2="7.395" y2="55.631" stroke="#000" stroke-width="0.25"/><polygon points="7.395,55.631 7.64,57.101 7.15,57.101" fill="#000" stroke="none"/><text x="7.395" y="55.066" font-size="2.1" text-anchor="middle" font-style="italic">y</text></g><text x="15.595" y="60.231" font-size="3" font-weight="600">(a) Top view (xy)</text></g></g><g transform="translate(85.015 3)"><g class="view view-iso"><polygon points="0.7,66.123 28.801,82.347 56.901,66.123 28.801,49.899" fill="#d9d9d9" stroke="#000" stroke-width="0.35" stroke-linejoin="round"/><line x1="34.387" y1="68.375" x2="35.273" y2="67.506" stroke="#000" stroke-width="0.35"/><line x1="35.273" y1="67.506" x2="35.961" y2="66.558" stroke="#000" stroke-width="0.35"/><line x1="35.961" y1="66.558" x2="36.432" y2="65.551" stroke="#000" stroke-width="0.35"/><line x1="36.432" y1="65.551" x2="36.671" y2="64.508" stroke="#000" stroke-width="0.35"/><line x1="36.671" y1="64.508" x2="36.671" y2="63.453" stroke="#000" stroke-width="0.35"/><line x1="36.671" y1="63.453" x2="36.432" y2="62.41" stroke="#000" stroke-width="0.35"/><line x1="36.432" y1="62.41" x2="35.961" y2="61.403" stroke="#000" stroke-width="0.35"/><line x1="35.961" y1="61.403" x2="35.273" y2="60.454" stroke="#000" stroke-width="0.35"/><line x1="35.273" y1="60.454" x2="34.387" y2="59.585" stroke="#000" stroke-width="0.35"/><line x1="34.387" y1="59.585" x2="33.332" y2="58.814" stroke="#000" stroke-width="0.35"/><line x1="33.332" y1="58.814" x2="32.14" y2="58.157" stroke="#000" stroke-width="0.35"/><line x1="32.14" y1="58.157" x2="30.846" y2="57.625" stroke="#000" stroke-width="0.35"/><line x1="30.846" y1="57.625" x2="29.489" y2="57.227" stroke="#000" stroke-width="0.35"/><line x1="29.489" y1="57.227" x2="28.112" y2="56.967" stroke="#000" stroke-width="0.35"/><line x1="28.112" y1="56.967" x2="26.756" y2="56.845" stroke="#000" stroke-width="0.35"/><line x1="26.756" y1="56.845" x2="25.462" y2="56.857" stroke="#000" stroke-width="0.35"/><line x1="25.462" y1="56.857" x2="24.269" y2="56.995" stroke="#000" stroke-width="0.35"/><line x1="24.269" y1="56.995" x2="23.214" y2="57.246" stroke="#000" stroke-width="0.35"/><line x1="23.214" y1="57.246" x2="22.329" y2="57.595" stroke="#000" stroke-width="0.35"/><line x1="22.329" y1="57.595" x2="21.64" y2="58.024" stroke="#000" stroke-width="0.35"/><line x1="21.64" y1="58.024" x2="21.169" y2="58.511" stroke="#000" stroke-width="0.35"/><line x1="21.169" y1="58.511" x2="20.93" y2="59.034" stroke="#000" stroke-width="0.35"/><line x1="20.93" y1="59.034" x2="20.93" y2="59.569" stroke="#000" stroke-width="0.35"/><line x1="20.93" y1="59.569" x2="21.169" y2="60.092" stroke="#000" stroke-width="0.35"/><line x1="21.169" y1="60.092" x2="21.64" y2="60.579" stroke="#000" stroke-width="0.35"/><line x1="21.64" y1="60.579" x2="22.329" y2="61.008" stroke="#000" stroke-width="0.35"/><line x1="22.329" y1="61.008" x2="23.214" y2="61.357" stroke="#000" stroke-width="0.35"/><line x1="23.214" y1="61.357" x2="24.269" y2="61.608" stroke="#000" stroke-width="0.35"/><line x1="24.269" y1="61.608" x2="25.462" y2="61.746" stroke="#000" stroke-width="0.35"/><line x1="25.462" y1="61.746" x2="26.756" y2="61.758" stroke="#000" stroke-width="0.35"/><line x1="26.756" y1="61.758" x2="28.112" y2="61.636" stroke="#000" stroke-width="0.35"/><line x1="28.112" y1="61.636" x2="29.489" y2="61.376" stroke="#000" stroke-width="0.35"/><line x1="29.489" y1="61.376" x2="30.846" y2="60.978" stroke="#000" stroke-width="0.35"/><line x1="30.846" y1="60.978" x2="32.14" y2="60.446" stroke="#000" stroke-width="0.35"/><line x1="32.14" y1="60.446" x2="33.332" y2="59.789" stroke="#000" stroke-width="0.35"/><line x1="33.332" y1="59.789" x2="34.387" y2="59.018" stroke="#000" stroke-width="0.35"/><line x1="34.387" y1="59.018" x2="35.273" y2="58.149" stroke="#000" stroke-width="0.35"/><line x1="35.273" y1="58.149" x2="35.961" y2="57.2" stroke="#000" stroke-width="0.35"/><line x1="35.961" y1="57.2" x2="36.432" y2="56.193" stroke="#000" stroke-width="0.35"/><line x1="36.432" y1="56.193" x2="36.671" y2="55.15" stroke="#000" stroke-width="0.35"/><line x1="36.671" y1="55.15" x2="36.671" y2="54.095" stroke="#000" stroke-width="0.35"/><line x1="36.671" y1="54.095" x2="36.432" y2="53.052" stroke="#000" stroke-width="0.35"/><line x1="36.432" y1="53.052" x2="35.961" y2="52.045" stroke="#000" stroke-width="0.35"/><line x1="35.961" y1="52.045" x2="35.273" y2="51.097" stroke="#000" stroke-width="0.35"/><line x1="35.273" y1="51.097" x2="34.387" y2="50.228" stroke="#000" stroke-width="0.35"/><line x1="34.387" y1="50.228" x2="33.332" y2="49.457" stroke="#000" stroke-width="0.35"/><line x1="33.332" y1="49.457" x2="32.14" y2="48.799" stroke="#000" stroke-width="0.35"/><line x1="32.14" y1="48.799" x2="30.846" y2="48.267" stroke="#000" stroke-width="0.35"/><line x1="30.846" y1="48.267" x2="29.489" y2="47.869" stroke="#000" stroke-width="0.35"/><line x1="29.489" y1="47.869" x2="28.112" y2="47.609" stroke="#000" stroke-width="0.35"/><line x1="28.112" y1="47.609" x2="26.756" y2="47.488" stroke="#000" stroke-width="0.35"/><line x1="26.756" y1="47.488" x2="25.462" y2="47.5" stroke="#000" stroke-width="0.35"/><line x1="25.462" y1="47.5" x2="24.269" y2="47.637" stroke="#000" stroke-width="0.35"/><line x1="24.269" y1="47.637" x2="23.214" y2="47.888" stroke="#000" stroke-width="0.35"/><line x1="23.214" y1="47.888" x2="22.329" y2="48.237" stroke="#000" stroke-width="0.35"/><line x1="22.329" y1="48.237" x2="21.64" y2="48.666" stroke="#000" stroke-width="0.35"/><line x1="21.64" y1="48.666" x2="21.169" y2="49.153" stroke="#000" stroke-width="0.35"/><line x1="21.169" y1="49.153" x2="20.93" y2="49.676" stroke="#000" stroke-width="0.35"/><line x1="20.93" y1="49.676" x2="20.93" y2="50.212" stroke="#000" stroke-width="0.35"/><line x1="20.93" y1="50.212" x2="21.169" y2="50.735" stroke="#000" stroke-width="0.35"/><line x1="21.169" y1="50.735" x2="21.64" y2="51.222" stroke="#000" stroke-width="0.35"/><line x1="21.64" y1="51.222" x2="22.329" y2="51.651" stroke="#000" stroke-width="0.35"/><line x1="22.329" y1="51.651" x2="23.214" y2="52" stroke="#000" stroke-width="0.35"/><line x1="23.214" y1="52" x2="24.269" y2="52.251" stroke="#000" stroke-width="0.35"/><line x1="24.269" y1="52.251" x2="25.462" y2="52.389" stroke="#000" stroke-width="0.35"/><line x1="25.462" y1="52.389" x2="26.756" y2="52.401" stroke="#000" stroke-width="0.35"/><line x1="26.756" y1="52.401" x2="28.112" y2="52.279" stroke="#000" stroke-width="0.35"/><line x1="28.112" y1="52.279" x2="29.489" y2="52.019" stroke="#000" stroke-width="0.35"/><line x1="29.489" y1="52.019" x2="30.846" y2="51.621" stroke="#000" stroke-width="0.35"/><line x1="30.846" y1="51.621" x2="32.14" y2="51.089" stroke="#000" stroke-width="0.35"/><line x1="32.14" y1="51.089" x2="33.332" y2="50.431" stroke="#000" stroke-width="0.35"/><line x1="33.332" y1="50.431" x2="34.387" y2="49.66" stroke="#000" stroke-width="0.35"/><line x1="34.387" y1="49.66" x2="35.273" y2="48.791" stroke="#000" stroke-width="0.35"/><line x1="35.273" y1="48.791" x2="35.961" y2="47.843" stroke="#000" stroke-width="0.35"/><line x1="35.961" y1="47.843" x2="36.432" y2="46.836" stroke="#000" stroke-width="0.35"/><line x1="36.432" y1="46.836" x2="36.671" y2="45.793" stroke="#000" stroke-width="0.35"/><line x1="36.671" y1="45.793" x2="36.671" y2="44.738" stroke="#000" stroke-width="0.35"/><line x1="36.671" y1="44.738" x2="36.432" y2="43.695" stroke="#000" stroke-width="0.35"/><line x1="36.432" y1="43.695" x2="35.961" y2="42.688" stroke="#000" stroke-width="0.35"/><line x1="35.961" y1="42.688" x2="35.273" y2="41.739" stroke="#000" stroke-width="0.35"/><line x1="35.273" y1="41.739" x2="34.387" y2="40.87" stroke="#000" stroke-width="0.35"/><line x1="34.387" y1="40.87" x2="33.332" y2="40.099" stroke="#000" stroke-width="0.35"/><line x1="33.332" y1="40.099" x2="32.14" y2="39.442" stroke="#000" stroke-width="0.35"/><line x1="32.14" y1="39.442" x2="30.846" y2="38.91" stroke="#000" stroke-width="0.35"/><line x1="30.846" y1="38.91" x2="29.489" y2="38.512" stroke="#000" stroke-width="0.35"/><line x1="29.489" y1="38.512" x2="28.112" y2="38.252" stroke="#000" stroke-width="0.35"/><line x1="28.112" y1="38.252" x2="26.756" y2="38.13" stroke="#000" stroke-width="0.35"/><line x1="26.756" y1="38.13" x2="25.462" y2="38.142" stroke="#000" stroke-width="0.35"/><line x1="25.462" y1="38.142" x2="24.269" y2="38.28" stroke="#000" stroke-width="0.35"/><line x1="24.269" y1="38.28" x2="23.214" y2="38.531" stroke="#000" stroke-width="0.35"/><line x1="23.214" y1="38.531" x2="22.329" y2="38.88" stroke="#000" stroke-width="0.35"/><line x1="22.329" y1="38.88" x2="21.64" y2="39.309" stroke="#000" stroke-width="0.35"/><line x1="21.64" y1="39.309" x2="21.169" y2="39.796" stroke="#000" stroke-width="0.35"/><line x1="21.169" y1="39.796" x2="20.93" y2="40.319" stroke="#000" stroke-width="0.35"/><line x1="20.93" y1="40.319" x2="20.93" y2="40.854" stroke="#000" stroke-width="0.35"/><line x1="20.93" y1="40.854" x2="21.169" y2="41.377" stroke="#000" stroke-width="0.35"/><line x1="21.169" y1="41.377" x2="21.64" y2="41.864" stroke="#000" stroke-width="0.35"/><line x1="21.64" y1="41.864" x2="22.329" y2="42.293" stroke="#000" stroke-width="0.35"/><line x1="22.329" y1="42.293" x2="23.214" y2="42.642" stroke="#000" stroke-width="0.35"/><line x1="23.214" y1="42.642" x2="24.269" y2="42.893" stroke="#000" stroke-width="0.35"/><line x1="24.269" y1="42.893" x2="25.462" y2="43.031" stroke="#000" stroke-width="0.35"/><line x1="25.462" y1="43.031" x2="26.756" y2="43.043" stroke="#000" stroke-width="0.35"/><line x1="26.756" y1="43.043" x2="28.112" y2="42.921" stroke="#000" stroke-width="0.35"/><line x1="28.112" y1="42.921" x2="29.489" y2="42.661" stroke="#000" stroke-width="0.35"/><line x1="29.489" y1="42.661" x2="30.846" y2="42.263" stroke="#000" stroke-width="0.35"/><line x1="30.846" y1="42.263" x2="32.14" y2="41.731" stroke="#000" stroke-width="0.35"/><line x1="32.14" y1="41.731" x2="33.332" y2="41.074" stroke="#000" stroke-width="0.35"/><line x1="33.332" y1="41.074" x2="34.387" y2="40.303" stroke="#000" stroke-width="0.35"/><line x1="34.387" y1="40.303" x2="35.273" y2="39.434" stroke="#000" stroke-width="0.35"/><line x1="35.273" y1="39.434" x2="35.961" y2="38.485" stroke="#000" stroke-width="0.35"/><line x1="35.961" y1="38.485" x2="36.432" y2="37.478" stroke="#000" stroke-width="0.35"/><line x1="36.432" y1="37.478" x2="36.671" y2="36.435" stroke="#000" stroke-width="0.35"/><line x1="36.671" y1="36.435" x2="36.671" y2="35.38" stroke="#000" stroke-width="0.35"/><line x1="36.671" y1="35.38" x2="36.432" y2="34.337" stroke="#000" stroke-width="0.35"/><line x1="36.432" y1="34.337" x2="35.961" y2="33.33" stroke="#000" stroke-width="0.35"/><line x1="35.961" y1="33.33" x2="35.273" y2="32.382" stroke="#000" stroke-width="0.35"/><line x1="35.273" y1="32.382" x2="34.387" y2="31.513" stroke="#000" stroke-width="0.35"/><line x1="34.387" y1="31.513" x2="33.332" y2="30.742" stroke="#000" stroke-width="0.35"/><line x1="33.332" y1="30.742" x2="32.14" y2="30.084" stroke="#000" stroke-width="0.35"/><line x1="32.14" y1="30.084" x2="30.846" y2="29.552" stroke="#000" stroke-width="0.35"/><line x1="30.846" y1="29.552" x2="29.489" y2="29.154" stroke="#000" stroke-width="0.35"/><line x1="29.489" y1="29.154" x2="28.112" y2="28.894" stroke="#000" stroke-width="0.35"/><line x1="28.112" y1="28.894" x2="26.756" y2="28.773" stroke="#000" stroke-width="0.35"/><line x1="26.756" y1="28.773" x2="25.462" y2="28.785" stroke="#000" stroke-width="0.35"/><line x1="25.462" y1="28.785" x2="24.269" y2="28.922" stroke="#000" stroke-width="0.35"/><line x1="24.269" y1="28.922" x2="23.214" y2="29.173" stroke="#000" stroke-width="0.35"/><line x1="23.214" y1="29.173" x2="22.329" y2="29.522" stroke="#000" stroke-width="0.35"/><line x1="22.329" y1="29.522" x2="21.64" y2="29.951" stroke="#000" stroke-width="0.35"/><line x1="21.64" y1="29.951" x2="21.169" y2="30.438" stroke="#000" stroke-width="0.35"/><line x1="21.169" y1="30.438" x2="20.93" y2="30.961" stroke="#000" stroke-width="0.35"/><line x1="20.93" y1="30.961" x2="20.93" y2="31.497" stroke="#000" stroke-width="0.35"/><line x1="20.93" y1="31.497" x2="21.169" y2="32.02" stroke="#000" stroke-width="0.35"/><line x1="21.169" y1="32.02" x2="21.64" y2="32.507" stroke="#000" stroke-width="0.35"/><line x1="21.64" y1="32.507" x2="22.329" y2="32.936" stroke="#000" stroke-width="0.35"/><line x1="22.329" y1="32.936" x2="23.214" y2="33.285" stroke="#000" stroke-width="0.35"/><line x1="23.214" y1="33.285" x2="24.269" y2="33.536" stroke="#000" stroke-width="0.35"/><line x1="24.269" y1="33.536" x2="25.462" y2="33.674" stroke="#000" stroke-width="0.35"/><line x1="25.462" y1="33.674" x2="26.756" y2="33.686" stroke="#000" stroke-width="0.35"/><line x1="26.756" y1="33.686" x2="28.112" y2="33.564" stroke="#000" stroke-width="0.35"/><line x1="28.112" y1="33.564" x2="29.489" y2="33.304" stroke="#000" stroke-width="0.35"/><line x1="29.489" y1="33.304" x2="30.846" y2="32.906" stroke="#000" stroke-width="0.35"/><line x1="30.846" y1="32.906" x2="32.14" y2="32.374" stroke="#000" stroke-width="0.35"/><line x1="32.14" y1="32.374" x2="33.332" y2="31.716" stroke="#000" stroke-width="0.35"/><line x1="33.332" y1="31.716" x2="34.387" y2="30.945" stroke="#000" stroke-width="0.35"/><line x1="34.387" y1="30.945" x2="35.273" y2="30.076" stroke="#000" stroke-width="0.35"/><line x1="35.273" y1="30.076" x2="35.961" y2="29.128" stroke="#000" stroke-width="0.35"/><line x1="35.961" y1="29.128" x2="36.432" y2="28.121" stroke="#000" stroke-width="0.35"/><line x1="36.432" y1="28.121" x2="36.671" y2="27.078" stroke="#000" stroke-width="0.35"/><line x1="36.671" y1="27.078" x2="36.671" y2="26.023" stroke="#000" stroke-width="0.35"/><line x1="36.671" y1="26.023" x2="36.432" y2="24.98" stroke="#000" stroke-width="0.35"/><line x1="36.432" y1="24.98" x2="35.961" y2="23.973" stroke="#000" stroke-width="0.35"/><line x1="35.961" y1="23.973" x2="35.273" y2="23.024" stroke="#000" stroke-width="0.35"/><line x1="35.273" y1="23.024" x2="34.387" y2="22.155" stroke="#000" stroke-width="0.35"/><line x1="34.387" y1="22.155" x2="33.332" y2="21.384" stroke="#000" stroke-width="0.35"/><line x1="33.332" y1="21.384" x2="32.14" y2="20.727" stroke="#000" stroke-width="0.35"/><line x1="32.14" y1="20.727" x2="30.846" y2="20.195" stroke="#000" stroke-width="0.35"/><line x1="30.846" y1="20.195" x2="29.489" y2="19.797" stroke="#000" stroke-width="0.35"/><line x1="29.489" y1="19.797" x2="28.112" y2="19.537" stroke="#000" stroke-width="0.35"/><line x1="28.112" y1="19.537" x2="26.756" y2="19.415" stroke="#000" stroke-width="0.35"/><line x1="26.756" y1="19.415" x2="25.462" y2="19.427" stroke="#000" stroke-width="0.35"/><line x1="25.462" y1="19.427" x2="24.269" y2="19.565" stroke="#000" stroke-width="0.35"/><line x1="24.269" y1="19.565" x2="23.214" y2="19.816" stroke="#000" stroke-width="0.35"/><line x1="23.214" y1="19.816" x2="22.329" y2="20.165" stroke="#000" stroke-width="0.35"/><line x1="22.329" y1="20.165" x2="21.64" y2="20.594" stroke="#000" stroke-width="0.35"/><line x1="21.64" y1="20.594" x2="21.169" y2="21.081" stroke="#000" stroke-width="0.35"/><line x1="21.169" y1="21.081" x2="20.93" y2="21.604" stroke="#000" stroke-width="0.35"/><line x1="20.93" y1="21.604" x2="20.93" y2="22.139" stroke="#000" stroke-width="0.35"/><line x1="20.93" y1="22.139" x2="21.169" y2="22.662" stroke="#000" stroke-width="0.35"/><line x1="21.169" y1="22.662" x2="21.64" y2="23.149" stroke="#000" stroke-width="0.35"/><line x1="21.64" y1="23.149" x2="22.329" y2="23.578" stroke="#000" stroke-width="0.35"/><line x1="22.329" y1="23.578" x2="23.214" y2="23.927" stroke="#000" stroke-width="0.35"/><line x1="23.214" y1="23.927" x2="24.269" y2="24.178" stroke="#000" stroke-width="0.35"/><line x1="24.269" y1="24.178" x2="25.462" y2="24.316" stroke="#000" stroke-width="0.35"/><line x1="25.462" y1="24.316" x2="26.756" y2="24.328" stroke="#000" stroke-width="0.35"/><line x1="26.756" y1="24.328" x2="28.112" y2="24.206" stroke="#000" stroke-width="0.35"/><line x1="28.112" y1="24.206" x2="29.489" y2="23.946" stroke="#000" stroke-width="0.35"/><line x1="29.489" y1="23.946" x2="30.846" y2="23.548" stroke="#000" stroke-width="0.35"/><line x1="30.846" y1="23.548" x2="32.14" y2="23.016" stroke="#000" stroke-width="0.35"/><line x1="32.14" y1="23.016" x2="33.332" y2="22.359" stroke="#000" stroke-width="0.35"/><line x1="33.332" y1="22.359" x2="34.387" y2="21.588" stroke="#000" stroke-width="0.35"/><line x1="34.387" y1="21.588" x2="35.273" y2="20.719" stroke="#000" stroke-width="0.35"/><line x1="35.273" y1="20.719" x2="35.961" y2="19.77" stroke="#000" stroke-width="0.35"/><line x1="35.961" y1="19.77" x2="36.432" y2="18.763" stroke="#000" stroke-width="0.35"/><line x1="36.432" y1="18.763" x2="36.671" y2="17.72" stroke="#000" stroke-width="0.35"/><line x1="36.671" y1="17.72" x2="36.671" y2="16.665" stroke="#000" stroke-width="0.35"/><line x1="36.671" y1="16.665" x2="36.432" y2="15.622" stroke="#000" stroke-width="0.35"/><line x1="36.432" y1="15.622" x2="35.961" y2="14.615" stroke="#000" stroke-width="0.35"/><line x1="35.961" y1="14.615" x2="35.273" y2="13.667" stroke="#000" stroke-width="0.35"/><line x1="35.273" y1="13.667" x2="34.387" y2="12.798" stroke="#000" stroke-width="0.35"/><line x1="34.387" y1="12.798" x2="33.332" y2="12.027" stroke="#000" stroke-width="0.35"/><line x1="33.332" y1="12.027" x2="32.14" y2="11.369" stroke="#000" stroke-width="0.35"/><line x1="32.14" y1="11.369" x2="30.846" y2="10.837" stroke="#000" stroke-width="0.35"/><line x1="30.846" y1="10.837" x2="29.489" y2="10.439" stroke="#000" stroke-width="0.35"/><line x1="29.489" y1="10.439" x2="28.112" y2="10.179" stroke="#000" stroke-width="0.35"/><line x1="28.112" y1="10.179" x2="26.756" y2="10.058" stroke="#000" stroke-width="0.35"/><line x1="26.756" y1="10.058" x2="25.462" y2="10.07" stroke="#000" stroke-width="0.35"/><line x1="25.462" y1="10.07" x2="24.269" y2="10.207" stroke="#000" stroke-width="0.35"/><line x1="24.269" y1="10.207" x2="23.214" y2="10.458" stroke="#000" stroke-width="0.35"/><line x1="23.214" y1="10.458" x2="22.329" y2="10.807" stroke="#000" stroke-width="0.35"/><line x1="22.329" y1="10.807" x2="21.64" y2="11.236" stroke="#000" stroke-width="0.35"/><line x1="21.64" y1="11.236" x2="21.169" y2="11.723" stroke="#000" stroke-width="0.35"/><line x1="21.169" y1="11.723" x2="20.93" y2="12.246" stroke="#000" stroke-width="0.35"/><line x1="20.93" y1="12.246" x2="20.93" y2="12.782" stroke="#000" stroke-width="0.35"/><line x1="20.93" y1="12.782" x2="21.169" y2="13.305" stroke="#000" stroke-width="0.35"/><line x1="21.169" y1="13.305" x2="21.64" y2="13.792" stroke="#000" stroke-width="0.35"/><line x1="21.64" y1="13.792" x2="22.329" y2="14.221" stroke="#000" stroke-width="0.35"/><line x1="22.329" y1="14.221" x2="23.214" y2="14.57" stroke="#000" stroke-width="0.35"/><line x1="23.214" y1="14.57" x2="24.269" y2="14.821" stroke="#000" stroke-width="0.35"/><line x1="24.269" y1="14.821" x2="25.462" y2="14.959" stroke="#000" stroke-width="0.35"/><line x1="25.462" y1="14.959" x2="26.756" y2="14.971" stroke="#000" stroke-width="0.35"/><line x1="26.756" y1="14.971" x2="28.112" y2="14.849" stroke="#000" stroke-width="0.35"/><line x1="28.112" y1="14.849" x2="29.489" y2="14.589" stroke="#000" stroke-width="0.35"/><line x1="29.489" y1="14.589" x2="30.846" y2="14.191" stroke="#000" stroke-width="0.35"/><line x1="30.846" y1="14.191" x2="32.14" y2="13.659" stroke="#000" stroke-width="0.35"/><line x1="32.14" y1="13.659" x2="33.332" y2="13.001" stroke="#000" stroke-width="0.35"/><line x1="33.332" y1="13.001" x2="34.387" y2="12.23" stroke="#000" stroke-width="0.35"/><line x1="34.387" y1="12.23" x2="35.273" y2="11.361" stroke="#000" stroke-width="0.35"/><line x1="35.273" y1="11.361" x2="35.961" y2="10.413" stroke="#000" stroke-width="0.35"/><line x1="35.961" y1="10.413" x2="36.432" y2="9.406" stroke="#000" stroke-width="0.35"/><line x1="36.432" y1="9.406" x2="36.671" y2="8.363" stroke="#000" stroke-width="0.35"/><line x1="36.671" y1="8.363" x2="36.671" y2="7.308" stroke="#000" stroke-width="0.35"/><line x1="36.671" y1="7.308" x2="36.432" y2="6.265" stroke="#000" stroke-width="0.35"/><line x1="36.432" y1="6.265" x2="35.961" y2="5.258" stroke="#000" stroke-width="0.35"/><line x1="35.961" y1="5.258" x2="35.273" y2="4.309" stroke="#000" stroke-width="0.35"/><line x1="35.273" y1="4.309" x2="34.387" y2="3.44" stroke="#000" stroke-width="0.35"/><line x1="34.387" y1="3.44" x2="33.332" y2="2.669" stroke="#000" stroke-width="0.35"/><line x1="33.332" y1="2.669" x2="32.14" y2="2.012" stroke="#000" stroke-width="0.35"/><line x1="32.14" y1="2.012" x2="30.846" y2="1.48" stroke="#000" stroke-width="0.35"/><line x1="30.846" y1="1.48" x2="29.489" y2="1.082" stroke="#000" stroke-width="0.35"/><line x1="29.489" y1="1.082" x2="28.112" y2="0.822" stroke="#000" stroke-width="0.35"/><line x1="28.112" y1="0.822" x2="26.756" y2="0.7" stroke="#000" stroke-width="0.35"/><line x1="26.756" y1="0.7" x2="25.462" y2="0.712" stroke="#000" stroke-width="0.35"/><line x1="25.462" y1="0.712" x2="24.269" y2="0.85" stroke="#000" stroke-width="0.35"/><line x1="24.269" y1="0.85" x2="23.214" y2="1.101" stroke="#000" stroke-width="0.35"/><line x1="23.214" y1="1.101" x2="22.329" y2="1.45" stroke="#000" stroke-width="0.35"/><line x1="22.329" y1="1.45" x2="21.64" y2="1.879" stroke="#000" stroke-width="0.35"/><line x1="21.64" y1="1.879" x2="21.169" y2="2.366" stroke="#000" stroke-width="0.35"/><line x1="21.169" y1="2.366" x2="20.93" y2="2.889" stroke="#000" stroke-width="0.35"/><line x1="20.93" y1="2.889" x2="20.93" y2="3.424" stroke="#000" stroke-width="0.35"/><line x1="20.93" y1="3.424" x2="21.169" y2="3.947" stroke="#000" stroke-width="0.35"/><line x1="21.169" y1="3.947" x2="21.64" y2="4.434" stroke="#000" stroke-width="0.35"/><line x1="21.64" y1="4.434" x2="22.329" y2="4.863" stroke="#000" stroke-width="0.35"/><line x1="22.329" y1="4.863" x2="23.214" y2="5.212" stroke="#000" stroke-width="0.35"/><line x1="23.214" y1="5.212" x2="24.269" y2="5.463" stroke="#000" stroke-width="0.35"/><line x1="24.269" y1="5.463" x2="25.462" y2="5.601" stroke="#000" stroke-width="0.35"/><line x1="25.462" y1="5.601" x2="26.756" y2="5.613" stroke="#000" stroke-width="0.35"/><line x1="26.756" y1="5.613" x2="28.112" y2="5.491" stroke="#000" stroke-width="0.35"/><line x1="28.112" y1="5.491" x2="29.489" y2="5.231" stroke="#000" stroke-width="0.35"/><line x1="29.489" y1="5.231" x2="30.846" y2="4.833" stroke="#000" stroke-width="0.35"/><line x1="30.846" y1="4.833" x2="32.14" y2="4.301" stroke="#000" stroke-width="0.35"/><line x1="32.14" y1="4.301" x2="33.332" y2="3.644" stroke="#000" stroke-width="0.35"/><line x1="33.332" y1="3.644" x2="34.387" y2="2.873" stroke="#000" stroke-width="0.35"/><line x1="34.387" y1="69.349" x2="34.387" y2="68.375" stroke="#000" stroke-width="0.25"/><g><circle cx="34.387" cy="68.862" r="1.105" fill="#fff" stroke="#000" stroke-width="0.3"/><path d="M33.702 68.862Q34.045 68.033 34.387 68.862T35.072 68.862" fill="none" stroke="#000" stroke-width="0.3"/></g><text x="36.487" y="69.597" font-size="2.1">P1</text><g class="triad"><circle cx="14.386" cy="89.847" r="0.35" fill="#000" stroke="none"/><line x1="14.386" y1="89.847" x2="17.33" y2="91.547" stroke="#000" stroke-width="0.25"/><polygon points="17.33,91.547 16.2,91.124 16.399,90.781" fill="#000" stroke="none"/><text x="18.456" y="92.932" font-size="2.1" text-anchor="start" font-style="italic">x</text><line x1="14.386" y1="89.847" x2="17.33" y2="88.147" stroke="#000" stroke-width="0.25"/><polygon points="17.33,88.147 16.399,88.914 16.2,88.571" fill="#000" stroke="none"/><text x="18.456" y="88.232" font-size="2.1" text-anchor="start" font-style="italic">y</text><line x1="14.386" y1="89.847" x2="14.386" y2="86.447" stroke="#000" stroke-width="0.25"/><polygon points="14.386,86.447 14.584,87.637 14.187,87.637" fill="#000" stroke="none"/><text x="14.386" y="85.882" font-size="2.1" text-anchor="middle" font-style="italic">z</text></g><text x="21.186" y="91.047" font-size="3" font-weight="600">(b) Isometric view</text></g></g><g transform="translate(17.384 103.047)"><g class="view view-front"><g></g><g fill="none" stroke="#000" stroke-width="0.35"></g><g stroke-linejoin="round"><polygon points="31.167,88.711 31.035,88.362 30.644,88.013 30.005,87.664 29.139,87.314 28.07,86.965 26.833,86.616 25.464,86.267 24.004,85.917 22.499,85.568 20.994,85.219 19.535,84.87 18.165,84.52 16.928,84.171 15.859,83.822 14.993,83.473 14.354,83.123 13.963,82.774 13.831,82.425 13.963,82.076 14.354,81.726 14.993,81.377 15.859,81.028 16.928,80.679 18.165,80.329 19.535,79.98 20.994,79.631 22.499,79.282 24.004,78.932 25.464,78.583 26.833,78.234 28.07,77.885 29.139,77.535 30.005,77.186 30.644,76.837 31.035,76.488 31.167,76.138 31.035,75.789 30.644,75.44 30.005,75.091 29.139,74.741 28.07,74.392 26.833,74.043 25.464,73.694 24.004,73.344 22.499,72.995 20.994,72.646 19.535,72.297 18.165,71.947 16.928,71.598 15.859,71.249 14.993,70.9 14.354,70.55 13.963,70.201 13.831,69.852 13.963,69.503 14.354,69.153 14.993,68.804 15.859,68.455 16.928,68.106 18.165,67.756 19.535,67.407 20.994,67.058 22.499,66.709 24.004,66.359 25.464,66.01 26.833,65.661 28.07,65.312 29.139,64.962 30.005,64.613 30.644,64.264 31.035,63.915 31.167,63.565 31.035,63.216 30.644,62.867 30.005,62.518 29.139,62.168 28.07,61.819 26.833,61.47 25.464,61.12 24.004,60.771 22.499,60.422 20.994,60.073 19.535,59.723 18.165,59.374 16.928,59.025 15.859,58.676 14.993,58.326 14.354,57.977 13.963,57.628 13.831,57.279 13.963,56.929 14.354,56.58 14.993,56.231 15.859,55.882 16.928,55.532 18.165,55.183 19.535,54.834 20.994,54.485 22.499,54.135 24.004,53.786 25.464,53.437 26.833,53.088 28.07,52.738 29.139,52.389 30.005,52.04 30.644,51.691 31.035,51.341 31.167,50.992 31.035,50.643 30.644,50.294 30.005,49.944 29.139,49.595 28.07,49.246 26.833,48.897 25.464,48.547 24.004,48.198 22.499,47.849 20.994,47.5 19.535,47.15 18.165,46.801 16.928,46.452 15.859,46.103 14.993,45.753 14.354,45.404 13.963,45.055 13.831,44.706 13.963,44.356 14.354,44.007 14.993,43.658 15.859,43.309 16.928,42.959 18.165,42.61 19.535,42.261 20.994,41.912 22.499,41.562 24.004,41.213 25.464,40.864 26.833,40.515 28.07,40.165 29.139,39.816 30.005,39.467 30.644,39.118 31.035,38.768 31.167,38.419 31.035,38.07 30.644,37.721 30.005,37.371 29.139,37.022 28.07,36.673 26.833,36.324 25.464,35.974 24.004,35.625 22.499,35.276 20.994,34.927 19.535,34.577 18.165,34.228 16.928,33.879 15.859,33.53 14.993,33.18 14.354,32.831 13.963,32.482 13.831,32.133 13.963,31.783 14.354,31.434 14.993,31.085 15.859,30.736 16.928,30.386 18.165,30.037 19.535,29.688 20.994,29.339 22.499,28.989 24.004,28.64 25.464,28.291 26.833,27.942 28.07,27.592 29.139,27.243 30.005,26.894 30.644,26.545 31.035,26.195 31.167,25.846 31.035,25.497 30.644,25.148 30.005,24.798 29.139,24.449 28.07,24.1 26.833,23.751 25.464,23.401 24.004,23.052 22.499,22.703 20.994,22.354 19.535,22.004 18.165,21.655 16.928,21.306 15.859,20.957 14.993,20.607 14.354,20.258 13.963,19.909 13.831,19.56 13.963,19.21 14.354,18.861 14.993,18.512 15.859,18.163 16.928,17.813 18.165,17.464 19.535,17.115 20.994,16.766 22.499,16.416 24.004,16.067 25.464,15.718 26.833,15.369 28.07,15.019 29.139,14.67 30.005,14.321 30.644,13.972 31.035,13.622 31.167,13.273 31.035,12.924 30.644,12.575 30.005,12.225 29.139,11.876 28.07,11.527 26.833,11.178 25.464,10.828 24.004,10.479 22.499,10.13 20.994,9.781 19.535,9.431 18.165,9.082 16.928,8.733 15.859,8.384 14.993,8.034 14.354,7.685 13.963,7.336 13.831,6.987 13.963,6.637 14.354,6.288 14.993,5.939 15.859,5.59 16.928,5.24 18.165,4.891 19.535,4.542 20.994,4.193 22.499,3.843 24.004,3.494 25.464,3.145 26.833,2.796 28.07,2.446 29.139,2.097 30.005,1.748 30.644,1.399 31.035,1.049 31.167,0.7 31.035,1.049 30.644,1.399 30.005,1.748 29.139,2.097 28.07,2.446 26.833,2.796 25.464,3.145 24.004,3.494 22.499,3.843 20.994,4.193 19.535,4.542 18.165,4.891 16.928,5.24 15.859,5.59 14.993,5.939 14.354,6.288 13.963,6.637 13.831,6.987 13.963,7.336 14.354,7.685 14.993,8.034 15.859,8.384 16.928,8.733 18.165,9.082 19.535,9.431 20.994,9.781 22.499,10.13 24.004,10.479 25.464,10.828 26.833,11.178 28.07,11.527 29.139,11.876 30.005,12.225 30.644,12.575 31.035,12.924 31.167,13.273 31.035,13.622 30.644,13.972 30.005,14.321 29.139,14.67 28.07,15.019 26.833,15.369 25.464,15.718 24.004,16.067 22.499,16.416 20.994,16.766 19.535,17.115 18.165,17.464 16.928,17.813 15.859,18.163 14.993,18.512 14.354,18.861 13.963,19.21 13.831,19.56 13.963,19.909 14.354,20.258 14.993,20.607 15.859,20.957 16.928,21.306 18.165,21.655 19.535,22.004 20.994,22.354 22.499,22.703 24.004,23.052 25.464,23.401 26.833,23.751 28.07,24.1 29.139,24.449 30.005,24.798 30.644,25.148 31.035,25.497 31.167,25.846 31.035,26.195 30.644,26.545 30.005,26.894 29.139,27.243 28.07,27.592 26.833,27.942 25.464,28.291 24.004,28.64 22.499,28.989 20.994,29.339 19.535,29.688 18.165,30.037 16.928,30.386 15.859,30.736 14.993,31.085 14.354,31.434 13.963,31.783 13.831,32.133 13.963,32.482 14.354,32.831 14.993,33.18 15.859,33.53 16.928,33.879 18.165,34.228 19.535,34.577 20.994,34.927 22.499,35.276 24.004,35.625 25.464,35.974 26.833,36.324 28.07,36.673 29.139,37.022 30.005,37.371 30.644,37.721 31.035,38.07 31.167,38.419 31.035,38.768 30.644,39.118 30.005,39.467 29.139,39.816 28.07,40.165 26.833,40.515 25.464,40.864 24.004,41.213 22.499,41.562 20.994,41.912 19.535,42.261 18.165,42.61 16.928,42.959 15.859,43.309 14.993,43.658 14.354,44.007 13.963,44.356 13.831,44.706 13.963,45.055 14.354,45.404 14.993,45.753 15.859,46.103 16.928,46.452 18.165,46.801 19.535,47.15 20.994,47.5 22.499,47.849 24.004,48.198 25.464,48.547 26.833,48.897 28.07,49.246 29.139,49.595 30.005,49.944 30.644,50.294 31.035,50.643 31.167,50.992 31.035,51.341 30.644,51.691 30.005,52.04 29.139,52.389 28.07,52.738 26.833,53.088 25.464,53.437 24.004,53.786 22.499,54.135 20.994,54.485 19.535,54.834 18.165,55.183 16.928,55.532 15.859,55.882 14.993,56.231 14.354,56.58 13.963,56.929 13.831,57.279 13.963,57.628 14.354,57.977 14.993,58.326 15.859,58.676 16.928,59.025 18.165,59.374 19.535,59.723 20.994,60.073 22.499,60.422 24.004,60.771 25.464,61.12 26.833,61.47 28.07,61.819 29.139,62.168 30.005,62.518 30.644,62.867 31.035,63.216 31.167,63.565 31.035,63.915 30.644,64.264 30.005,64.613 29.139,64.962 28.07,65.312 26.833,65.661 25.464,66.01 24.004,66.359 22.499,66.709 20.994,67.058 19.535,67.407 18.165,67.756 16.928,68.106 15.859,68.455 14.993,68.804 14.354,69.153 13.963,69.503 13.831,69.852 13.963,70.201 14.354,70.55 14.993,70.9 15.859,71.249 16.928,71.598 18.165,71.947 19.535,72.297 20.994,72.646 22.499,72.995 24.004,73.344 25.464,73.694 26.833,74.043 28.07,74.392 29.139,74.741 30.005,75.091 30.644,75.44 31.035,75.789 31.167,76.138 31.035,76.488 30.644,76.837 30.005,77.186 29.139,77.535 28.07,77.885 26.833,78.234 25.464,78.583 24.004,78.932 22.499,79.282 20.994,79.631 19.535,79.98 18.165,80.329 16.928,80.679 15.859,81.028 14.993,81.377 14.354,81.726 13.963,82.076 13.831,82.425 13.963,82.774 14.354,83.123 14.993,83.473 15.859,83.822 16.928,84.171 18.165,84.52 19.535,84.87 20.994,85.219 22.499,85.568 24.004,85.917 25.464,86.267 26.833,86.616 28.07,86.965 29.139,87.314 30.005,87.664 30.644,88.013 31.035,88.362" fill="#d9d9d9" stroke="#000" stroke-width="0.5"/><rect x="0.7" y="89.669" width="43.598" height="0.7" fill="#000" stroke="none"/></g><g stroke="#000" stroke-width="0.25" stroke-dasharray="6 1 0.5 1"><line x1="22.499" y1="-2.3" x2="22.499" y2="93.019"/></g><g class="ports"><line x1="31.167" y1="90.019" x2="31.167" y2="88.711" stroke="#000" stroke-width="0.25"/><g><circle cx="31.167" cy="89.365" r="1.3" fill="#fff" stroke="#000" stroke-width="0.3"/><path d="M30.361 89.365Q30.764 88.39 31.167 89.365T31.973 89.365" fill="none" stroke="#000" stroke-width="0.3"/></g><g><polyline points="29.867,89.365 26.867,89.365 16.559,89.365" fill="none" stroke="#000" stroke-width="0.25"/><rect x="16.559" y="87.37" width="10.307" height="1.795" fill="#fff" stroke="none" fill-opacity="0.85"/><text x="26.267" y="88.765" font-size="2.1" text-anchor="end">P1 120 Ω</text></g></g><g class="dimensions"><g stroke="#000" stroke-width="0.25" fill="none"><line x1="13.831" y1="83.225" x2="13.831" y2="99.219"/><line x1="31.167" y1="89.511" x2="31.167" y2="99.219"/><line x1="13.831" y1="97.719" x2="31.167" y2="97.719"/><line x1="31.967" y1="88.711" x2="53.498" y2="88.711"/><line x1="31.967" y1="90.019" x2="53.498" y2="90.019"/><line x1="51.998" y1="70.009" x2="51.998" y2="94.019"/><line x1="31.967" y1="0.7" x2="58.998" y2="0.7"/><line x1="31.967" y1="88.711" x2="58.998" y2="88.711"/><line x1="57.498" y1="0.7" x2="57.498" y2="88.711"/></g><g><polygon points="13.831,97.719 16.331,97.303 16.331,98.136" fill="#000" stroke="none"/><polygon points="31.167,97.719 28.667,98.136 28.667,97.303" fill="#000" stroke="none"/><polygon points="51.998,88.711 51.581,86.211 52.415,86.211" fill="#000" stroke="none"/><polygon points="51.998,90.019 52.415,92.519 51.581,92.519" fill="#000" stroke="none"/><polygon points="57.498,0.7 57.915,3.2 57.081,3.2" fill="#000" stroke="none"/><polygon points="57.498,88.711 57.081,86.211 57.915,86.211" fill="#000" stroke="none"/></g><g fill="#000" font-size="2.5" stroke="none"><text x="22.499" y="97.019" text-anchor="middle">39.76</text><text x="51.298" y="77.36" text-anchor="middle" transform="rotate(-90 51.298 77.36)">feed_gap = 3</text><text x="56.798" y="44.706" text-anchor="middle" transform="rotate(-90 56.798 44.706)">201.9</text></g></g><g class="triad"><circle cx="6.369" cy="105.553" r="0.35" fill="#000" stroke="none"/><line x1="6.369" y1="105.553" x2="10.569" y2="105.553" stroke="#000" stroke-width="0.25"/><polygon points="10.569,105.553 9.099,105.798 9.099,105.308" fill="#000" stroke="none"/><text x="11.869" y="106.288" font-size="2.1" text-anchor="start" font-style="italic">x</text><line x1="6.369" y1="105.553" x2="6.369" y2="101.353" stroke="#000" stroke-width="0.25"/><polygon points="6.369,101.353 6.614,102.823 6.124,102.823" fill="#000" stroke="none"/><text x="6.369" y="100.788" font-size="2.1" text-anchor="middle" font-style="italic">z</text></g><text x="14.569" y="105.953" font-size="3" font-weight="600">(c) Front view (xz)</text></g></g><g transform="translate(85.015 103.047)"><g class="view view-side"><g></g><g fill="none" stroke="#000" stroke-width="0.35"></g><g stroke-linejoin="round"><polygon points="22.499,88.711 24.004,88.362 25.464,88.013 26.833,87.664 28.07,87.314 29.139,86.965 30.005,86.616 30.644,86.267 31.035,85.917 31.167,85.568 31.035,85.219 30.644,84.87 30.005,84.52 29.139,84.171 28.07,83.822 26.833,83.473 25.464,83.123 24.004,82.774 22.499,82.425 20.994,82.076 19.535,81.726 18.165,81.377 16.928,81.028 15.859,80.679 14.993,80.329 14.354,79.98 13.963,79.631 13.831,79.282 13.963,78.932 14.354,78.583 14.993,78.234 15.859,77.885 16.928,77.535 18.165,77.186 19.535,76.837 20.994,76.488 22.499,76.138 24.004,75.789 25.464,75.44 26.833,75.091 28.07,74.741 29.139,74.392 30.005,74.043 30.644,73.694 31.035,73.344 31.167,72.995 31.035,72.646 30.644,72.297 30.005,71.947 29.139,71.598 28.07,71.249 26.833,70.9 25.464,70.55 24.004,70.201 22.499,69.852 20.994,69.503 19.535,69.153 18.165,68.804 16.928,68.455 15.859,68.106 14.993,67.756 14.354,67.407 13.963,67.058 13.831,66.709 13.963,66.359 14.354,66.01 14.993,65.661 15.859,65.312 16.928,64.962 18.165,64.613 19.535,64.264 20.994,63.915 22.499,63.565 24.004,63.216 25.464,62.867 26.833,62.518 28.07,62.168 29.139,61.819 30.005,61.47 30.644,61.12 31.035,60.771 31.167,60.422 31.035,60.073 30.644,59.723 30.005,59.374 29.139,59.025 28.07,58.676 26.833,58.326 25.464,57.977 24.004,57.628 22.499,57.279 20.994,56.929 19.535,56.58 18.165,56.231 16.928,55.882 15.859,55.532 14.993,55.183 14.354,54.834 13.963,54.485 13.831,54.135 13.963,53.786 14.354,53.437 14.993,53.088 15.859,52.738 16.928,52.389 18.165,52.04 19.535,51.691 20.994,51.341 22.499,50.992 24.004,50.643 25.464,50.294 26.833,49.944 28.07,49.595 29.139,49.246 30.005,48.897 30.644,48.547 31.035,48.198 31.167,47.849 31.035,47.5 30.644,47.15 30.005,46.801 29.139,46.452 28.07,46.103 26.833,45.753 25.464,45.404 24.004,45.055 22.499,44.706 20.994,44.356 19.535,44.007 18.165,43.658 16.928,43.309 15.859,42.959 14.993,42.61 14.354,42.261 13.963,41.912 13.831,41.562 13.963,41.213 14.354,40.864 14.993,40.515 15.859,40.165 16.928,39.816 18.165,39.467 19.535,39.118 20.994,38.768 22.499,38.419 24.004,38.07 25.464,37.721 26.833,37.371 28.07,37.022 29.139,36.673 30.005,36.324 30.644,35.974 31.035,35.625 31.167,35.276 31.035,34.927 30.644,34.577 30.005,34.228 29.139,33.879 28.07,33.53 26.833,33.18 25.464,32.831 24.004,32.482 22.499,32.133 20.994,31.783 19.535,31.434 18.165,31.085 16.928,30.736 15.859,30.386 14.993,30.037 14.354,29.688 13.963,29.339 13.831,28.989 13.963,28.64 14.354,28.291 14.993,27.942 15.859,27.592 16.928,27.243 18.165,26.894 19.535,26.545 20.994,26.195 22.499,25.846 24.004,25.497 25.464,25.148 26.833,24.798 28.07,24.449 29.139,24.1 30.005,23.751 30.644,23.401 31.035,23.052 31.167,22.703 31.035,22.354 30.644,22.004 30.005,21.655 29.139,21.306 28.07,20.957 26.833,20.607 25.464,20.258 24.004,19.909 22.499,19.56 20.994,19.21 19.535,18.861 18.165,18.512 16.928,18.163 15.859,17.813 14.993,17.464 14.354,17.115 13.963,16.766 13.831,16.416 13.963,16.067 14.354,15.718 14.993,15.369 15.859,15.019 16.928,14.67 18.165,14.321 19.535,13.972 20.994,13.622 22.499,13.273 24.004,12.924 25.464,12.575 26.833,12.225 28.07,11.876 29.139,11.527 30.005,11.178 30.644,10.828 31.035,10.479 31.167,10.13 31.035,9.781 30.644,9.431 30.005,9.082 29.139,8.733 28.07,8.384 26.833,8.034 25.464,7.685 24.004,7.336 22.499,6.987 20.994,6.637 19.535,6.288 18.165,5.939 16.928,5.59 15.859,5.24 14.993,4.891 14.354,4.542 13.963,4.193 13.831,3.843 13.963,3.494 14.354,3.145 14.993,2.796 15.859,2.446 16.928,2.097 18.165,1.748 19.535,1.399 20.994,1.049 22.499,0.7 20.994,1.049 19.535,1.399 18.165,1.748 16.928,2.097 15.859,2.446 14.993,2.796 14.354,3.145 13.963,3.494 13.831,3.843 13.963,4.193 14.354,4.542 14.993,4.891 15.859,5.24 16.928,5.59 18.165,5.939 19.535,6.288 20.994,6.637 22.499,6.987 24.004,7.336 25.464,7.685 26.833,8.034 28.07,8.384 29.139,8.733 30.005,9.082 30.644,9.431 31.035,9.781 31.167,10.13 31.035,10.479 30.644,10.828 30.005,11.178 29.139,11.527 28.07,11.876 26.833,12.225 25.464,12.575 24.004,12.924 22.499,13.273 20.994,13.622 19.535,13.972 18.165,14.321 16.928,14.67 15.859,15.019 14.993,15.369 14.354,15.718 13.963,16.067 13.831,16.416 13.963,16.766 14.354,17.115 14.993,17.464 15.859,17.813 16.928,18.163 18.165,18.512 19.535,18.861 20.994,19.21 22.499,19.56 24.004,19.909 25.464,20.258 26.833,20.607 28.07,20.957 29.139,21.306 30.005,21.655 30.644,22.004 31.035,22.354 31.167,22.703 31.035,23.052 30.644,23.401 30.005,23.751 29.139,24.1 28.07,24.449 26.833,24.798 25.464,25.148 24.004,25.497 22.499,25.846 20.994,26.195 19.535,26.545 18.165,26.894 16.928,27.243 15.859,27.592 14.993,27.942 14.354,28.291 13.963,28.64 13.831,28.989 13.963,29.339 14.354,29.688 14.993,30.037 15.859,30.386 16.928,30.736 18.165,31.085 19.535,31.434 20.994,31.783 22.499,32.133 24.004,32.482 25.464,32.831 26.833,33.18 28.07,33.53 29.139,33.879 30.005,34.228 30.644,34.577 31.035,34.927 31.167,35.276 31.035,35.625 30.644,35.974 30.005,36.324 29.139,36.673 28.07,37.022 26.833,37.371 25.464,37.721 24.004,38.07 22.499,38.419 20.994,38.768 19.535,39.118 18.165,39.467 16.928,39.816 15.859,40.165 14.993,40.515 14.354,40.864 13.963,41.213 13.831,41.562 13.963,41.912 14.354,42.261 14.993,42.61 15.859,42.959 16.928,43.309 18.165,43.658 19.535,44.007 20.994,44.356 22.499,44.706 24.004,45.055 25.464,45.404 26.833,45.753 28.07,46.103 29.139,46.452 30.005,46.801 30.644,47.15 31.035,47.5 31.167,47.849 31.035,48.198 30.644,48.547 30.005,48.897 29.139,49.246 28.07,49.595 26.833,49.944 25.464,50.294 24.004,50.643 22.499,50.992 20.994,51.341 19.535,51.691 18.165,52.04 16.928,52.389 15.859,52.738 14.993,53.088 14.354,53.437 13.963,53.786 13.831,54.135 13.963,54.485 14.354,54.834 14.993,55.183 15.859,55.532 16.928,55.882 18.165,56.231 19.535,56.58 20.994,56.929 22.499,57.279 24.004,57.628 25.464,57.977 26.833,58.326 28.07,58.676 29.139,59.025 30.005,59.374 30.644,59.723 31.035,60.073 31.167,60.422 31.035,60.771 30.644,61.12 30.005,61.47 29.139,61.819 28.07,62.168 26.833,62.518 25.464,62.867 24.004,63.216 22.499,63.565 20.994,63.915 19.535,64.264 18.165,64.613 16.928,64.962 15.859,65.312 14.993,65.661 14.354,66.01 13.963,66.359 13.831,66.709 13.963,67.058 14.354,67.407 14.993,67.756 15.859,68.106 16.928,68.455 18.165,68.804 19.535,69.153 20.994,69.503 22.499,69.852 24.004,70.201 25.464,70.55 26.833,70.9 28.07,71.249 29.139,71.598 30.005,71.947 30.644,72.297 31.035,72.646 31.167,72.995 31.035,73.344 30.644,73.694 30.005,74.043 29.139,74.392 28.07,74.741 26.833,75.091 25.464,75.44 24.004,75.789 22.499,76.138 20.994,76.488 19.535,76.837 18.165,77.186 16.928,77.535 15.859,77.885 14.993,78.234 14.354,78.583 13.963,78.932 13.831,79.282 13.963,79.631 14.354,79.98 14.993,80.329 15.859,80.679 16.928,81.028 18.165,81.377 19.535,81.726 20.994,82.076 22.499,82.425 24.004,82.774 25.464,83.123 26.833,83.473 28.07,83.822 29.139,84.171 30.005,84.52 30.644,84.87 31.035,85.219 31.167,85.568 31.035,85.917 30.644,86.267 30.005,86.616 29.139,86.965 28.07,87.314 26.833,87.664 25.464,88.013 24.004,88.362" fill="#d9d9d9" stroke="#000" stroke-width="0.5"/><rect x="0.7" y="89.669" width="43.598" height="0.7" fill="#000" stroke="none"/></g><g stroke="#000" stroke-width="0.25" stroke-dasharray="6 1 0.5 1"><line x1="22.499" y1="-2.3" x2="22.499" y2="93.019"/></g><g class="ports"><line x1="22.499" y1="90.019" x2="22.499" y2="88.711" stroke="#000" stroke-width="0.25"/><g><circle cx="22.499" cy="89.365" r="1.3" fill="#fff" stroke="#000" stroke-width="0.3"/><path d="M21.693 89.365Q22.096 88.39 22.499 89.365T23.305 89.365" fill="none" stroke="#000" stroke-width="0.3"/></g></g><g class="dimensions"><g stroke="#000" stroke-width="0.25" fill="none"><line x1="13.831" y1="80.082" x2="13.831" y2="99.219"/><line x1="31.167" y1="86.368" x2="31.167" y2="99.219"/><line x1="13.831" y1="97.719" x2="31.167" y2="97.719"/></g><g><polygon points="13.831,97.719 16.331,97.303 16.331,98.136" fill="#000" stroke="none"/><polygon points="31.167,97.719 28.667,98.136 28.667,97.303" fill="#000" stroke="none"/></g><g fill="#000" font-size="2.5" stroke="none"><text x="22.499" y="97.019" text-anchor="middle">39.76</text></g></g><g class="triad"><circle cx="6.34" cy="105.553" r="0.35" fill="#000" stroke="none"/><line x1="6.34" y1="105.553" x2="10.54" y2="105.553" stroke="#000" stroke-width="0.25"/><polygon points="10.54,105.553 9.07,105.798 9.07,105.308" fill="#000" stroke="none"/><text x="11.84" y="106.288" font-size="2.1" text-anchor="start" font-style="italic">y</text><line x1="6.34" y1="105.553" x2="6.34" y2="101.353" stroke="#000" stroke-width="0.25"/><polygon points="6.34,101.353 6.585,102.823 6.095,102.823" fill="#000" stroke="none"/><text x="6.34" y="100.788" font-size="2.1" text-anchor="middle" font-style="italic">z</text></g><text x="14.54" y="105.953" font-size="3" font-weight="600">(d) Right view (yz)</text></g></g><g font-size="2.1" fill="#000" class="notes"><text x="2" y="215.1" font-weight="600">NOTES</text><text x="2" y="218.04">1. All dimensions in mm.</text><text x="2" y="220.98">2. Metal parts are PEC; zero-thickness sheets are drawn with a minimum line width (solid black when seen edge-on).</text><text x="2" y="223.92">3. P1: lumped port, 120 Ω, along z, gap 3 mm, excited.</text></g></svg>
