<?xml version="1.0" encoding="UTF-8"?>
<svg xmlns="http://www.w3.org/2000/svg" version="1.1" width="420mm" height="297mm" viewBox="0 0 420 297" font-family="'IBM Plex Sans', Helvetica, Arial, sans-serif"><title>Inset-fed patch (FR4, 2.4 GHz) — technical drawing</title><desc>Inset-fed patch (FR4, 2.4 GHz) (inset-patch) · Fairbeam 0.1.0 · third-angle projection · scale 2:1 · A3</desc><rect x="0" y="0" width="420" height="297" fill="#fff" stroke="none"/><g class="frame"><rect x="20" y="10" width="390" height="277" fill="none" stroke="#000" stroke-width="0.7"/><g stroke="#000" stroke-width="0.7"><line x1="210" y1="0" x2="210" y2="15"/><line x1="210" y1="282" x2="210" y2="297"/><line x1="0" y1="148.5" x2="25" y2="148.5"/><line x1="405" y1="148.5" x2="420" y2="148.5"/></g><rect x="0.2" y="0.2" width="419.6" height="296.6" fill="none" stroke="#000" stroke-width="0.175" stroke-opacity="0.35"/></g><g transform="translate(91 14)"><g class="view view-top"><g><polygon points="1,125 111.8,125 111.8,1 1,1" fill="#fff" stroke="none"/></g><g fill="none" stroke="#000" stroke-width="0.5"><polygon points="1,125 111.8,125 111.8,1 1,1"/></g><g stroke-linejoin="round"><polygon points="47,101 87.8,101 87.8,25 47,25" fill="#d9d9d9" stroke="#000" stroke-width="0.7"/><polygon points="29,57.92 47,57.92 47,25 29,25" fill="#d9d9d9" stroke="#000" stroke-width="0.7"/><polygon points="29,101 47,101 47,68.08 29,68.08" fill="#d9d9d9" stroke="#000" stroke-width="0.7"/><polygon points="1,66.08 47,66.08 47,59.92 1,59.92" fill="#d9d9d9" stroke="#000" stroke-width="0.7"/></g><g stroke="#000" stroke-width="0.35" stroke-dasharray="8 1.3 0.6 1.3"><line x1="-2" y1="63" x2="114.8" y2="63"/></g><g class="ports"><line x1="1" y1="66.08" x2="1" y2="59.92" stroke="#000" stroke-width="0.35"/><g><circle cx="1" cy="63" r="1.6" fill="#fff" stroke="#000" stroke-width="0.42"/><path d="M0.008 63Q0.504 61.8 1 63T1.992 63" fill="none" stroke="#000" stroke-width="0.42"/></g></g><g class="dimensions"><g stroke="#000" stroke-width="0.35" fill="none"><line x1="29" y1="69.08" x2="29" y2="136.5"/><line x1="47" y1="69.08" x2="47" y2="136.5"/><line x1="29" y1="134.5" x2="47" y2="134.5"/><line x1="1" y1="67.08" x2="1" y2="143"/><line x1="29" y1="67.08" x2="29" y2="143"/><line x1="1" y1="141" x2="29" y2="141"/><line x1="29" y1="102" x2="29" y2="149.5"/><line x1="87.8" y1="102" x2="87.8" y2="149.5"/><line x1="29" y1="147.5" x2="87.8" y2="147.5"/><line x1="1" y1="67.08" x2="1" y2="156"/><line x1="87.8" y1="102" x2="87.8" y2="156"/><line x1="1" y1="154" x2="87.8" y2="154"/><line x1="1" y1="126" x2="1" y2="162.5"/><line x1="111.8" y1="126" x2="111.8" y2="162.5"/><line x1="1" y1="160.5" x2="111.8" y2="160.5"/><line x1="28" y1="66.08" x2="-10.5" y2="66.08"/><line x1="28" y1="68.08" x2="-10.5" y2="68.08"/><line x1="-8.5" y1="59.78" x2="-8.5" y2="72.58"/><line x1="0" y1="59.92" x2="-17" y2="59.92"/><line x1="0" y1="66.08" x2="-17" y2="66.08"/><line x1="-15" y1="49.204" x2="-15" y2="70.58"/><line x1="88.8" y1="25" x2="123.3" y2="25"/><line x1="88.8" y1="101" x2="123.3" y2="101"/><line x1="121.3" y1="25" x2="121.3" y2="101"/><line x1="112.8" y1="1" x2="129.8" y2="1"/><line x1="112.8" y1="125" x2="129.8" y2="125"/><line x1="127.8" y1="1" x2="127.8" y2="125"/></g><g><polygon points="29,134.5 32,134 32,135" fill="#000" stroke="none"/><polygon points="47,134.5 44,135 44,134" fill="#000" stroke="none"/><polygon points="1,141 4,140.5 4,141.5" fill="#000" stroke="none"/><polygon points="29,141 26,141.5 26,140.5" fill="#000" stroke="none"/><polygon points="29,147.5 32,147 32,148" fill="#000" stroke="none"/><polygon points="87.8,147.5 84.8,148 84.8,147" fill="#000" stroke="none"/><polygon points="1,154 4,153.5 4,154.5" fill="#000" stroke="none"/><polygon points="87.8,154 84.8,154.5 84.8,153.5" fill="#000" stroke="none"/><polygon points="1,160.5 4,160 4,161" fill="#000" stroke="none"/><polygon points="111.8,160.5 108.8,161 108.8,160" fill="#000" stroke="none"/><polygon points="-8.5,66.08 -9,63.08 -8,63.08" fill="#000" stroke="none"/><polygon points="-8.5,68.08 -8,71.08 -9,71.08" fill="#000" stroke="none"/><polygon points="-15,59.92 -15.5,56.92 -14.5,56.92" fill="#000" stroke="none"/><polygon points="-15,66.08 -14.5,69.08 -15.5,69.08" fill="#000" stroke="none"/><polygon points="121.3,25 121.8,28 120.8,28" fill="#000" stroke="none"/><polygon points="121.3,101 120.8,98 121.8,98" fill="#000" stroke="none"/><polygon points="127.8,1 128.3,4 127.3,4" fill="#000" stroke="none"/><polygon points="127.8,125 127.3,122 128.3,122" fill="#000" stroke="none"/></g><g fill="#000" font-size="3" stroke="none"><text x="38" y="133.8" text-anchor="middle">9</text><text x="15" y="140.3" text-anchor="middle">14</text><text x="58.4" y="146.8" text-anchor="middle">29.4</text><text x="44.4" y="153.3" text-anchor="middle">43.4</text><text x="56.4" y="159.8" text-anchor="middle">55.4</text><text x="-9.2" y="60.68" text-anchor="middle" transform="rotate(-90 -9.2 60.68)">1</text><text x="-15.7" y="52.312" text-anchor="middle" transform="rotate(-90 -15.7 52.312)">3.08</text><text x="120.6" y="63" text-anchor="middle" transform="rotate(-90 120.6 63)">38</text><text x="127.1" y="63" text-anchor="middle" transform="rotate(-90 127.1 63)">62</text></g></g><g class="triad"><circle cx="41.965" cy="168.5" r="0.35" fill="#000" stroke="none"/><line x1="41.965" y1="168.5" x2="46.165" y2="168.5" stroke="#000" stroke-width="0.35"/><polygon points="46.165,168.5 44.695,168.745 44.695,168.255" fill="#000" stroke="none"/><text x="47.465" y="169.375" font-size="2.5" text-anchor="start" font-style="italic">x</text><line x1="41.965" y1="168.5" x2="41.965" y2="164.3" stroke="#000" stroke-width="0.35"/><polygon points="41.965,164.3 42.21,165.77 41.72,165.77" fill="#000" stroke="none"/><text x="41.965" y="163.875" font-size="2.5" text-anchor="middle" font-style="italic">y</text></g><text x="50.165" y="168.9" font-size="3.5" font-weight="600">Top view (xy)</text></g></g><g transform="translate(251.593 123.665)"><g class="view view-iso"><polygon points="1,27.618 40.174,50.235 84.014,24.923 44.841,2.306" fill="#d9d9d9" stroke="#000" stroke-width="0.5" stroke-linejoin="round"/><polygon points="1,26.311 40.174,48.928 84.014,23.617 44.841,1" fill="#fff" stroke="#000" stroke-width="0.35" stroke-linejoin="round"/><polygon points="34.616,18.334 40.98,22.008 52.619,15.289 46.255,11.614" fill="#d9d9d9" stroke="#000" stroke-width="0.5" stroke-linejoin="round"/><polygon points="21.831,14.284 38.095,23.674 40.273,22.417 24.009,13.027" fill="#d9d9d9" stroke="#000" stroke-width="0.5" stroke-linejoin="round"/><polygon points="19.385,27.128 25.749,30.802 37.388,24.082 31.024,20.408" fill="#d9d9d9" stroke="#000" stroke-width="0.5" stroke-linejoin="round"/><polygon points="25.749,30.802 40.174,39.13 67.044,23.617 52.619,15.289" fill="#d9d9d9" stroke="#000" stroke-width="0.5" stroke-linejoin="round"/><polygon points="40.174,50.235 84.014,24.923 84.014,23.617 40.174,48.928" fill="#fff" stroke="#000" stroke-width="0.35" stroke-linejoin="round"/><polygon points="1,27.618 40.174,50.235 40.174,48.928 1,26.311" fill="#fff" stroke="#000" stroke-width="0.35" stroke-linejoin="round"/><line x1="21.831" y1="15.591" x2="24.009" y2="13.027" stroke="#000" stroke-width="0.35"/><g><circle cx="22.92" cy="14.309" r="1.36" fill="#fff" stroke="#000" stroke-width="0.42"/><path d="M22.077 14.309Q22.499 13.289 22.92 14.309T23.764 14.309" fill="none" stroke="#000" stroke-width="0.42"/></g><text x="25.32" y="15.184" font-size="2.5">P1</text><g class="triad"><circle cx="24.383" cy="58.035" r="0.35" fill="#000" stroke="none"/><line x1="24.383" y1="58.035" x2="27.328" y2="59.735" stroke="#000" stroke-width="0.35"/><polygon points="27.328,59.735 26.198,59.312 26.396,58.968" fill="#000" stroke="none"/><text x="28.453" y="61.26" font-size="2.5" text-anchor="start" font-style="italic">x</text><line x1="24.383" y1="58.035" x2="27.328" y2="56.335" stroke="#000" stroke-width="0.35"/><polygon points="27.328,56.335 26.396,57.102 26.198,56.758" fill="#000" stroke="none"/><text x="28.453" y="56.56" font-size="2.5" text-anchor="start" font-style="italic">y</text><line x1="24.383" y1="58.035" x2="24.383" y2="54.635" stroke="#000" stroke-width="0.35"/><polygon points="24.383,54.635 24.582,55.825 24.185,55.825" fill="#000" stroke="none"/><text x="24.383" y="54.21" font-size="2.5" text-anchor="middle" font-style="italic">z</text></g><text x="31.183" y="59.235" font-size="3.5" font-weight="600">Isometric view (1:1)</text></g></g><g transform="translate(91 203.016)"><g class="view view-front"><g><polygon points="1,4.2 111.8,4.2 111.8,1 1,1" fill="#fff" stroke="none"/></g><path d="M1 2.131L2.131 1M1.194 4.2L4.394 1M3.457 4.2L6.657 1M5.72 4.2L8.92 1M7.982 4.2L11.182 1M10.245 4.2L13.445 1M12.508 4.2L15.708 1M14.771 4.2L17.971 1M17.033 4.2L20.233 1M19.296 4.2L22.496 1M21.559 4.2L24.759 1M23.822 4.2L27.022 1M26.084 4.2L29.284 1M28.347 4.2L31.547 1M30.61 4.2L33.81 1M32.872 4.2L36.072 1M35.135 4.2L38.335 1M37.398 4.2L40.598 1M39.661 4.2L42.861 1M41.923 4.2L45.123 1M44.186 4.2L47.386 1M46.449 4.2L49.649 1M48.712 4.2L51.912 1M50.974 4.2L54.174 1M53.237 4.2L56.437 1M55.5 4.2L58.7 1M57.763 4.2L60.963 1M60.025 4.2L63.225 1M62.288 4.2L65.488 1M64.551 4.2L67.751 1M66.814 4.2L70.014 1M69.076 4.2L72.276 1M71.339 4.2L74.539 1M73.602 4.2L76.802 1M75.865 4.2L79.065 1M78.127 4.2L81.327 1M80.39 4.2L83.59 1M82.653 4.2L85.853 1M84.916 4.2L88.116 1M87.178 4.2L90.378 1M89.441 4.2L92.641 1M91.704 4.2L94.904 1M93.967 4.2L97.167 1M96.229 4.2L99.429 1M98.492 4.2L101.692 1M100.755 4.2L103.955 1M103.017 4.2L106.217 1M105.28 4.2L108.48 1M107.543 4.2L110.743 1M109.806 4.2L111.8 2.206" fill="none" stroke="#000" stroke-width="0.25"/><g fill="none" stroke="#000" stroke-width="0.5"><polygon points="1,4.2 111.8,4.2 111.8,1 1,1"/></g><g stroke-linejoin="round"><rect x="29" y="0" width="18" height="1" fill="#000" stroke="none"/><rect x="1" y="0" width="46" height="1" fill="#000" stroke="none"/><rect x="47" y="0" width="40.8" height="1" fill="#000" stroke="none"/><rect x="29" y="0" width="18" height="1" fill="#000" stroke="none"/><rect x="1" y="4.2" width="110.8" height="1" fill="#000" stroke="none"/></g><g class="ports"><line x1="1" y1="4.2" x2="1" y2="1" stroke="#000" stroke-width="0.35"/><g><circle cx="1" cy="2.6" r="1.6" fill="#fff" stroke="#000" stroke-width="0.42"/><path d="M0.008 2.6Q0.504 1.4 1 2.6T1.992 2.6" fill="none" stroke="#000" stroke-width="0.42"/></g><g><polyline points="2.131,1.469 5.667,-2.067 16.152,-2.067" fill="none" stroke="#000" stroke-width="0.35"/><rect x="5.667" y="-4.442" width="10.485" height="2.175" fill="#fff" stroke="none" fill-opacity="0.85"/><text x="6.267" y="-2.667" font-size="2.5" text-anchor="start">P1 50 Ω</text></g></g><g class="dimensions"><g stroke="#000" stroke-width="0.35" fill="none"><line x1="112.8" y1="1" x2="123.3" y2="1"/><line x1="112.8" y1="4.2" x2="123.3" y2="4.2"/><line x1="121.3" y1="-7.916" x2="121.3" y2="8.7"/></g><g><polygon points="121.3,1 120.8,-2 121.8,-2" fill="#000" stroke="none"/><polygon points="121.3,4.2 121.8,7.2 120.8,7.2" fill="#000" stroke="none"/></g><g fill="#000" font-size="3" stroke="none"><text x="120.6" y="-5.708" text-anchor="middle" transform="rotate(-90 120.6 -5.708)">1.6</text></g></g><g class="triad"><circle cx="40.688" cy="14.6" r="0.35" fill="#000" stroke="none"/><line x1="40.688" y1="14.6" x2="44.888" y2="14.6" stroke="#000" stroke-width="0.35"/><polygon points="44.888,14.6 43.418,14.845 43.418,14.355" fill="#000" stroke="none"/><text x="46.188" y="15.475" font-size="2.5" text-anchor="start" font-style="italic">x</text><line x1="40.688" y1="14.6" x2="40.688" y2="10.4" stroke="#000" stroke-width="0.35"/><polygon points="40.688,10.4 40.933,11.87 40.443,11.87" fill="#000" stroke="none"/><text x="40.688" y="9.975" font-size="2.5" text-anchor="middle" font-style="italic">z</text></g><text x="48.888" y="15" font-size="3.5" font-weight="600">Front view (xz)</text></g></g><g transform="translate(231.1 203.016)"><g class="view view-side"><g><polygon points="1,4.2 125,4.2 125,1 1,1" fill="#fff" stroke="none"/></g><path d="M1 2.131L2.131 1M1.194 4.2L4.394 1M3.457 4.2L6.657 1M5.72 4.2L8.92 1M7.982 4.2L11.182 1M10.245 4.2L13.445 1M12.508 4.2L15.708 1M14.771 4.2L17.971 1M17.033 4.2L20.233 1M19.296 4.2L22.496 1M21.559 4.2L24.759 1M23.822 4.2L27.022 1M26.084 4.2L29.284 1M28.347 4.2L31.547 1M30.61 4.2L33.81 1M32.872 4.2L36.072 1M35.135 4.2L38.335 1M37.398 4.2L40.598 1M39.661 4.2L42.861 1M41.923 4.2L45.123 1M44.186 4.2L47.386 1M46.449 4.2L49.649 1M48.712 4.2L51.912 1M50.974 4.2L54.174 1M53.237 4.2L56.437 1M55.5 4.2L58.7 1M57.763 4.2L60.963 1M60.025 4.2L63.225 1M62.288 4.2L65.488 1M64.551 4.2L67.751 1M66.814 4.2L70.014 1M69.076 4.2L72.276 1M71.339 4.2L74.539 1M73.602 4.2L76.802 1M75.865 4.2L79.065 1M78.127 4.2L81.327 1M80.39 4.2L83.59 1M82.653 4.2L85.853 1M84.916 4.2L88.116 1M87.178 4.2L90.378 1M89.441 4.2L92.641 1M91.704 4.2L94.904 1M93.967 4.2L97.167 1M96.229 4.2L99.429 1M98.492 4.2L101.692 1M100.755 4.2L103.955 1M103.017 4.2L106.217 1M105.28 4.2L108.48 1M107.543 4.2L110.743 1M109.806 4.2L113.006 1M112.068 4.2L115.268 1M114.331 4.2L117.531 1M116.594 4.2L119.794 1M118.857 4.2L122.057 1M121.119 4.2L124.319 1M123.382 4.2L125 2.582" fill="none" stroke="#000" stroke-width="0.25"/><g fill="none" stroke="#000" stroke-width="0.5"><polygon points="1,4.2 125,4.2 125,1 1,1"/></g><g stroke-linejoin="round"><rect x="68.08" y="0" width="32.92" height="1" fill="#000" stroke="none"/><rect x="25" y="0" width="32.92" height="1" fill="#000" stroke="none"/><rect x="59.92" y="0" width="6.16" height="1" fill="#000" stroke="none"/><rect x="25" y="0" width="76" height="1" fill="#000" stroke="none"/><rect x="1" y="4.2" width="124" height="1" fill="#000" stroke="none"/></g><g stroke="#000" stroke-width="0.35" stroke-dasharray="8 1.3 0.6 1.3"><line x1="63" y1="-2" x2="63" y2="7.2"/></g><g class="ports"><line x1="59.92" y1="4.2" x2="66.08" y2="1" stroke="#000" stroke-width="0.35"/><g><circle cx="63" cy="2.6" r="1.6" fill="#fff" stroke="#000" stroke-width="0.42"/><path d="M62.008 2.6Q62.504 1.4 63 2.6T63.992 2.6" fill="none" stroke="#000" stroke-width="0.42"/></g></g><g class="triad"><circle cx="47.407" cy="11.4" r="0.35" fill="#000" stroke="none"/><line x1="47.407" y1="11.4" x2="51.607" y2="11.4" stroke="#000" stroke-width="0.35"/><polygon points="51.607,11.4 50.137,11.645 50.137,11.155" fill="#000" stroke="none"/><text x="52.907" y="12.275" font-size="2.5" text-anchor="start" font-style="italic">y</text><line x1="47.407" y1="11.4" x2="47.407" y2="7.2" stroke="#000" stroke-width="0.35"/><polygon points="47.407,7.2 47.652,8.67 47.162,8.67" fill="#000" stroke="none"/><text x="47.407" y="6.775" font-size="2.5" text-anchor="middle" font-style="italic">z</text></g><text x="55.607" y="11.8" font-size="3.5" font-weight="600">Right view (yz)</text></g></g><g font-size="2.7" fill="#000" class="notes"><text x="24" y="265.8" font-weight="600">NOTES</text><text x="24" y="269.58">1. All dimensions in mm.</text><text x="24" y="273.36">2. Ground plane = FR4 substrate outline (55.4 × 62).</text><text x="24" y="277.14">3. Metal parts are PEC; zero-thickness sheets are drawn with a minimum line width (solid black when seen edge-on).</text><text x="24" y="280.92">4. P1: lumped port, 50 Ω, along z, gap 3.08 mm, excited.</text></g><g class="title-block"><rect x="230" y="220.46" width="180" height="66.54" fill="#fff" stroke="#000" stroke-width="0.7"/><line x1="314" y1="220.46" x2="314" y2="258.8" stroke="#000" stroke-width="0.7"/><line x1="230" y1="258.8" x2="410" y2="258.8" stroke="#000" stroke-width="0.7"/><line x1="370" y1="258.8" x2="370" y2="269.6" stroke="#000" stroke-width="0.35"/><line x1="230" y1="269.6" x2="410" y2="269.6" stroke="#000" stroke-width="0.35"/><line x1="282" y1="269.6" x2="282" y2="278.3" stroke="#000" stroke-width="0.35"/><line x1="306" y1="269.6" x2="306" y2="278.3" stroke="#000" stroke-width="0.35"/><line x1="324" y1="269.6" x2="324" y2="278.3" stroke="#000" stroke-width="0.35"/><g><polygon points="365.908,272.21 370.693,273.298 370.693,275.473 365.908,276.56" fill="none" stroke="#000" stroke-width="0.35"/><circle cx="374.825" cy="274.385" r="2.175" fill="none" stroke="#000" stroke-width="0.35"/><circle cx="374.825" cy="274.385" r="1.088" fill="none" stroke="#000" stroke-width="0.35"/><line x1="364.908" y1="274.385" x2="378" y2="274.385" stroke="#000" stroke-width="0.175" stroke-dasharray="3 0.6 0.4 0.6"/></g><line x1="380" y1="269.6" x2="380" y2="278.3" stroke="#000" stroke-width="0.35"/><line x1="230" y1="278.3" x2="410" y2="278.3" stroke="#000" stroke-width="0.35"/><line x1="260" y1="278.3" x2="260" y2="287" stroke="#000" stroke-width="0.35"/><line x1="302" y1="278.3" x2="302" y2="287" stroke="#000" stroke-width="0.35"/><line x1="380" y1="278.3" x2="380" y2="287" stroke="#000" stroke-width="0.35"/><g stroke="#000" stroke-width="0.35"><line x1="230" y1="224.72" x2="410" y2="224.72" stroke-opacity="1"/><line x1="230" y1="228.98" x2="410" y2="228.98" stroke-opacity="0.35"/><line x1="230" y1="233.24" x2="410" y2="233.24" stroke-opacity="0.35"/><line x1="230" y1="237.5" x2="410" y2="237.5" stroke-opacity="0.35"/><line x1="230" y1="241.76" x2="410" y2="241.76" stroke-opacity="0.35"/><line x1="230" y1="246.02" x2="410" y2="246.02" stroke-opacity="0.35"/><line x1="230" y1="250.28" x2="410" y2="250.28" stroke-opacity="0.35"/><line x1="230" y1="254.54" x2="410" y2="254.54" stroke-opacity="0.35"/><line x1="270" y1="220.46" x2="270" y2="258.8"/><line x1="292" y1="220.46" x2="292" y2="258.8"/><line x1="344" y1="220.46" x2="344" y2="258.8"/><line x1="374" y1="220.46" x2="374" y2="258.8"/><line x1="388" y1="220.46" x2="388" y2="258.8"/></g><g fill="#000"><text x="231.2" y="223.612" font-weight="600" font-size="2.28">Geometry parameter</text><text x="231.2" y="227.872" font-size="2.28">Patch length (resonant, x)</text><text x="231.2" y="232.132" font-size="2.28">Patch width (y)</text><text x="231.2" y="236.392" font-size="2.28">Inset depth</text><text x="231.2" y="240.652" font-size="2.28">Inset slot width</text><text x="231.2" y="244.912" font-size="2.28">Feed line width</text><text x="231.2" y="249.172" font-size="2.28">Feed line length outside the patch</text><text x="231.2" y="253.432" font-size="2.28">Ground/substrate margin around t…</text><text x="231.2" y="257.692" font-size="2.28">Substrate thickness</text><text x="271.2" y="223.612" font-weight="600" font-size="2.28">Key</text><text x="271.2" y="227.872" font-size="2.28">patch_l</text><text x="271.2" y="232.132" font-size="2.28">patch_w</text><text x="271.2" y="236.392" font-size="2.28">inset</text><text x="271.2" y="240.652" font-size="2.28">gap</text><text x="271.2" y="244.912" font-size="2.28">feed_w</text><text x="271.2" y="249.172" font-size="2.28">feed_len</text><text x="271.2" y="253.432" font-size="2.28">margin</text><text x="271.2" y="257.692" font-size="2.28">sub_h</text><text x="293.2" y="223.612" font-weight="600" font-size="2.28">Value</text><text x="312.8" y="227.872" text-anchor="end" font-size="2.28">29.4 mm</text><text x="312.8" y="232.132" text-anchor="end" font-size="2.28">38 mm</text><text x="312.8" y="236.392" text-anchor="end" font-size="2.28">9 mm</text><text x="312.8" y="240.652" text-anchor="end" font-size="2.28">1 mm</text><text x="312.8" y="244.912" text-anchor="end" font-size="2.28">3.08 mm</text><text x="312.8" y="249.172" text-anchor="end" font-size="2.28">14 mm</text><text x="312.8" y="253.432" text-anchor="end" font-size="2.28">12 mm</text><text x="312.8" y="257.692" text-anchor="end" font-size="2.28">1.6 mm</text><text x="315.2" y="223.612" font-weight="600" font-size="2.28">Part</text><text x="315.2" y="227.872" font-size="2.28">FR4 substrate</text><text x="315.2" y="232.132" font-size="2.28">Ground plane</text><text x="315.2" y="236.392" font-size="2.28">Patch + feed line</text><text x="345.2" y="223.612" font-weight="600" font-size="2.28">Material</text><text x="345.2" y="227.872" font-size="2.28">Dielectric</text><text x="345.2" y="232.132" font-size="2.28">PEC</text><text x="345.2" y="236.392" font-size="2.28">PEC</text><text x="375.2" y="223.612" font-weight="600" font-size="2.28">εr</text><text x="386.8" y="227.872" text-anchor="end" font-size="2.28">4.4</text><text x="386.8" y="232.132" text-anchor="end" font-size="2.28">—</text><text x="386.8" y="236.392" text-anchor="end" font-size="2.28">—</text><text x="389.2" y="223.612" font-weight="600" font-size="2.28">tan δ</text><text x="389.2" y="227.872" font-size="2.28">0.02 @ 2.4 GHz</text><text x="389.2" y="232.132" font-size="2.28">—</text><text x="389.2" y="236.392" font-size="2.28">—</text><text x="231.2" y="261.64" font-size="2.04" fill="#444">Title</text><text x="231.2" y="268" font-size="4.2" font-weight="600">Inset-fed patch (FR4, 2.4 GHz)</text><text x="371.2" y="261.64" font-size="2.04" fill="#444">Sheet</text><text x="371.2" y="268.5" font-size="3">1 / 1</text><text x="231.2" y="272.44" font-size="2.04" fill="#444">Model</text><text x="231.2" y="277.2" font-size="3">inset-patch</text><text x="283.2" y="272.44" font-size="2.04" fill="#444">Scale</text><text x="283.2" y="277.2" font-size="3">2:1</text><text x="307.2" y="272.44" font-size="2.04" fill="#444">Units</text><text x="307.2" y="277.2" font-size="3">mm</text><text x="325.2" y="272.44" font-size="2.04" fill="#444">Projection: third angle</text><text x="381.2" y="272.44" font-size="2.04" fill="#444">Size</text><text x="381.2" y="277.2" font-size="3">A3</text><text x="231.2" y="281.14" font-size="2.04" fill="#444">Date</text><text x="231.2" y="285.9" font-size="3">2026-09-24</text><text x="261.2" y="281.14" font-size="2.04" fill="#444">Generator</text><text x="261.2" y="285.9" font-size="3">Fairbeam 0.1.0</text><text x="303.2" y="281.14" font-size="2.04" fill="#444">Solver</text><text x="303.2" y="285.9" font-size="3">openEMS 0.37.0rc3 · FDTD</text><text x="381.2" y="281.14" font-size="2.04" fill="#444">Drawing no.</text><text x="381.2" y="285.9" font-size="3">INSET-PATCH-01</text></g></g></svg>
