<?xml version="1.0" encoding="UTF-8"?>
<svg xmlns="http://www.w3.org/2000/svg" version="1.1" width="88mm" height="62mm" viewBox="0 0 88 62" font-family="'IBM Plex Sans', Helvetica, Arial, sans-serif"><title>Stepped-impedance low-pass filter — input impedance</title><rect x="0" y="0" width="88" height="62" fill="#fff" stroke="none"/><g><g stroke="#b3b3b3" stroke-width="0.12"><line x1="24.224" y1="2.75" x2="24.224" y2="52.7"/><line x1="36.379" y1="2.75" x2="36.379" y2="52.7"/><line x1="48.534" y1="2.75" x2="48.534" y2="52.7"/><line x1="60.69" y1="2.75" x2="60.69" y2="52.7"/><line x1="72.845" y1="2.75" x2="72.845" y2="52.7"/><line x1="85" y1="2.75" x2="85" y2="52.7"/><line x1="14.5" y1="52.7" x2="85" y2="52.7"/><line x1="14.5" y1="44.375" x2="85" y2="44.375"/><line x1="14.5" y1="36.05" x2="85" y2="36.05"/><line x1="14.5" y1="27.725" x2="85" y2="27.725"/><line x1="14.5" y1="19.4" x2="85" y2="19.4"/><line x1="14.5" y1="11.075" x2="85" y2="11.075"/><line x1="14.5" y1="2.75" x2="85" y2="2.75"/></g><line x1="14.5" y1="35.842" x2="85" y2="35.842" stroke="#000" stroke-width="0.25" stroke-dasharray="0.5 0.8"/><text x="15.5" y="35.042" font-size="2.5">50 Ω</text><line x1="14.5" y1="36.05" x2="85" y2="36.05" stroke="#000" stroke-width="0.25" stroke-dasharray="none"/><polyline points="14.5,35.875 14.588,35.877 14.676,35.878 14.764,35.88 14.853,35.881 14.941,35.883 15.029,35.884 15.117,35.886 15.205,35.888 15.293,35.889 15.381,35.891 15.469,35.892 15.558,35.894 15.646,35.895 15.734,35.896 15.822,35.898 15.91,35.899 15.998,35.901 16.086,35.902 16.174,35.903 16.263,35.905 16.351,35.906 16.439,35.907 16.527,35.908 16.615,35.909 16.703,35.911 16.791,35.912 16.879,35.913 16.968,35.914 17.056,35.915 17.144,35.916 17.232,35.916 17.32,35.917 17.408,35.918 17.496,35.919 17.584,35.919 17.673,35.92 17.761,35.921 17.849,35.921 17.937,35.922 18.025,35.922 18.113,35.923 18.201,35.923 18.289,35.924 18.378,35.924 18.466,35.925 18.554,35.925 18.642,35.925 18.73,35.925 18.818,35.926 18.906,35.926 18.994,35.926 19.083,35.926 19.171,35.926 19.259,35.926 19.347,35.926 19.435,35.926 19.523,35.926 19.611,35.926 19.699,35.926 19.788,35.925 19.876,35.925 19.964,35.925 20.052,35.925 20.14,35.924 20.228,35.924 20.316,35.923 20.404,35.923 20.493,35.922 20.581,35.922 20.669,35.921 20.757,35.921 20.845,35.92 20.933,35.919 21.021,35.918 21.109,35.918 21.197,35.917 21.286,35.916 21.374,35.915 21.462,35.914 21.55,35.913 21.638,35.912 21.726,35.911 21.814,35.91 21.903,35.908 21.991,35.907 22.079,35.906 22.167,35.905 22.255,35.903 22.343,35.902 22.431,35.901 22.519,35.899 22.608,35.898 22.696,35.896 22.784,35.895 22.872,35.893 22.96,35.892 23.048,35.89 23.136,35.888 23.224,35.887 23.313,35.885 23.401,35.883 23.489,35.881 23.577,35.88 23.665,35.878 23.753,35.876 23.841,35.874 23.929,35.872 24.018,35.871 24.106,35.869 24.194,35.867 24.282,35.865 24.37,35.864 24.458,35.862 24.546,35.86 24.634,35.859 24.723,35.857 24.811,35.856 24.899,35.854 24.987,35.853 25.075,35.851 25.163,35.85 25.251,35.849 25.339,35.848 25.428,35.847 25.516,35.846 25.604,35.845 25.692,35.845 25.78,35.844 25.868,35.844 25.956,35.843 26.044,35.843 26.133,35.843 26.221,35.843 26.309,35.843 26.397,35.844 26.485,35.844 26.573,35.845 26.661,35.845 26.749,35.846 26.838,35.847 26.926,35.848 27.014,35.849 27.102,35.85 27.19,35.852 27.278,35.853 27.366,35.854 27.454,35.856 27.543,35.858 27.631,35.859 27.719,35.861 27.807,35.863 27.895,35.865 27.983,35.866 28.071,35.868 28.159,35.87 28.248,35.872 28.336,35.874 28.424,35.876 28.512,35.878 28.6,35.88 28.688,35.882 28.776,35.884 28.864,35.886 28.953,35.888 29.041,35.89 29.129,35.892 29.217,35.894 29.305,35.896 29.393,35.898 29.481,35.899 29.569,35.901 29.658,35.903 29.746,35.904 29.834,35.906 29.922,35.908 30.01,35.909 30.098,35.911 30.186,35.912 30.274,35.913 30.363,35.915 30.451,35.916 30.539,35.917 30.627,35.918 30.715,35.919 30.803,35.92 30.891,35.921 30.979,35.922 31.068,35.923 31.156,35.924 31.244,35.925 31.332,35.926 31.42,35.926 31.508,35.927 31.596,35.927 31.684,35.928 31.773,35.928 31.861,35.929 31.949,35.929 32.037,35.929 32.125,35.93 32.213,35.93 32.301,35.93 32.389,35.93 32.478,35.93 32.566,35.93 32.654,35.93 32.742,35.929 32.83,35.929 32.918,35.929 33.006,35.928 33.094,35.928 33.183,35.927 33.271,35.927 33.359,35.926 33.447,35.925 33.535,35.924 33.623,35.923 33.711,35.922 33.799,35.921 33.888,35.92 33.976,35.919 34.064,35.917 34.152,35.916 34.24,35.914 34.328,35.913 34.416,35.911 34.504,35.909 34.593,35.907 34.681,35.905 34.769,35.903 34.857,35.901 34.945,35.898 35.033,35.896 35.121,35.893 35.209,35.89 35.298,35.888 35.386,35.885 35.474,35.882 35.562,35.879 35.65,35.876 35.738,35.873 35.826,35.869 35.914,35.866 36.003,35.863 36.091,35.86 36.179,35.857 36.267,35.854 36.355,35.851 36.443,35.848 36.531,35.845 36.619,35.843 36.708,35.841 36.796,35.839 36.884,35.838 36.972,35.837 37.06,35.837 37.148,35.837 37.236,35.838 37.324,35.84 37.413,35.842 37.501,35.844 37.589,35.847 37.677,35.851 37.765,35.855 37.853,35.86 37.941,35.865 38.029,35.871 38.117,35.877 38.206,35.883 38.294,35.889 38.382,35.895 38.47,35.902 38.558,35.908 38.646,35.915 38.734,35.921 38.823,35.927 38.911,35.933 38.999,35.939 39.087,35.944 39.175,35.95 39.263,35.955 39.351,35.96 39.439,35.965 39.528,35.969 39.616,35.973 39.704,35.977 39.792,35.981 39.88,35.985 39.968,35.988 40.056,35.991 40.144,35.994 40.233,35.997 40.321,36 40.409,36.003 40.497,36.005 40.585,36.007 40.673,36.009 40.761,36.011 40.849,36.013 40.938,36.015 41.026,36.017 41.114,36.018 41.202,36.02 41.29,36.021 41.378,36.022 41.466,36.024 41.554,36.025 41.643,36.026 41.731,36.027 41.819,36.028 41.907,36.029 41.995,36.03 42.083,36.031 42.171,36.031 42.259,36.032 42.348,36.033 42.436,36.033 42.524,36.034 42.612,36.035 42.7,36.035 42.788,36.036 42.876,36.036 42.964,36.037 43.052,36.037 43.141,36.038 43.229,36.038 43.317,36.039 43.405,36.039 43.493,36.039 43.581,36.04 43.669,36.04 43.758,36.04 43.846,36.041 43.934,36.041 44.022,36.041 44.11,36.042 44.198,36.042 44.286,36.042 44.374,36.042 44.463,36.042 44.551,36.043 44.639,36.043 44.727,36.043 44.815,36.043 44.903,36.043 44.991,36.044 45.079,36.044 45.168,36.044 45.256,36.044 45.344,36.044 45.432,36.044 45.52,36.045 45.608,36.045 45.696,36.045 45.784,36.045 45.873,36.045 45.961,36.045 46.049,36.045 46.137,36.045 46.225,36.045 46.313,36.046 46.401,36.046 46.489,36.046 46.578,36.046 46.666,36.046 46.754,36.046 46.842,36.046 46.93,36.046 47.018,36.046 47.106,36.046 47.194,36.046 47.283,36.046 47.371,36.046 47.459,36.046 47.547,36.047 47.635,36.047 47.723,36.047 47.811,36.047 47.899,36.047 47.988,36.047 48.076,36.047 48.164,36.047 48.252,36.047 48.34,36.047 48.428,36.047 48.516,36.047 48.604,36.047 48.693,36.047 48.781,36.047 48.869,36.047 48.957,36.047 49.045,36.047 49.133,36.047 49.221,36.047 49.309,36.047 49.398,36.047 49.486,36.047 49.574,36.047 49.662,36.047 49.75,36.047 49.838,36.047 49.926,36.047 50.014,36.047 50.103,36.048 50.191,36.048 50.279,36.048 50.367,36.048 50.455,36.048 50.543,36.048 50.631,36.048 50.719,36.048 50.807,36.048 50.896,36.048 50.984,36.048 51.072,36.048 51.16,36.048 51.248,36.048 51.336,36.048 51.424,36.048 51.513,36.048 51.601,36.048 51.689,36.048 51.777,36.048 51.865,36.048 51.953,36.048 52.041,36.048 52.129,36.048 52.217,36.048 52.306,36.048 52.394,36.048 52.482,36.048 52.57,36.048 52.658,36.048 52.746,36.048 52.834,36.048 52.923,36.048 53.011,36.048 53.099,36.048 53.187,36.048 53.275,36.048 53.363,36.048 53.451,36.048 53.539,36.048 53.628,36.048 53.716,36.048 53.804,36.048 53.892,36.048 53.98,36.048 54.068,36.048 54.156,36.048 54.244,36.048 54.332,36.048 54.421,36.048 54.509,36.048 54.597,36.047 54.685,36.047 54.773,36.047 54.861,36.047 54.949,36.047 55.038,36.047 55.126,36.047 55.214,36.047 55.302,36.047 55.39,36.047 55.478,36.047 55.566,36.047 55.654,36.047 55.743,36.047 55.831,36.047 55.919,36.047 56.007,36.047 56.095,36.047 56.183,36.047 56.271,36.047 56.359,36.047 56.448,36.047 56.536,36.047 56.624,36.047 56.712,36.047 56.8,36.047 56.888,36.047 56.976,36.047 57.064,36.047 57.152,36.047 57.241,36.047 57.329,36.047 57.417,36.047 57.505,36.047 57.593,36.046 57.681,36.046 57.769,36.046 57.858,36.046 57.946,36.046 58.034,36.046 58.122,36.046 58.21,36.046 58.298,36.046 58.386,36.046 58.474,36.046 58.563,36.046 58.651,36.046 58.739,36.046 58.827,36.046 58.915,36.046 59.003,36.045 59.091,36.045 59.179,36.045 59.268,36.045 59.356,36.045 59.444,36.045 59.532,36.045 59.62,36.045 59.708,36.045 59.796,36.045 59.884,36.045 59.973,36.044 60.061,36.044 60.149,36.044 60.237,36.044 60.325,36.044 60.413,36.044 60.501,36.044 60.589,36.044 60.678,36.043 60.766,36.043 60.854,36.043 60.942,36.043 61.03,36.043 61.118,36.043 61.206,36.042 61.294,36.042 61.383,36.042 61.471,36.042 61.559,36.042 61.647,36.041 61.735,36.041 61.823,36.041 61.911,36.041 61.999,36.04 62.088,36.04 62.176,36.04 62.264,36.04 62.352,36.039 62.44,36.039 62.528,36.039 62.616,36.038 62.704,36.038 62.793,36.038 62.881,36.037 62.969,36.037 63.057,36.037 63.145,36.036 63.233,36.036 63.321,36.035 63.409,36.035 63.497,36.034 63.586,36.034 63.674,36.033 63.762,36.033 63.85,36.032 63.938,36.031 64.026,36.031 64.114,36.03 64.203,36.03 64.291,36.029 64.379,36.028 64.467,36.027 64.555,36.026 64.643,36.026 64.731,36.025 64.819,36.024 64.908,36.023 64.996,36.022 65.084,36.02 65.172,36.019 65.26,36.018 65.348,36.017 65.436,36.015 65.524,36.014 65.613,36.012 65.701,36.01 65.789,36.009 65.877,36.007 65.965,36.004 66.053,36.002 66.141,36 66.229,35.997 66.318,35.995 66.406,35.992 66.494,35.988 66.582,35.985 66.67,35.981 66.758,35.977 66.846,35.973 66.934,35.968 67.023,35.963 67.111,35.958 67.199,35.951 67.287,35.945 67.375,35.937 67.463,35.929 67.551,35.92 67.639,35.909 67.727,35.898 67.816,35.885 67.904,35.87 67.992,35.853 68.08,35.834 68.168,35.812 68.256,35.786 68.344,35.756 68.432,35.72 68.521,35.678 68.609,35.626 68.697,35.564 68.785,35.486 68.873,35.389 68.961,35.264 69.049,35.102 69.138,34.885 69.226,34.587 69.314,34.162 69.402,33.532 69.49,32.547 69.578,30.91 69.666,28.005 69.754,22.628 69.843,13.822 69.931,7.975 70.019,14.44 70.107,23.039 70.195,28.195 70.283,30.988 70.371,32.574 70.459,33.535 70.547,34.154 70.636,34.573 70.724,34.869 70.812,35.085 70.9,35.248 70.988,35.372 71.076,35.471 71.164,35.549 71.253,35.612 71.341,35.665 71.429,35.708 71.517,35.744 71.605,35.775 71.693,35.802 71.781,35.824 71.869,35.844 71.958,35.861 72.046,35.876 72.134,35.889 72.222,35.901 72.31,35.911 72.398,35.92 72.486,35.929 72.574,35.936 72.663,35.943 72.751,35.949 72.839,35.955 72.927,35.96 73.015,35.965 73.103,35.969 73.191,35.974 73.279,35.977 73.368,35.981 73.456,35.984 73.544,35.987 73.632,35.99 73.72,35.993 73.808,35.995 73.896,35.998 73.984,36 74.072,36.002 74.161,36.004 74.249,36.006 74.337,36.008 74.425,36.009 74.513,36.011 74.601,36.012 74.689,36.014 74.778,36.015 74.866,36.016 74.954,36.017 75.042,36.019 75.13,36.02 75.218,36.02 75.306,36.021 75.394,36.022 75.482,36.023 75.571,36.024 75.659,36.024 75.747,36.025 75.835,36.026 75.923,36.026 76.011,36.027 76.099,36.027 76.188,36.028 76.276,36.028 76.364,36.029 76.452,36.029 76.54,36.03 76.628,36.03 76.716,36.031 76.804,36.031 76.893,36.032 76.981,36.032 77.069,36.033 77.157,36.033 77.245,36.034 77.333,36.034 77.421,36.034 77.509,36.035 77.598,36.035 77.686,36.036 77.774,36.036 77.862,36.036 77.95,36.036 78.038,36.037 78.126,36.037 78.214,36.037 78.303,36.038 78.391,36.038 78.479,36.038 78.567,36.038 78.655,36.038 78.743,36.039 78.831,36.039 78.919,36.039 79.008,36.039 79.096,36.039 79.184,36.039 79.272,36.039 79.36,36.04 79.448,36.04 79.536,36.04 79.624,36.04 79.713,36.04 79.801,36.04 79.889,36.04 79.977,36.041 80.065,36.041 80.153,36.041 80.241,36.041 80.329,36.041 80.418,36.041 80.506,36.041 80.594,36.042 80.682,36.042 80.77,36.042 80.858,36.042 80.946,36.042 81.034,36.042 81.123,36.043 81.211,36.043 81.299,36.043 81.387,36.043 81.475,36.043 81.563,36.043 81.651,36.043 81.739,36.043 81.828,36.043 81.916,36.043 82.004,36.043 82.092,36.043 82.18,36.043 82.268,36.043 82.356,36.043 82.444,36.044 82.533,36.044 82.621,36.044 82.709,36.044 82.797,36.044 82.885,36.044 82.973,36.044 83.061,36.044 83.149,36.044 83.238,36.044 83.326,36.044 83.414,36.044 83.502,36.044 83.59,36.044 83.678,36.044 83.766,36.044 83.854,36.044 83.943,36.045 84.031,36.045 84.119,36.045 84.207,36.045 84.295,36.045 84.383,36.045 84.471,36.045 84.559,36.045 84.648,36.045 84.736,36.045 84.824,36.045 84.912,36.045 85,36.045" fill="none" stroke="#000" stroke-width="0.35" stroke-linejoin="round"/><g><circle cx="16.086" cy="35.902" r="0.65" fill="#fff" stroke="#000" stroke-width="0.25"/><circle cx="22.519" cy="35.899" r="0.65" fill="#fff" stroke="#000" stroke-width="0.25"/><circle cx="28.953" cy="35.888" r="0.65" fill="#fff" stroke="#000" stroke-width="0.25"/><circle cx="35.386" cy="35.885" r="0.65" fill="#fff" stroke="#000" stroke-width="0.25"/><circle cx="41.819" cy="36.028" r="0.65" fill="#fff" stroke="#000" stroke-width="0.25"/><circle cx="48.252" cy="36.047" r="0.65" fill="#fff" stroke="#000" stroke-width="0.25"/><circle cx="54.685" cy="36.047" r="0.65" fill="#fff" stroke="#000" stroke-width="0.25"/><circle cx="61.118" cy="36.043" r="0.65" fill="#fff" stroke="#000" stroke-width="0.25"/><circle cx="67.551" cy="35.92" r="0.65" fill="#fff" stroke="#000" stroke-width="0.25"/><circle cx="73.984" cy="36" r="0.65" fill="#fff" stroke="#000" stroke-width="0.25"/><circle cx="80.418" cy="36.041" r="0.65" fill="#fff" stroke="#000" stroke-width="0.25"/></g><polyline points="14.5,36.086 14.588,36.087 14.676,36.087 14.764,36.087 14.853,36.087 14.941,36.087 15.029,36.087 15.117,36.087 15.205,36.087 15.293,36.087 15.381,36.087 15.469,36.087 15.558,36.086 15.646,36.086 15.734,36.086 15.822,36.085 15.91,36.085 15.998,36.084 16.086,36.084 16.174,36.083 16.263,36.082 16.351,36.081 16.439,36.081 16.527,36.08 16.615,36.079 16.703,36.078 16.791,36.077 16.879,36.076 16.968,36.075 17.056,36.074 17.144,36.073 17.232,36.072 17.32,36.071 17.408,36.07 17.496,36.069 17.584,36.068 17.673,36.067 17.761,36.065 17.849,36.064 17.937,36.063 18.025,36.062 18.113,36.061 18.201,36.06 18.289,36.058 18.378,36.057 18.466,36.056 18.554,36.055 18.642,36.053 18.73,36.052 18.818,36.051 18.906,36.05 18.994,36.048 19.083,36.047 19.171,36.046 19.259,36.044 19.347,36.043 19.435,36.042 19.523,36.041 19.611,36.039 19.699,36.038 19.788,36.037 19.876,36.036 19.964,36.034 20.052,36.033 20.14,36.032 20.228,36.03 20.316,36.029 20.404,36.028 20.493,36.027 20.581,36.026 20.669,36.024 20.757,36.023 20.845,36.022 20.933,36.021 21.021,36.02 21.109,36.019 21.197,36.017 21.286,36.016 21.374,36.015 21.462,36.014 21.55,36.013 21.638,36.012 21.726,36.011 21.814,36.01 21.903,36.01 21.991,36.009 22.079,36.008 22.167,36.007 22.255,36.006 22.343,36.006 22.431,36.005 22.519,36.004 22.608,36.004 22.696,36.003 22.784,36.003 22.872,36.003 22.96,36.002 23.048,36.002 23.136,36.002 23.224,36.002 23.313,36.002 23.401,36.002 23.489,36.002 23.577,36.002 23.665,36.002 23.753,36.002 23.841,36.003 23.929,36.003 24.018,36.004 24.106,36.004 24.194,36.005 24.282,36.006 24.37,36.007 24.458,36.008 24.546,36.009 24.634,36.01 24.723,36.012 24.811,36.013 24.899,36.015 24.987,36.016 25.075,36.018 25.163,36.02 25.251,36.021 25.339,36.023 25.428,36.025 25.516,36.027 25.604,36.029 25.692,36.031 25.78,36.034 25.868,36.036 25.956,36.038 26.044,36.04 26.133,36.043 26.221,36.045 26.309,36.047 26.397,36.049 26.485,36.052 26.573,36.054 26.661,36.056 26.749,36.058 26.838,36.06 26.926,36.062 27.014,36.064 27.102,36.066 27.19,36.068 27.278,36.07 27.366,36.071 27.454,36.073 27.543,36.075 27.631,36.076 27.719,36.077 27.807,36.079 27.895,36.08 27.983,36.081 28.071,36.082 28.159,36.083 28.248,36.083 28.336,36.084 28.424,36.085 28.512,36.085 28.6,36.085 28.688,36.086 28.776,36.086 28.864,36.086 28.953,36.086 29.041,36.086 29.129,36.086 29.217,36.085 29.305,36.085 29.393,36.084 29.481,36.084 29.569,36.083 29.658,36.083 29.746,36.082 29.834,36.081 29.922,36.081 30.01,36.08 30.098,36.079 30.186,36.078 30.274,36.077 30.363,36.076 30.451,36.075 30.539,36.074 30.627,36.073 30.715,36.072 30.803,36.07 30.891,36.069 30.979,36.068 31.068,36.067 31.156,36.065 31.244,36.064 31.332,36.063 31.42,36.061 31.508,36.06 31.596,36.058 31.684,36.057 31.773,36.056 31.861,36.054 31.949,36.053 32.037,36.051 32.125,36.05 32.213,36.048 32.301,36.047 32.389,36.045 32.478,36.044 32.566,36.042 32.654,36.041 32.742,36.039 32.83,36.038 32.918,36.036 33.006,36.035 33.094,36.033 33.183,36.032 33.271,36.03 33.359,36.029 33.447,36.027 33.535,36.026 33.623,36.025 33.711,36.023 33.799,36.022 33.888,36.021 33.976,36.019 34.064,36.018 34.152,36.017 34.24,36.016 34.328,36.015 34.416,36.014 34.504,36.013 34.593,36.012 34.681,36.012 34.769,36.011 34.857,36.01 34.945,36.01 35.033,36.01 35.121,36.01 35.209,36.01 35.298,36.01 35.386,36.01 35.474,36.011 35.562,36.011 35.65,36.012 35.738,36.014 35.826,36.015 35.914,36.017 36.003,36.019 36.091,36.022 36.179,36.024 36.267,36.027 36.355,36.031 36.443,36.035 36.531,36.039 36.619,36.044 36.708,36.049 36.796,36.054 36.884,36.059 36.972,36.065 37.06,36.071 37.148,36.077 37.236,36.084 37.324,36.09 37.413,36.096 37.501,36.103 37.589,36.109 37.677,36.114 37.765,36.12 37.853,36.125 37.941,36.13 38.029,36.134 38.117,36.138 38.206,36.141 38.294,36.144 38.382,36.146 38.47,36.147 38.558,36.149 38.646,36.149 38.734,36.15 38.823,36.15 38.911,36.149 38.999,36.148 39.087,36.147 39.175,36.146 39.263,36.144 39.351,36.142 39.439,36.14 39.528,36.138 39.616,36.135 39.704,36.133 39.792,36.13 39.88,36.127 39.968,36.125 40.056,36.122 40.144,36.119 40.233,36.116 40.321,36.113 40.409,36.11 40.497,36.107 40.585,36.105 40.673,36.102 40.761,36.099 40.849,36.096 40.938,36.093 41.026,36.09 41.114,36.088 41.202,36.085 41.29,36.082 41.378,36.08 41.466,36.077 41.554,36.074 41.643,36.072 41.731,36.069 41.819,36.067 41.907,36.064 41.995,36.062 42.083,36.06 42.171,36.057 42.259,36.055 42.348,36.053 42.436,36.05 42.524,36.048 42.612,36.046 42.7,36.044 42.788,36.042 42.876,36.039 42.964,36.037 43.052,36.035 43.141,36.033 43.229,36.031 43.317,36.029 43.405,36.027 43.493,36.025 43.581,36.023 43.669,36.021 43.758,36.019 43.846,36.017 43.934,36.015 44.022,36.014 44.11,36.012 44.198,36.01 44.286,36.008 44.374,36.006 44.463,36.004 44.551,36.003 44.639,36.001 44.727,35.999 44.815,35.997 44.903,35.996 44.991,35.994 45.079,35.992 45.168,35.99 45.256,35.989 45.344,35.987 45.432,35.985 45.52,35.984 45.608,35.982 45.696,35.98 45.784,35.979 45.873,35.977 45.961,35.975 46.049,35.974 46.137,35.972 46.225,35.97 46.313,35.969 46.401,35.967 46.489,35.966 46.578,35.964 46.666,35.962 46.754,35.961 46.842,35.959 46.93,35.958 47.018,35.956 47.106,35.954 47.194,35.953 47.283,35.951 47.371,35.95 47.459,35.948 47.547,35.946 47.635,35.945 47.723,35.943 47.811,35.942 47.899,35.94 47.988,35.938 48.076,35.937 48.164,35.935 48.252,35.934 48.34,35.932 48.428,35.931 48.516,35.929 48.604,35.927 48.693,35.926 48.781,35.924 48.869,35.923 48.957,35.921 49.045,35.919 49.133,35.918 49.221,35.916 49.309,35.915 49.398,35.913 49.486,35.911 49.574,35.91 49.662,35.908 49.75,35.907 49.838,35.905 49.926,35.903 50.014,35.902 50.103,35.9 50.191,35.898 50.279,35.897 50.367,35.895 50.455,35.893 50.543,35.892 50.631,35.89 50.719,35.888 50.807,35.887 50.896,35.885 50.984,35.883 51.072,35.881 51.16,35.88 51.248,35.878 51.336,35.876 51.424,35.875 51.513,35.873 51.601,35.871 51.689,35.869 51.777,35.867 51.865,35.866 51.953,35.864 52.041,35.862 52.129,35.86 52.217,35.858 52.306,35.857 52.394,35.855 52.482,35.853 52.57,35.851 52.658,35.849 52.746,35.847 52.834,35.845 52.923,35.843 53.011,35.842 53.099,35.84 53.187,35.838 53.275,35.836 53.363,35.834 53.451,35.832 53.539,35.83 53.628,35.828 53.716,35.826 53.804,35.824 53.892,35.822 53.98,35.819 54.068,35.817 54.156,35.815 54.244,35.813 54.332,35.811 54.421,35.809 54.509,35.807 54.597,35.804 54.685,35.802 54.773,35.8 54.861,35.798 54.949,35.795 55.038,35.793 55.126,35.791 55.214,35.788 55.302,35.786 55.39,35.784 55.478,35.781 55.566,35.779 55.654,35.776 55.743,35.774 55.831,35.772 55.919,35.769 56.007,35.766 56.095,35.764 56.183,35.761 56.271,35.759 56.359,35.756 56.448,35.753 56.536,35.751 56.624,35.748 56.712,35.745 56.8,35.742 56.888,35.74 56.976,35.737 57.064,35.734 57.152,35.731 57.241,35.728 57.329,35.725 57.417,35.722 57.505,35.719 57.593,35.716 57.681,35.713 57.769,35.709 57.858,35.706 57.946,35.703 58.034,35.7 58.122,35.696 58.21,35.693 58.298,35.69 58.386,35.686 58.474,35.683 58.563,35.679 58.651,35.675 58.739,35.672 58.827,35.668 58.915,35.664 59.003,35.66 59.091,35.657 59.179,35.653 59.268,35.649 59.356,35.645 59.444,35.641 59.532,35.636 59.62,35.632 59.708,35.628 59.796,35.624 59.884,35.619 59.973,35.615 60.061,35.61 60.149,35.605 60.237,35.601 60.325,35.596 60.413,35.591 60.501,35.586 60.589,35.581 60.678,35.576 60.766,35.571 60.854,35.565 60.942,35.56 61.03,35.554 61.118,35.549 61.206,35.543 61.294,35.537 61.383,35.531 61.471,35.525 61.559,35.519 61.647,35.513 61.735,35.506 61.823,35.5 61.911,35.493 61.999,35.486 62.088,35.479 62.176,35.472 62.264,35.465 62.352,35.457 62.44,35.45 62.528,35.442 62.616,35.434 62.704,35.426 62.793,35.417 62.881,35.409 62.969,35.4 63.057,35.391 63.145,35.382 63.233,35.372 63.321,35.363 63.409,35.353 63.497,35.343 63.586,35.332 63.674,35.322 63.762,35.311 63.85,35.299 63.938,35.288 64.026,35.276 64.114,35.264 64.203,35.251 64.291,35.238 64.379,35.224 64.467,35.211 64.555,35.196 64.643,35.181 64.731,35.166 64.819,35.15 64.908,35.134 64.996,35.117 65.084,35.1 65.172,35.082 65.26,35.063 65.348,35.043 65.436,35.023 65.524,35.002 65.613,34.98 65.701,34.957 65.789,34.934 65.877,34.909 65.965,34.883 66.053,34.856 66.141,34.828 66.229,34.799 66.318,34.768 66.406,34.735 66.494,34.701 66.582,34.665 66.67,34.628 66.758,34.588 66.846,34.546 66.934,34.502 67.023,34.455 67.111,34.405 67.199,34.352 67.287,34.295 67.375,34.235 67.463,34.17 67.551,34.101 67.639,34.026 67.727,33.946 67.816,33.858 67.904,33.764 67.992,33.661 68.08,33.548 68.168,33.425 68.256,33.288 68.344,33.137 68.432,32.969 68.521,32.781 68.609,32.568 68.697,32.327 68.785,32.05 68.873,31.73 68.961,31.357 69.049,30.916 69.138,30.388 69.226,29.747 69.314,28.956 69.402,27.965 69.49,26.71 69.578,25.131 69.666,23.295 69.754,21.965 69.843,24.587 69.931,36.489 70.019,47.827 70.107,50.006 70.195,48.609 70.283,46.801 70.371,45.258 70.459,44.03 70.547,43.06 70.636,42.284 70.724,41.654 70.812,41.134 70.9,40.699 70.988,40.33 71.076,40.014 71.164,39.74 71.253,39.501 71.341,39.29 71.429,39.103 71.517,38.936 71.605,38.786 71.693,38.65 71.781,38.527 71.869,38.415 71.958,38.313 72.046,38.218 72.134,38.132 72.222,38.051 72.31,37.977 72.398,37.908 72.486,37.844 72.574,37.783 72.663,37.727 72.751,37.674 72.839,37.625 72.927,37.578 73.015,37.534 73.103,37.492 73.191,37.453 73.279,37.415 73.368,37.38 73.456,37.346 73.544,37.314 73.632,37.283 73.72,37.254 73.808,37.226 73.896,37.199 73.984,37.173 74.072,37.149 74.161,37.125 74.249,37.103 74.337,37.081 74.425,37.06 74.513,37.04 74.601,37.02 74.689,37.001 74.778,36.983 74.866,36.966 74.954,36.949 75.042,36.933 75.13,36.917 75.218,36.901 75.306,36.887 75.394,36.872 75.482,36.859 75.571,36.845 75.659,36.832 75.747,36.82 75.835,36.807 75.923,36.795 76.011,36.784 76.099,36.773 76.188,36.762 76.276,36.751 76.364,36.741 76.452,36.731 76.54,36.721 76.628,36.712 76.716,36.702 76.804,36.693 76.893,36.685 76.981,36.676 77.069,36.667 77.157,36.659 77.245,36.651 77.333,36.643 77.421,36.636 77.509,36.628 77.598,36.621 77.686,36.613 77.774,36.606 77.862,36.599 77.95,36.593 78.038,36.586 78.126,36.579 78.214,36.573 78.303,36.567 78.391,36.56 78.479,36.554 78.567,36.548 78.655,36.543 78.743,36.537 78.831,36.531 78.919,36.526 79.008,36.521 79.096,36.515 79.184,36.51 79.272,36.505 79.36,36.5 79.448,36.495 79.536,36.49 79.624,36.486 79.713,36.481 79.801,36.477 79.889,36.472 79.977,36.468 80.065,36.463 80.153,36.459 80.241,36.455 80.329,36.451 80.418,36.447 80.506,36.443 80.594,36.439 80.682,36.435 80.77,36.431 80.858,36.427 80.946,36.423 81.034,36.42 81.123,36.416 81.211,36.412 81.299,36.409 81.387,36.405 81.475,36.402 81.563,36.398 81.651,36.395 81.739,36.391 81.828,36.388 81.916,36.385 82.004,36.382 82.092,36.378 82.18,36.375 82.268,36.372 82.356,36.369 82.444,36.366 82.533,36.363 82.621,36.36 82.709,36.358 82.797,36.355 82.885,36.352 82.973,36.349 83.061,36.346 83.149,36.344 83.238,36.341 83.326,36.338 83.414,36.336 83.502,36.333 83.59,36.331 83.678,36.328 83.766,36.326 83.854,36.323 83.943,36.321 84.031,36.318 84.119,36.316 84.207,36.313 84.295,36.311 84.383,36.309 84.471,36.306 84.559,36.304 84.648,36.302 84.736,36.299 84.824,36.297 84.912,36.295 85,36.292" fill="none" stroke="#000" stroke-width="0.35" stroke-dasharray="2 1" stroke-linejoin="round"/><g><rect x="18.674" y="35.459" width="1.17" height="1.17" fill="#fff" stroke="#000" stroke-width="0.25"/><rect x="25.107" y="35.446" width="1.17" height="1.17" fill="#fff" stroke="#000" stroke-width="0.25"/><rect x="31.54" y="35.465" width="1.17" height="1.17" fill="#fff" stroke="#000" stroke-width="0.25"/><rect x="37.973" y="35.564" width="1.17" height="1.17" fill="#fff" stroke="#000" stroke-width="0.25"/><rect x="44.406" y="35.409" width="1.17" height="1.17" fill="#fff" stroke="#000" stroke-width="0.25"/><rect x="50.839" y="35.29" width="1.17" height="1.17" fill="#fff" stroke="#000" stroke-width="0.25"/><rect x="57.273" y="35.121" width="1.17" height="1.17" fill="#fff" stroke="#000" stroke-width="0.25"/><rect x="63.706" y="34.653" width="1.17" height="1.17" fill="#fff" stroke="#000" stroke-width="0.25"/><rect x="70.139" y="41.069" width="1.17" height="1.17" fill="#fff" stroke="#000" stroke-width="0.25"/><rect x="76.572" y="36.074" width="1.17" height="1.17" fill="#fff" stroke="#000" stroke-width="0.25"/><rect x="83.005" y="35.746" width="1.17" height="1.17" fill="#fff" stroke="#000" stroke-width="0.25"/></g><rect x="14.5" y="2.75" width="70.5" height="49.95" fill="none" stroke="#000" stroke-width="0.25"/><g stroke="#000" stroke-width="0.25"><line x1="24.224" y1="52.7" x2="24.224" y2="51.7"/><line x1="24.224" y1="2.75" x2="24.224" y2="3.75"/><line x1="36.379" y1="52.7" x2="36.379" y2="51.7"/><line x1="36.379" y1="2.75" x2="36.379" y2="3.75"/><line x1="48.534" y1="52.7" x2="48.534" y2="51.7"/><line x1="48.534" y1="2.75" x2="48.534" y2="3.75"/><line x1="60.69" y1="52.7" x2="60.69" y2="51.7"/><line x1="60.69" y1="2.75" x2="60.69" y2="3.75"/><line x1="72.845" y1="52.7" x2="72.845" y2="51.7"/><line x1="72.845" y1="2.75" x2="72.845" y2="3.75"/><line x1="85" y1="52.7" x2="85" y2="51.7"/><line x1="85" y1="2.75" x2="85" y2="3.75"/><line x1="14.5" y1="52.7" x2="15.5" y2="52.7"/><line x1="85" y1="52.7" x2="84" y2="52.7"/><line x1="14.5" y1="44.375" x2="15.5" y2="44.375"/><line x1="85" y1="44.375" x2="84" y2="44.375"/><line x1="14.5" y1="36.05" x2="15.5" y2="36.05"/><line x1="85" y1="36.05" x2="84" y2="36.05"/><line x1="14.5" y1="27.725" x2="15.5" y2="27.725"/><line x1="85" y1="27.725" x2="84" y2="27.725"/><line x1="14.5" y1="19.4" x2="15.5" y2="19.4"/><line x1="85" y1="19.4" x2="84" y2="19.4"/><line x1="14.5" y1="11.075" x2="15.5" y2="11.075"/><line x1="85" y1="11.075" x2="84" y2="11.075"/><line x1="14.5" y1="2.75" x2="15.5" y2="2.75"/><line x1="85" y1="2.75" x2="84" y2="2.75"/></g><g font-size="2.5"><text x="24.224" y="55.9" text-anchor="middle">1</text><text x="36.379" y="55.9" text-anchor="middle">2</text><text x="48.534" y="55.9" text-anchor="middle">3</text><text x="60.69" y="55.9" text-anchor="middle">4</text><text x="72.845" y="55.9" text-anchor="middle">5</text><text x="85" y="55.9" text-anchor="middle">6</text><text x="13.3" y="53.575" text-anchor="end">−4000</text><text x="13.3" y="45.25" text-anchor="end">−2000</text><text x="13.3" y="36.925" text-anchor="end">0</text><text x="13.3" y="28.6" text-anchor="end">2000</text><text x="13.3" y="20.275" text-anchor="end">4000</text><text x="13.3" y="11.95" text-anchor="end">6000</text><text x="13.3" y="3.625" text-anchor="end">8000</text></g><text x="49.75" y="60.8" font-size="2.8" text-anchor="middle">Frequency (GHz)</text><text x="3.44" y="27.725" font-size="2.8" text-anchor="middle" transform="rotate(-90 3.44 27.725)">Input impedance (Ω)</text><g class="legend"><rect x="16" y="4.25" width="20.853" height="8.95" fill="#fff" stroke="#000" stroke-width="0.18"/><line x1="18" y1="6.788" x2="25" y2="6.788" stroke="#000" stroke-width="0.35"/><circle cx="21.5" cy="6.788" r="0.65" fill="#fff" stroke="#000" stroke-width="0.25"/><text x="26.5" y="7.663" font-size="2.5">Re(Zin)</text><line x1="18" y1="10.663" x2="25" y2="10.663" stroke="#000" stroke-width="0.35" stroke-dasharray="2 1"/><rect x="20.915" y="10.077" width="1.17" height="1.17" fill="#fff" stroke="#000" stroke-width="0.25"/><text x="26.5" y="11.538" font-size="2.5">Im(Zin)</text></g></g></svg>
