<?xml version="1.0" encoding="UTF-8"?>
<svg xmlns="http://www.w3.org/2000/svg" version="1.1" width="297mm" height="210mm" viewBox="0 0 297 210" font-family="'IBM Plex Sans', Helvetica, Arial, sans-serif"><title>Printed meander dipole (867 MHz) — technical drawing</title><desc>Printed meander dipole (867 MHz) (meander-dipole-867) · Fairbeam 0.7.0 · third-angle projection · scale 1:10 · A4</desc><rect x="0" y="0" width="297" height="210" fill="#fff" stroke="none"/><g class="frame"><rect x="20" y="10" width="267" height="190" fill="none" stroke="#000" stroke-width="0.5"/><g stroke="#000" stroke-width="0.5"><line x1="148.5" y1="0" x2="148.5" y2="15"/><line x1="148.5" y1="195" x2="148.5" y2="210"/><line x1="0" y1="105" x2="25" y2="105"/><line x1="282" y1="105" x2="297" y2="105"/></g><rect x="0.2" y="0.2" width="296.6" height="209.6" fill="none" stroke="#000" stroke-width="0.125" stroke-opacity="0.35"/></g><g transform="translate(100.396 33.936)"><g class="view view-top"><g><polygon points="0.7,0.86 4.1,0.86 4.1,0.7 0.7,0.7" fill="#fff" stroke="none"/><polygon points="1.3,0.86 4.1,0.86 4.1,0.7 1.3,0.7" fill="#fff" stroke="none"/></g><path d="M1.035 0.86L1.195 0.7M2.025 0.86L2.185 0.7M3.015 0.86L3.175 0.7M4.005 0.86L4.1 0.765M1.635 0.86L1.795 0.7M2.625 0.86L2.785 0.7M3.615 0.86L3.775 0.7" fill="none" stroke="#000" stroke-width="0.18"/><g fill="none" stroke="#000" stroke-width="0.35"><polygon points="0.7,0.86 4.1,0.86 4.1,0.7 0.7,0.7"/><polygon points="1.3,0.86 4.1,0.86 4.1,0.7 1.3,0.7"/></g><g stroke="#000" stroke-width="0.25"><line x1="1.3" y1="0.86" x2="1.3" y2="0.7"/><line x1="1.9" y1="0.86" x2="1.9" y2="0.7"/></g><g stroke-linejoin="round"><rect x="2.2" y="0.512" width="0.9" height="0.7" fill="#000" stroke="none"/><rect x="2.9" y="0.512" width="0.2" height="0.7" fill="#000" stroke="none"/><rect x="2.2" y="0.512" width="0.2" height="0.7" fill="#000" stroke="none"/><rect x="2.2" y="0.512" width="1.6" height="0.7" fill="#000" stroke="none"/><rect x="3.6" y="0.512" width="0.2" height="0.7" fill="#000" stroke="none"/><rect x="2.2" y="0.512" width="1.6" height="0.7" fill="#000" stroke="none"/><rect x="2.2" y="0.512" width="0.2" height="0.7" fill="#000" stroke="none"/><rect x="2.2" y="0.512" width="1.6" height="0.7" fill="#000" stroke="none"/><rect x="3.6" y="0.512" width="0.2" height="0.7" fill="#000" stroke="none"/><rect x="2.9" y="0.512" width="0.9" height="0.7" fill="#000" stroke="none"/><rect x="2.9" y="0.512" width="0.2" height="0.7" fill="#000" stroke="none"/><rect x="2.9" y="0.512" width="0.2" height="0.7" fill="#000" stroke="none"/><rect x="2.9" y="0.512" width="0.9" height="0.7" fill="#000" stroke="none"/><rect x="3.6" y="0.512" width="0.2" height="0.7" fill="#000" stroke="none"/><rect x="2.2" y="0.512" width="1.6" height="0.7" fill="#000" stroke="none"/><rect x="2.2" y="0.512" width="0.2" height="0.7" fill="#000" stroke="none"/><rect x="2.2" y="0.512" width="1.6" height="0.7" fill="#000" stroke="none"/><rect x="3.6" y="0.512" width="0.2" height="0.7" fill="#000" stroke="none"/><rect x="2.2" y="0.512" width="1.6" height="0.7" fill="#000" stroke="none"/><rect x="2.2" y="0.512" width="0.2" height="0.7" fill="#000" stroke="none"/><rect x="2.2" y="0.512" width="0.9" height="0.7" fill="#000" stroke="none"/><rect x="2.9" y="0.512" width="0.2" height="0.7" fill="#000" stroke="none"/></g><g class="ports"><line x1="2.9" y1="0.86" x2="3.1" y2="0.86" stroke="#000" stroke-width="0.25"/><g><circle cx="3" cy="0.86" r="1.3" fill="#fff" stroke="#000" stroke-width="0.3"/><path d="M2.194 0.86Q2.597 -0.115 3 0.86T3.806 0.86" fill="none" stroke="#000" stroke-width="0.3"/></g></g><g class="dimensions"><g stroke="#000" stroke-width="0.25" fill="none"><line x1="0.7" y1="-0.8" x2="0.7" y2="-8.5"/><line x1="3" y1="0.06" x2="3" y2="-8.5"/><line x1="-3.3" y1="-7" x2="10" y2="-7"/></g><g><polygon points="0.7,-7 -1.8,-6.583 -1.8,-7.417" fill="#000" stroke="none"/><polygon points="3,-7 5.5,-7.417 5.5,-6.583" fill="#000" stroke="none"/></g><g fill="#000" font-size="2.5" stroke="none"><text x="8.5" y="-7.7" text-anchor="middle">23</text></g></g><g class="triad"><circle cx="-10.501" cy="7.763" r="0.35" fill="#000" stroke="none"/><line x1="-10.501" y1="7.763" x2="-6.301" y2="7.763" stroke="#000" stroke-width="0.25"/><polygon points="-6.301,7.763 -7.771,8.008 -7.771,7.518" fill="#000" stroke="none"/><text x="-5.001" y="8.498" font-size="2.1" text-anchor="start" font-style="italic">x</text><line x1="-10.501" y1="7.763" x2="-10.501" y2="3.563" stroke="#000" stroke-width="0.25"/><polygon points="-10.501,3.563 -10.256,5.033 -10.746,5.033" fill="#000" stroke="none"/><text x="-10.501" y="2.998" font-size="2.1" text-anchor="middle" font-style="italic">y</text></g><text x="-2.301" y="8.163" font-size="3" font-weight="600">Top view (xy)</text></g></g><g transform="translate(202.923 23)"><g class="view view-iso"><polygon points="0.7,9.012 3.104,10.4 3.104,6.032 1.124,4.889" fill="#fff" stroke="#000" stroke-width="0.25" stroke-linejoin="round"/><polygon points="1.758,8.932 1.9,9.013 1.902,9.012 1.761,8.93" fill="#d9d9d9" stroke="#000" stroke-width="0.35" stroke-linejoin="round"/><polygon points="1.758,9.095 2.395,9.462 2.397,9.461 1.761,9.094" fill="#d9d9d9" stroke="#000" stroke-width="0.35" stroke-linejoin="round"/><polygon points="1.758,9.095 1.9,9.177 1.9,9.013 1.758,8.932" fill="#d9d9d9" stroke="#000" stroke-width="0.35" stroke-linejoin="round"/><polygon points="1.9,9.177 1.902,9.175 1.902,9.012 1.9,9.013" fill="#d9d9d9" stroke="#000" stroke-width="0.35" stroke-linejoin="round"/><polygon points="1.758,9.258 2.395,9.626 2.395,9.462 1.758,9.095" fill="#d9d9d9" stroke="#000" stroke-width="0.35" stroke-linejoin="round"/><polygon points="2.253,9.667 2.395,9.748 2.395,9.462 2.253,9.381" fill="#d9d9d9" stroke="#000" stroke-width="0.35" stroke-linejoin="round"/><polygon points="2.395,9.748 2.397,9.747 2.397,9.461 2.395,9.462" fill="#d9d9d9" stroke="#000" stroke-width="0.35" stroke-linejoin="round"/><polygon points="2.395,9.626 2.397,9.624 2.397,9.461 2.395,9.462" fill="#d9d9d9" stroke="#000" stroke-width="0.35" stroke-linejoin="round"/><polygon points="2.253,9.381 2.395,9.462 2.397,9.461 2.256,9.379" fill="#d9d9d9" stroke="#000" stroke-width="0.35" stroke-linejoin="round"/><polygon points="1.758,8.279 1.9,8.36 1.902,8.359 1.761,8.277" fill="#d9d9d9" stroke="#000" stroke-width="0.35" stroke-linejoin="round"/><polygon points="1.758,8.932 2.89,9.585 2.89,9.422 1.758,8.768" fill="#d9d9d9" stroke="#000" stroke-width="0.35" stroke-linejoin="round"/><polygon points="1.758,8.768 2.89,9.422 2.892,9.42 1.761,8.767" fill="#d9d9d9" stroke="#000" stroke-width="0.35" stroke-linejoin="round"/><polygon points="1.758,8.442 2.89,9.095 2.892,9.094 1.761,8.44" fill="#d9d9d9" stroke="#000" stroke-width="0.35" stroke-linejoin="round"/><polygon points="1.758,8.442 1.9,8.523 1.9,8.36 1.758,8.279" fill="#d9d9d9" stroke="#000" stroke-width="0.35" stroke-linejoin="round"/><polygon points="1.9,8.523 1.902,8.522 1.902,8.359 1.9,8.36" fill="#d9d9d9" stroke="#000" stroke-width="0.35" stroke-linejoin="round"/><polygon points="2.89,9.585 2.892,9.583 2.892,9.42 2.89,9.422" fill="#d9d9d9" stroke="#000" stroke-width="0.35" stroke-linejoin="round"/><polygon points="1.758,8.279 2.89,8.932 2.89,8.768 1.758,8.115" fill="#d9d9d9" stroke="#000" stroke-width="0.35" stroke-linejoin="round"/><polygon points="1.758,8.115 2.89,8.768 2.892,8.767 1.761,8.114" fill="#d9d9d9" stroke="#000" stroke-width="0.35" stroke-linejoin="round"/><polygon points="2.89,9.422 2.892,9.42 2.892,9.257 2.89,9.258" fill="#d9d9d9" stroke="#000" stroke-width="0.35" stroke-linejoin="round"/><polygon points="2.748,9.177 2.89,9.258 2.892,9.257 2.751,9.175" fill="#d9d9d9" stroke="#000" stroke-width="0.35" stroke-linejoin="round"/><polygon points="1.758,8.605 2.89,9.258 2.89,9.095 1.758,8.442" fill="#d9d9d9" stroke="#000" stroke-width="0.35" stroke-linejoin="round"/><polygon points="2.748,9.34 2.89,9.422 2.89,9.258 2.748,9.177" fill="#d9d9d9" stroke="#000" stroke-width="0.35" stroke-linejoin="round"/><polygon points="2.89,9.258 2.892,9.257 2.892,9.094 2.89,9.095" fill="#d9d9d9" stroke="#000" stroke-width="0.35" stroke-linejoin="round"/><polygon points="2.89,8.932 2.892,8.93 2.892,8.767 2.89,8.768" fill="#d9d9d9" stroke="#000" stroke-width="0.35" stroke-linejoin="round"/><polygon points="2.253,8.074 2.89,8.442 2.892,8.44 2.256,8.073" fill="#d9d9d9" stroke="#000" stroke-width="0.35" stroke-linejoin="round"/><polygon points="2.89,8.768 2.892,8.767 2.892,8.604 2.89,8.605" fill="#d9d9d9" stroke="#000" stroke-width="0.35" stroke-linejoin="round"/><polygon points="2.748,8.523 2.89,8.605 2.892,8.604 2.751,8.522" fill="#d9d9d9" stroke="#000" stroke-width="0.35" stroke-linejoin="round"/><polygon points="2.253,8.238 2.89,8.605 2.89,8.442 2.253,8.074" fill="#d9d9d9" stroke="#000" stroke-width="0.35" stroke-linejoin="round"/><polygon points="2.748,8.687 2.89,8.768 2.89,8.605 2.748,8.523" fill="#d9d9d9" stroke="#000" stroke-width="0.35" stroke-linejoin="round"/><polygon points="2.89,8.605 2.892,8.604 2.892,8.44 2.89,8.442" fill="#d9d9d9" stroke="#000" stroke-width="0.35" stroke-linejoin="round"/><polygon points="3.104,10.4 3.104,6.032 3.217,5.966 3.217,10.335" fill="#fff" stroke="#000" stroke-width="0.25" stroke-linejoin="round"/><polygon points="2.253,8.074 2.395,8.156 2.395,5.707 2.253,5.625" fill="#d9d9d9" stroke="#000" stroke-width="0.35" stroke-linejoin="round"/><polygon points="2.395,8.156 2.397,8.155 2.397,5.705 2.395,5.707" fill="#d9d9d9" stroke="#000" stroke-width="0.35" stroke-linejoin="round"/><polygon points="3.104,6.032 1.124,4.889 1.237,4.823 3.217,5.966" fill="#fff" stroke="#000" stroke-width="0.25" stroke-linejoin="round"/><polygon points="2.253,5.625 2.395,5.707 2.397,5.705 2.256,5.623" fill="#d9d9d9" stroke="#000" stroke-width="0.35" stroke-linejoin="round"/><polygon points="1.124,4.889 3.104,6.032 3.104,1.663 1.549,0.765" fill="#fff" stroke="#000" stroke-width="0.25" stroke-linejoin="round"/><polygon points="2.253,5.462 2.395,5.543 2.395,3.094 2.253,3.012" fill="#d9d9d9" stroke="#000" stroke-width="0.35" stroke-linejoin="round"/><polygon points="2.395,5.543 2.397,5.542 2.397,3.092 2.395,3.094" fill="#d9d9d9" stroke="#000" stroke-width="0.35" stroke-linejoin="round"/><polygon points="2.253,3.012 2.395,3.094 2.397,3.092 2.256,3.011" fill="#d9d9d9" stroke="#000" stroke-width="0.35" stroke-linejoin="round"/><polygon points="1.758,2.073 1.9,2.155 1.902,2.153 1.761,2.072" fill="#d9d9d9" stroke="#000" stroke-width="0.35" stroke-linejoin="round"/><polygon points="2.253,3.012 2.89,3.38 2.89,3.216 2.253,2.849" fill="#d9d9d9" stroke="#000" stroke-width="0.35" stroke-linejoin="round"/><polygon points="2.253,2.849 2.89,3.216 2.892,3.215 2.256,2.847" fill="#d9d9d9" stroke="#000" stroke-width="0.35" stroke-linejoin="round"/><polygon points="3.104,6.032 3.104,1.663 3.217,1.598 3.217,5.966" fill="#fff" stroke="#000" stroke-width="0.25" stroke-linejoin="round"/><polygon points="1.758,2.236 2.89,2.89 2.892,2.888 1.761,2.235" fill="#d9d9d9" stroke="#000" stroke-width="0.35" stroke-linejoin="round"/><polygon points="1.758,2.236 1.9,2.318 1.9,2.155 1.758,2.073" fill="#d9d9d9" stroke="#000" stroke-width="0.35" stroke-linejoin="round"/><polygon points="1.9,2.318 1.902,2.317 1.902,2.153 1.9,2.155" fill="#d9d9d9" stroke="#000" stroke-width="0.35" stroke-linejoin="round"/><polygon points="2.89,3.38 2.892,3.378 2.892,3.215 2.89,3.216" fill="#d9d9d9" stroke="#000" stroke-width="0.35" stroke-linejoin="round"/><polygon points="1.758,1.42 1.9,1.502 1.902,1.5 1.761,1.419" fill="#d9d9d9" stroke="#000" stroke-width="0.35" stroke-linejoin="round"/><polygon points="1.758,2.073 2.89,2.726 2.89,2.563 1.758,1.91" fill="#d9d9d9" stroke="#000" stroke-width="0.35" stroke-linejoin="round"/><polygon points="1.758,1.91 2.89,2.563 2.892,2.562 1.761,1.908" fill="#d9d9d9" stroke="#000" stroke-width="0.35" stroke-linejoin="round"/><polygon points="2.89,3.216 2.892,3.215 2.892,3.052 2.89,3.053" fill="#d9d9d9" stroke="#000" stroke-width="0.35" stroke-linejoin="round"/><polygon points="2.748,2.971 2.89,3.053 2.892,3.052 2.751,2.97" fill="#d9d9d9" stroke="#000" stroke-width="0.35" stroke-linejoin="round"/><polygon points="1.758,2.4 2.89,3.053 2.89,2.89 1.758,2.236" fill="#d9d9d9" stroke="#000" stroke-width="0.35" stroke-linejoin="round"/><polygon points="2.748,3.135 2.89,3.216 2.89,3.053 2.748,2.971" fill="#d9d9d9" stroke="#000" stroke-width="0.35" stroke-linejoin="round"/><polygon points="2.89,3.053 2.892,3.052 2.892,2.888 2.89,2.89" fill="#d9d9d9" stroke="#000" stroke-width="0.35" stroke-linejoin="round"/><polygon points="1.758,1.583 2.89,2.236 2.892,2.235 1.761,1.582" fill="#d9d9d9" stroke="#000" stroke-width="0.35" stroke-linejoin="round"/><polygon points="1.758,1.583 1.9,1.665 1.9,1.502 1.758,1.42" fill="#d9d9d9" stroke="#000" stroke-width="0.35" stroke-linejoin="round"/><polygon points="1.9,1.665 1.902,1.663 1.902,1.5 1.9,1.502" fill="#d9d9d9" stroke="#000" stroke-width="0.35" stroke-linejoin="round"/><polygon points="1.758,1.42 2.395,1.787 2.395,1.624 1.758,1.257" fill="#d9d9d9" stroke="#000" stroke-width="0.35" stroke-linejoin="round"/><polygon points="1.758,1.257 2.395,1.624 2.397,1.623 1.761,1.255" fill="#d9d9d9" stroke="#000" stroke-width="0.35" stroke-linejoin="round"/><polygon points="2.89,2.726 2.892,2.725 2.892,2.562 2.89,2.563" fill="#d9d9d9" stroke="#000" stroke-width="0.35" stroke-linejoin="round"/><polygon points="2.253,1.706 2.395,1.787 2.395,1.502 2.253,1.42" fill="#d9d9d9" stroke="#000" stroke-width="0.35" stroke-linejoin="round"/><polygon points="2.395,1.787 2.397,1.786 2.397,1.623 2.395,1.624" fill="#d9d9d9" stroke="#000" stroke-width="0.35" stroke-linejoin="round"/><polygon points="2.395,1.787 2.397,1.786 2.397,1.5 2.395,1.502" fill="#d9d9d9" stroke="#000" stroke-width="0.35" stroke-linejoin="round"/><polygon points="2.89,2.563 2.892,2.562 2.892,2.398 2.89,2.4" fill="#d9d9d9" stroke="#000" stroke-width="0.35" stroke-linejoin="round"/><polygon points="2.748,2.318 2.89,2.4 2.892,2.398 2.751,2.317" fill="#d9d9d9" stroke="#000" stroke-width="0.35" stroke-linejoin="round"/><polygon points="1.758,1.747 2.89,2.4 2.89,2.236 1.758,1.583" fill="#d9d9d9" stroke="#000" stroke-width="0.35" stroke-linejoin="round"/><polygon points="2.748,2.481 2.89,2.563 2.89,2.4 2.748,2.318" fill="#d9d9d9" stroke="#000" stroke-width="0.35" stroke-linejoin="round"/><polygon points="2.253,1.42 2.395,1.502 2.397,1.5 2.256,1.419" fill="#d9d9d9" stroke="#000" stroke-width="0.35" stroke-linejoin="round"/><polygon points="2.89,2.4 2.892,2.398 2.892,2.235 2.89,2.236" fill="#d9d9d9" stroke="#000" stroke-width="0.35" stroke-linejoin="round"/><polygon points="3.104,1.663 1.549,0.765 1.662,0.7 3.217,1.598" fill="#fff" stroke="#000" stroke-width="0.25" stroke-linejoin="round"/><line x1="2.256" y1="5.623" x2="2.397" y2="5.542" stroke="#000" stroke-width="0.25"/><g><circle cx="2.326" cy="5.583" r="1.105" fill="#fff" stroke="#000" stroke-width="0.3"/><path d="M1.641 5.583Q1.984 4.754 2.326 5.583T3.011 5.583" fill="none" stroke="#000" stroke-width="0.3"/></g><text x="4.426" y="6.318" font-size="2.1">P1</text><g class="triad"><circle cx="-10.191" cy="17.9" r="0.35" fill="#000" stroke="none"/><line x1="-10.191" y1="17.9" x2="-7.247" y2="19.6" stroke="#000" stroke-width="0.25"/><polygon points="-7.247,19.6 -8.377,19.177 -8.178,18.833" fill="#000" stroke="none"/><text x="-6.121" y="20.985" font-size="2.1" text-anchor="start" font-style="italic">x</text><line x1="-10.191" y1="17.9" x2="-7.247" y2="16.2" stroke="#000" stroke-width="0.25"/><polygon points="-7.247,16.2 -8.178,16.967 -8.377,16.623" fill="#000" stroke="none"/><text x="-6.121" y="16.285" font-size="2.1" text-anchor="start" font-style="italic">y</text><line x1="-10.191" y1="17.9" x2="-10.191" y2="14.5" stroke="#000" stroke-width="0.25"/><polygon points="-10.191,14.5 -9.993,15.69 -10.39,15.69" fill="#000" stroke="none"/><text x="-10.191" y="13.935" font-size="2.1" text-anchor="middle" font-style="italic">z</text></g><text x="-3.391" y="19.1" font-size="3" font-weight="600">Isometric view</text></g></g><g transform="translate(100.396 58.98)"><g class="view view-front"><g><polygon points="0.7,11.4 4.1,11.4 4.1,6.05 1.3,6.05" fill="#fff" stroke="none"/><polygon points="1.3,6.05 4.1,6.05 4.1,0.7 1.9,0.7" fill="#fff" stroke="none"/></g><g fill="none" stroke="#000" stroke-width="0.35"><polygon points="0.7,11.4 4.1,11.4 4.1,6.05 1.3,6.05"/><polygon points="1.3,6.05 4.1,6.05 4.1,0.7 1.9,0.7"/></g><g stroke-linejoin="round"><rect x="2.65" y="2.95" width="0.7" height="3" fill="#000" stroke="none"/><rect x="2.9" y="2.5" width="0.9" height="0.7" fill="#000" stroke="none"/><rect x="2.2" y="0.9" width="0.9" height="0.7" fill="#000" stroke="none"/><rect x="2.65" y="1" width="0.7" height="0.35" fill="#000" stroke="none"/><rect x="2.65" y="6.15" width="0.7" height="3" fill="#000" stroke="none"/><rect x="2.9" y="8.9" width="0.9" height="0.7" fill="#000" stroke="none"/><rect x="2.2" y="10.5" width="0.9" height="0.7" fill="#000" stroke="none"/><rect x="2.65" y="10.75" width="0.7" height="0.35" fill="#000" stroke="none"/><rect x="2.2" y="2.1" width="1.6" height="0.7" fill="#000" stroke="none"/><rect x="2.2" y="1.7" width="1.6" height="0.7" fill="#000" stroke="none"/><rect x="2.2" y="1.3" width="1.6" height="0.7" fill="#000" stroke="none"/><rect x="2.2" y="9.3" width="1.6" height="0.7" fill="#000" stroke="none"/><rect x="2.2" y="9.7" width="1.6" height="0.7" fill="#000" stroke="none"/><rect x="2.2" y="10.1" width="1.6" height="0.7" fill="#000" stroke="none"/><rect x="3.35" y="2.55" width="0.7" height="0.2" fill="#000" stroke="none"/><rect x="3.35" y="1.75" width="0.7" height="0.2" fill="#000" stroke="none"/><rect x="3.6" y="9.1" width="0.2" height="0.7" fill="#000" stroke="none"/><rect x="3.6" y="9.9" width="0.2" height="0.7" fill="#000" stroke="none"/><rect x="2.2" y="1.9" width="0.2" height="0.7" fill="#000" stroke="none"/><rect x="2.2" y="1.1" width="0.2" height="0.7" fill="#000" stroke="none"/><rect x="2.2" y="9.5" width="0.2" height="0.7" fill="#000" stroke="none"/><rect x="2.2" y="10.3" width="0.2" height="0.7" fill="#000" stroke="none"/></g><g stroke="#000" stroke-width="0.25" stroke-dasharray="6 1 0.5 1"><line x1="-2.3" y1="6.05" x2="7.1" y2="6.05"/></g><g class="ports"><line x1="2.9" y1="6.15" x2="3.1" y2="5.95" stroke="#000" stroke-width="0.25"/><g><circle cx="3" cy="6.05" r="1.3" fill="#fff" stroke="#000" stroke-width="0.3"/><path d="M2.194 6.05Q2.597 5.075 3 6.05T3.806 6.05" fill="none" stroke="#000" stroke-width="0.3"/></g><g><polyline points="3.919,5.131 7.455,1.595 16.502,1.595" fill="none" stroke="#000" stroke-width="0.25"/><rect x="7.455" y="-0.4" width="9.047" height="1.795" fill="#fff" stroke="none" fill-opacity="0.85"/><text x="8.055" y="0.995" font-size="2.1" text-anchor="start">P1 50 Ω</text></g></g><g class="dimensions"><g stroke="#000" stroke-width="0.25" fill="none"><line x1="3.6" y1="11.15" x2="3.6" y2="20.6"/><line x1="3.8" y1="11.15" x2="3.8" y2="20.6"/><line x1="-0.4" y1="19.1" x2="9.3" y2="19.1"/><line x1="2.2" y1="11.55" x2="2.2" y2="26.1"/><line x1="2.4" y1="11.55" x2="2.4" y2="26.1"/><line x1="-1.8" y1="24.6" x2="7.9" y2="24.6"/><line x1="2.9" y1="11.9" x2="2.9" y2="31.6"/><line x1="3.1" y1="11.9" x2="3.1" y2="31.6"/><line x1="-1.1" y1="30.1" x2="8.6" y2="30.1"/><line x1="3.1" y1="9.95" x2="3.1" y2="37.1"/><line x1="3.8" y1="9.95" x2="3.8" y2="37.1"/><line x1="-0.9" y1="35.6" x2="9.3" y2="35.6"/><line x1="2.2" y1="10.15" x2="2.2" y2="42.6"/><line x1="2.9" y1="10.15" x2="2.9" y2="42.6"/><line x1="-1.8" y1="41.1" x2="8.4" y2="41.1"/><line x1="2.2" y1="11.75" x2="2.2" y2="48.1"/><line x1="3.8" y1="10.15" x2="3.8" y2="48.1"/><line x1="-1.8" y1="46.6" x2="10.8" y2="46.6"/><line x1="0.7" y1="12.2" x2="0.7" y2="53.6"/><line x1="4.1" y1="12.2" x2="4.1" y2="53.6"/><line x1="-3.3" y1="52.1" x2="11.1" y2="52.1"/><line x1="1.4" y1="6.15" x2="-8.5" y2="6.15"/><line x1="1.4" y1="9.35" x2="-8.5" y2="9.35"/><line x1="-7" y1="-0.85" x2="-7" y2="13.35"/><line x1="3.9" y1="1" x2="26.002" y2="1"/><line x1="3.9" y1="1.15" x2="26.002" y2="1.15"/><line x1="24.502" y1="-6.68" x2="24.502" y2="5.15"/><line x1="3.9" y1="10.95" x2="31.502" y2="10.95"/><line x1="3.9" y1="11.1" x2="31.502" y2="11.1"/><line x1="30.002" y1="3.27" x2="30.002" y2="15.1"/><line x1="3.8" y1="5.95" x2="37.002" y2="5.95"/><line x1="3.8" y1="6.15" x2="37.002" y2="6.15"/><line x1="35.502" y1="0.45" x2="35.502" y2="10.15"/><line x1="4.6" y1="6.15" x2="42.502" y2="6.15"/><line x1="4.6" y1="9.15" x2="42.502" y2="9.15"/><line x1="41.002" y1="-0.85" x2="41.002" y2="13.15"/><line x1="4.6" y1="1.75" x2="48.002" y2="1.75"/><line x1="4.6" y1="10.35" x2="48.002" y2="10.35"/><line x1="46.502" y1="1.75" x2="46.502" y2="10.35"/><line x1="4.6" y1="1.55" x2="53.502" y2="1.55"/><line x1="4.6" y1="10.55" x2="53.502" y2="10.55"/><line x1="52.002" y1="1.55" x2="52.002" y2="10.55"/><line x1="3.2" y1="1.35" x2="59.002" y2="1.35"/><line x1="3.2" y1="10.75" x2="59.002" y2="10.75"/><line x1="57.502" y1="1.35" x2="57.502" y2="10.75"/><line x1="3.9" y1="1" x2="64.502" y2="1"/><line x1="3.9" y1="10.95" x2="64.502" y2="10.95"/><line x1="63.002" y1="1" x2="63.002" y2="10.95"/><line x1="3.9" y1="1.15" x2="70.002" y2="1.15"/><line x1="3.9" y1="11.1" x2="70.002" y2="11.1"/><line x1="68.502" y1="1.15" x2="68.502" y2="11.1"/><line x1="3.9" y1="1" x2="75.502" y2="1"/><line x1="3.9" y1="11.1" x2="75.502" y2="11.1"/><line x1="74.002" y1="1" x2="74.002" y2="11.1"/><line x1="4.9" y1="0.7" x2="81.002" y2="0.7"/><line x1="4.9" y1="11.4" x2="81.002" y2="11.4"/><line x1="79.502" y1="0.7" x2="79.502" y2="11.4"/></g><g><polygon points="3.6,19.1 1.1,19.517 1.1,18.683" fill="#000" stroke="none"/><polygon points="3.8,19.1 6.3,18.683 6.3,19.517" fill="#000" stroke="none"/><polygon points="2.2,24.6 -0.3,25.017 -0.3,24.183" fill="#000" stroke="none"/><polygon points="2.4,24.6 4.9,24.183 4.9,25.017" fill="#000" stroke="none"/><polygon points="2.9,30.1 0.4,30.517 0.4,29.683" fill="#000" stroke="none"/><polygon points="3.1,30.1 5.6,29.683 5.6,30.517" fill="#000" stroke="none"/><polygon points="3.1,35.6 0.6,36.017 0.6,35.183" fill="#000" stroke="none"/><polygon points="3.8,35.6 6.3,35.183 6.3,36.017" fill="#000" stroke="none"/><polygon points="2.2,41.1 -0.3,41.517 -0.3,40.683" fill="#000" stroke="none"/><polygon points="2.9,41.1 5.4,40.683 5.4,41.517" fill="#000" stroke="none"/><polygon points="2.2,46.6 -0.3,47.017 -0.3,46.183" fill="#000" stroke="none"/><polygon points="3.8,46.6 6.3,46.183 6.3,47.017" fill="#000" stroke="none"/><polygon points="0.7,52.1 -1.8,52.517 -1.8,51.683" fill="#000" stroke="none"/><polygon points="4.1,52.1 6.6,51.683 6.6,52.517" fill="#000" stroke="none"/><polygon points="-7,6.15 -7.417,3.65 -6.583,3.65" fill="#000" stroke="none"/><polygon points="-7,9.35 -6.583,11.85 -7.417,11.85" fill="#000" stroke="none"/><polygon points="24.502,1 24.086,-1.5 24.919,-1.5" fill="#000" stroke="none"/><polygon points="24.502,1.15 24.919,3.65 24.086,3.65" fill="#000" stroke="none"/><polygon points="30.002,10.95 29.586,8.45 30.419,8.45" fill="#000" stroke="none"/><polygon points="30.002,11.1 30.419,13.6 29.586,13.6" fill="#000" stroke="none"/><polygon points="35.502,5.95 35.086,3.45 35.919,3.45" fill="#000" stroke="none"/><polygon points="35.502,6.15 35.919,8.65 35.086,8.65" fill="#000" stroke="none"/><polygon points="41.002,6.15 40.586,3.65 41.419,3.65" fill="#000" stroke="none"/><polygon points="41.002,9.15 41.419,11.65 40.586,11.65" fill="#000" stroke="none"/><polygon points="46.502,1.75 46.919,4.25 46.086,4.25" fill="#000" stroke="none"/><polygon points="46.502,10.35 46.086,7.85 46.919,7.85" fill="#000" stroke="none"/><polygon points="52.002,1.55 52.419,4.05 51.586,4.05" fill="#000" stroke="none"/><polygon points="52.002,10.55 51.586,8.05 52.419,8.05" fill="#000" stroke="none"/><polygon points="57.502,1.35 57.919,3.85 57.086,3.85" fill="#000" stroke="none"/><polygon points="57.502,10.75 57.086,8.25 57.919,8.25" fill="#000" stroke="none"/><polygon points="63.002,1 63.419,3.5 62.586,3.5" fill="#000" stroke="none"/><polygon points="63.002,10.95 62.586,8.45 63.419,8.45" fill="#000" stroke="none"/><polygon points="68.502,1.15 68.919,3.65 68.086,3.65" fill="#000" stroke="none"/><polygon points="68.502,11.1 68.086,8.6 68.919,8.6" fill="#000" stroke="none"/><polygon points="74.002,1 74.419,3.5 73.586,3.5" fill="#000" stroke="none"/><polygon points="74.002,11.1 73.586,8.6 74.419,8.6" fill="#000" stroke="none"/><polygon points="79.502,0.7 79.919,3.2 79.086,3.2" fill="#000" stroke="none"/><polygon points="79.502,11.4 79.086,8.9 79.919,8.9" fill="#000" stroke="none"/></g><g fill="#000" font-size="2.5" stroke="none"><text x="8.55" y="18.4" text-anchor="middle">2</text><text x="7.15" y="23.9" text-anchor="middle">2</text><text x="7.85" y="29.4" text-anchor="middle">2</text><text x="8.55" y="34.9" text-anchor="middle">7</text><text x="7.65" y="40.4" text-anchor="middle">7</text><text x="9.3" y="45.9" text-anchor="middle">16</text><text x="9.6" y="51.4" text-anchor="middle">34</text><text x="-7.7" y="0.65" text-anchor="middle" transform="rotate(-90 -7.7 0.65)">32</text><text x="23.802" y="-4.84" text-anchor="middle" transform="rotate(-90 23.802 -4.84)">1.5</text><text x="29.302" y="5.11" text-anchor="middle" transform="rotate(-90 29.302 5.11)">1.5</text><text x="34.802" y="1.2" text-anchor="middle" transform="rotate(-90 34.802 1.2)">2</text><text x="40.302" y="0.65" text-anchor="middle" transform="rotate(-90 40.302 0.65)">30</text><text x="45.802" y="6.05" text-anchor="middle" transform="rotate(-90 45.802 6.05)">86</text><text x="51.302" y="6.05" text-anchor="middle" transform="rotate(-90 51.302 6.05)">90</text><text x="56.802" y="6.05" text-anchor="middle" transform="rotate(-90 56.802 6.05)">94</text><text x="62.302" y="5.975" text-anchor="middle" transform="rotate(-90 62.302 5.975)">99.5</text><text x="67.802" y="6.125" text-anchor="middle" transform="rotate(-90 67.802 6.125)">99.5</text><text x="73.302" y="6.05" text-anchor="middle" transform="rotate(-90 73.302 6.05)">101</text><text x="78.802" y="6.05" text-anchor="middle" transform="rotate(-90 78.802 6.05)">107</text></g></g><g class="angle"><polyline points="1.592,3.45 1.953,3.499 2.312,3.564 2.667,3.646 3.019,3.743 3.365,3.857 3.706,3.986 4.041,4.131 4.369,4.291 4.689,4.466 5.001,4.655 5.304,4.858 5.598,5.074 5.881,5.304 6.153,5.547 6.415,5.801 6.664,6.068 6.901,6.345 7.125,6.633 7.335,6.931 7.532,7.238 7.715,7.554 7.883,7.877 8.036,8.208 8.174,8.546 8.296,8.89 8.402,9.239 8.493,9.592 8.567,9.949 8.625,10.309 8.667,10.671 8.692,11.035 8.7,11.4" fill="none" stroke="#000" stroke-width="0.25"/><polygon points="1.592,3.45 4.122,3.314 4.03,4.143" fill="#000" stroke="none"/><polygon points="8.7,11.4 8.283,8.9 9.117,8.9" fill="#000" stroke="none"/><rect x="4.759" y="3.235" width="7.35" height="2.625" fill="#fff" stroke="none"/><text x="8.434" y="5.36" font-size="2.5" text-anchor="middle" fill="#000">83.6°</text></g><g class="triad"><circle cx="-11.596" cy="59.933" r="0.35" fill="#000" stroke="none"/><line x1="-11.596" y1="59.933" x2="-7.396" y2="59.933" stroke="#000" stroke-width="0.25"/><polygon points="-7.396,59.933 -8.866,60.178 -8.866,59.688" fill="#000" stroke="none"/><text x="-6.096" y="60.668" font-size="2.1" text-anchor="start" font-style="italic">x</text><line x1="-11.596" y1="59.933" x2="-11.596" y2="55.733" stroke="#000" stroke-width="0.25"/><polygon points="-11.596,55.733 -11.351,57.203 -11.841,57.203" fill="#000" stroke="none"/><text x="-11.596" y="55.168" font-size="2.1" text-anchor="middle" font-style="italic">z</text></g><text x="-3.396" y="60.333" font-size="3" font-weight="600">Front view (xz)</text></g></g><g transform="translate(203.444 58.98)"><g class="view view-side"><g><polygon points="0.703,11.4 0.863,11.4 0.863,6.05 0.703,6.05" fill="#fff" stroke="none"/><polygon points="0.703,6.05 0.863,6.05 0.863,0.7 0.703,0.7" fill="#fff" stroke="none"/></g><path d="M0.703 6.545L0.863 6.385M0.703 7.535L0.863 7.375M0.703 8.525L0.863 8.365M0.703 9.515L0.863 9.355M0.703 10.505L0.863 10.345M0.798 11.4L0.863 11.335M0.703 1.195L0.863 1.035M0.703 2.185L0.863 2.025M0.703 3.175L0.863 3.015M0.703 4.165L0.863 4.005M0.703 5.155L0.863 4.995M0.798 6.05L0.863 5.985" fill="none" stroke="#000" stroke-width="0.18"/><g fill="none" stroke="#000" stroke-width="0.35"><polygon points="0.703,11.4 0.863,11.4 0.863,6.05 0.703,6.05"/><polygon points="0.703,6.05 0.863,6.05 0.863,0.7 0.703,0.7"/></g><g stroke-linejoin="round"><rect x="0.352" y="2.15" width="0.7" height="0.2" fill="#000" stroke="none"/><rect x="0.352" y="1.35" width="0.7" height="0.2" fill="#000" stroke="none"/><rect x="0.352" y="9.75" width="0.7" height="0.2" fill="#000" stroke="none"/><rect x="0.352" y="10.55" width="0.7" height="0.2" fill="#000" stroke="none"/><rect x="0.352" y="2.95" width="0.7" height="3" fill="#000" stroke="none"/><rect x="0.352" y="1.15" width="0.7" height="0.2" fill="#000" stroke="none"/><rect x="0.352" y="1" width="0.7" height="0.35" fill="#000" stroke="none"/><rect x="0.352" y="6.15" width="0.7" height="3" fill="#000" stroke="none"/><rect x="0.352" y="10.75" width="0.7" height="0.2" fill="#000" stroke="none"/><rect x="0.352" y="10.75" width="0.7" height="0.35" fill="#000" stroke="none"/><rect x="0.352" y="2.75" width="0.7" height="0.2" fill="#000" stroke="none"/><rect x="0.352" y="9.15" width="0.7" height="0.2" fill="#000" stroke="none"/><rect x="0.352" y="2.35" width="0.7" height="0.2" fill="#000" stroke="none"/><rect x="0.352" y="1.95" width="0.7" height="0.2" fill="#000" stroke="none"/><rect x="0.352" y="1.55" width="0.7" height="0.2" fill="#000" stroke="none"/><rect x="0.352" y="9.55" width="0.7" height="0.2" fill="#000" stroke="none"/><rect x="0.352" y="9.95" width="0.7" height="0.2" fill="#000" stroke="none"/><rect x="0.352" y="10.35" width="0.7" height="0.2" fill="#000" stroke="none"/><rect x="0.352" y="2.55" width="0.7" height="0.2" fill="#000" stroke="none"/><rect x="0.352" y="1.75" width="0.7" height="0.2" fill="#000" stroke="none"/><rect x="0.352" y="9.35" width="0.7" height="0.2" fill="#000" stroke="none"/><rect x="0.352" y="10.15" width="0.7" height="0.2" fill="#000" stroke="none"/></g><g stroke="#000" stroke-width="0.25" stroke-dasharray="6 1 0.5 1"><line x1="-2.3" y1="6.05" x2="3.864" y2="6.05"/></g><g class="ports"><line x1="0.703" y1="6.15" x2="0.703" y2="5.95" stroke="#000" stroke-width="0.25"/><g><circle cx="0.703" cy="6.05" r="1.3" fill="#fff" stroke="#000" stroke-width="0.3"/><path d="M-0.103 6.05Q0.3 5.075 0.703 6.05T1.51 6.05" fill="none" stroke="#000" stroke-width="0.3"/></g></g><g class="dimensions"><g stroke="#000" stroke-width="0.25" fill="none"><line x1="0.7" y1="11.9" x2="0.7" y2="20.6"/><line x1="0.703" y1="11.9" x2="0.703" y2="20.6"/><line x1="-3.3" y1="19.1" x2="11.384" y2="19.1"/><line x1="0.703" y1="12.2" x2="0.703" y2="26.1"/><line x1="0.863" y1="12.2" x2="0.863" y2="26.1"/><line x1="-3.296" y1="24.6" x2="8.544" y2="24.6"/></g><g><polygon points="0.7,19.1 -1.8,19.517 -1.8,18.683" fill="#000" stroke="none"/><polygon points="0.703,19.1 3.204,18.683 3.204,19.517" fill="#000" stroke="none"/><polygon points="0.703,24.6 -1.796,25.017 -1.796,24.183" fill="#000" stroke="none"/><polygon points="0.863,24.6 3.364,24.183 3.364,25.017" fill="#000" stroke="none"/></g><g fill="#000" font-size="2.5" stroke="none"><text x="8.044" y="18.4" text-anchor="middle">0.035</text><text x="6.704" y="23.9" text-anchor="middle">1.6</text></g></g><g class="triad"><circle cx="-13.112" cy="32.433" r="0.35" fill="#000" stroke="none"/><line x1="-13.112" y1="32.433" x2="-8.912" y2="32.433" stroke="#000" stroke-width="0.25"/><polygon points="-8.912,32.433 -10.382,32.678 -10.382,32.188" fill="#000" stroke="none"/><text x="-7.612" y="33.168" font-size="2.1" text-anchor="start" font-style="italic">y</text><line x1="-13.112" y1="32.433" x2="-13.112" y2="28.233" stroke="#000" stroke-width="0.25"/><polygon points="-13.112,28.233 -12.867,29.703 -13.357,29.703" fill="#000" stroke="none"/><text x="-13.112" y="27.668" font-size="2.1" text-anchor="middle" font-style="italic">z</text></g><text x="-4.912" y="32.833" font-size="3" font-weight="600">Right view (yz)</text></g></g><g font-size="2.25" fill="#000" class="notes"><text x="24" y="187.8" font-weight="600">NOTES</text><text x="24" y="190.95">1. All dimensions in mm.</text><text x="24" y="194.1">2. P1: lumped port, 50 Ω, along z, gap 2 mm, excited.</text></g><g class="title-block"><rect x="107" y="133.9" width="180" height="66.1" fill="#fff" stroke="#000" stroke-width="0.5"/><line x1="191" y1="133.9" x2="191" y2="176.5" stroke="#000" stroke-width="0.5"/><line x1="107" y1="176.5" x2="287" y2="176.5" stroke="#000" stroke-width="0.5"/><line x1="247" y1="176.5" x2="247" y2="185.5" stroke="#000" stroke-width="0.25"/><line x1="107" y1="185.5" x2="287" y2="185.5" stroke="#000" stroke-width="0.25"/><line x1="159" y1="185.5" x2="159" y2="192.75" stroke="#000" stroke-width="0.25"/><line x1="183" y1="185.5" x2="183" y2="192.75" stroke="#000" stroke-width="0.25"/><line x1="201" y1="185.5" x2="201" y2="192.75" stroke="#000" stroke-width="0.25"/><g><polygon points="244.756,187.675 248.744,188.581 248.744,190.394 244.756,191.3" fill="none" stroke="#000" stroke-width="0.25"/><circle cx="252.188" cy="189.488" r="1.813" fill="none" stroke="#000" stroke-width="0.25"/><circle cx="252.188" cy="189.488" r="0.906" fill="none" stroke="#000" stroke-width="0.25"/><line x1="243.756" y1="189.488" x2="255" y2="189.488" stroke="#000" stroke-width="0.125" stroke-dasharray="3 0.6 0.4 0.6"/></g><line x1="257" y1="185.5" x2="257" y2="192.75" stroke="#000" stroke-width="0.25"/><line x1="107" y1="192.75" x2="287" y2="192.75" stroke="#000" stroke-width="0.25"/><line x1="137" y1="192.75" x2="137" y2="200" stroke="#000" stroke-width="0.25"/><line x1="179" y1="192.75" x2="179" y2="200" stroke="#000" stroke-width="0.25"/><line x1="257" y1="192.75" x2="257" y2="200" stroke="#000" stroke-width="0.25"/><g stroke="#000" stroke-width="0.25"><line x1="107" y1="137.45" x2="287" y2="137.45" stroke-opacity="1"/><line x1="107" y1="141" x2="287" y2="141" stroke-opacity="0.35"/><line x1="107" y1="144.55" x2="287" y2="144.55" stroke-opacity="0.35"/><line x1="107" y1="148.1" x2="287" y2="148.1" stroke-opacity="0.35"/><line x1="107" y1="151.65" x2="287" y2="151.65" stroke-opacity="0.35"/><line x1="107" y1="155.2" x2="287" y2="155.2" stroke-opacity="0.35"/><line x1="107" y1="158.75" x2="287" y2="158.75" stroke-opacity="0.35"/><line x1="107" y1="162.3" x2="287" y2="162.3" stroke-opacity="0.35"/><line x1="107" y1="165.85" x2="287" y2="165.85" stroke-opacity="0.35"/><line x1="107" y1="169.4" x2="287" y2="169.4" stroke-opacity="0.35"/><line x1="107" y1="172.95" x2="287" y2="172.95" stroke-opacity="0.35"/><line x1="147" y1="133.9" x2="147" y2="176.5"/><line x1="169" y1="133.9" x2="169" y2="176.5"/><line x1="221" y1="133.9" x2="221" y2="176.5"/><line x1="251" y1="133.9" x2="251" y2="176.5"/><line x1="265" y1="133.9" x2="265" y2="176.5"/></g><g fill="#000"><text x="108.2" y="136.527" font-weight="600" font-size="1.9">Geometry parameter</text><text x="108.2" y="140.077" font-size="1.9">Trace width</text><text x="108.2" y="143.627" font-size="1.9">Feed gap (port length)</text><text x="108.2" y="147.177" font-size="1.872">Straight section from the gap to the meander</text><text x="108.2" y="150.727" font-size="1.9">Meander turns per arm</text><text x="108.2" y="154.277" font-size="1.9">Meander turn width (x)</text><text x="108.2" y="157.827" font-size="1.9">Meander turn pitch (z, two rungs)</text><text x="108.2" y="161.377" font-size="1.9">Straight end section at the tip</text><text x="108.2" y="164.927" font-size="1.9">FR-4 thickness</text><text x="108.2" y="168.477" font-size="1.9">Copper thickness (built as a sheet)</text><text x="108.2" y="172.027" font-size="1.9">Board margin around the copper</text><text x="108.2" y="175.577" font-size="1.618">Extra board chord forward at the root (blade sweep)</text><text x="148.2" y="136.527" font-weight="600" font-size="1.9">Key</text><text x="148.2" y="140.077" font-size="1.9">w</text><text x="148.2" y="143.627" font-size="1.9">g</text><text x="148.2" y="147.177" font-size="1.9">l_feed</text><text x="148.2" y="150.727" font-size="1.9">n</text><text x="148.2" y="154.277" font-size="1.9">a</text><text x="148.2" y="157.827" font-size="1.9">p</text><text x="148.2" y="161.377" font-size="1.9">l_end</text><text x="148.2" y="164.927" font-size="1.9">t</text><text x="148.2" y="168.477" font-size="1.9">t_cu</text><text x="148.2" y="172.027" font-size="1.9">m</text><text x="148.2" y="175.577" font-size="1.9">sweep</text><text x="170.2" y="136.527" font-weight="600" font-size="1.9">Value</text><text x="189.8" y="140.077" text-anchor="end" font-size="1.9">2 mm</text><text x="189.8" y="143.627" text-anchor="end" font-size="1.9">2 mm</text><text x="189.8" y="147.177" text-anchor="end" font-size="1.9">30 mm</text><text x="189.8" y="150.727" text-anchor="end" font-size="1.9">2</text><text x="189.8" y="154.277" text-anchor="end" font-size="1.9">16 mm</text><text x="189.8" y="157.827" text-anchor="end" font-size="1.9">8 mm</text><text x="189.8" y="161.377" text-anchor="end" font-size="1.9">1.5 mm</text><text x="189.8" y="164.927" text-anchor="end" font-size="1.9">1.6 mm</text><text x="189.8" y="168.477" text-anchor="end" font-size="1.9">0.035 mm</text><text x="189.8" y="172.027" text-anchor="end" font-size="1.9">3 mm</text><text x="189.8" y="175.577" text-anchor="end" font-size="1.9">12 mm</text><text x="192.2" y="136.527" font-weight="600" font-size="1.9">Part</text><text x="192.2" y="140.077" font-size="1.9">board</text><text x="192.2" y="143.627" font-size="1.9">arm_feed_and_tip</text><text x="192.2" y="147.177" font-size="1.9">arm_rungs</text><text x="192.2" y="150.727" font-size="1.9">arm_links_aft</text><text x="192.2" y="154.277" font-size="1.9">arm_links_fwd</text><text x="222.2" y="136.527" font-weight="600" font-size="1.9">Material</text><text x="222.2" y="140.077" font-size="1.9">Dielectric</text><text x="222.2" y="143.627" font-size="1.9">PEC</text><text x="222.2" y="147.177" font-size="1.9">PEC</text><text x="222.2" y="150.727" font-size="1.9">PEC</text><text x="222.2" y="154.277" font-size="1.9">PEC</text><text x="252.2" y="136.527" font-weight="600" font-size="1.9">εr</text><text x="263.8" y="140.077" text-anchor="end" font-size="1.9">4.3</text><text x="263.8" y="143.627" text-anchor="end" font-size="1.9">—</text><text x="263.8" y="147.177" text-anchor="end" font-size="1.9">—</text><text x="263.8" y="150.727" text-anchor="end" font-size="1.9">—</text><text x="263.8" y="154.277" text-anchor="end" font-size="1.9">—</text><text x="266.2" y="136.527" font-weight="600" font-size="1.9">tan δ</text><text x="266.2" y="140.077" font-size="1.9">0.02 @ 0.867 GHz</text><text x="266.2" y="143.627" font-size="1.9">—</text><text x="266.2" y="147.177" font-size="1.9">—</text><text x="266.2" y="150.727" font-size="1.9">—</text><text x="266.2" y="154.277" font-size="1.9">—</text><text x="108.2" y="179" font-size="1.7" fill="#444">Title</text><text x="108.2" y="183.9" font-size="3.5" font-weight="600">Printed meander dipole (867 MHz)</text><text x="248.2" y="179" font-size="1.7" fill="#444">Sheet</text><text x="248.2" y="184.4" font-size="2.5">1 / 1</text><text x="108.2" y="188" font-size="1.7" fill="#444">Model</text><text x="108.2" y="191.65" font-size="2.5">meander-dipole-867</text><text x="160.2" y="188" font-size="1.7" fill="#444">Scale</text><text x="160.2" y="191.65" font-size="2.5">1:10</text><text x="184.2" y="188" font-size="1.7" fill="#444">Units</text><text x="184.2" y="191.65" font-size="2.5">mm</text><text x="202.2" y="188" font-size="1.7" fill="#444">Projection: third angle</text><text x="258.2" y="188" font-size="1.7" fill="#444">Size</text><text x="258.2" y="191.65" font-size="2.5">A4</text><text x="108.2" y="195.25" font-size="1.7" fill="#444">Date</text><text x="108.2" y="198.9" font-size="2.5">2026-10-03</text><text x="138.2" y="195.25" font-size="1.7" fill="#444">Generator</text><text x="138.2" y="198.9" font-size="2.5">Fairbeam 0.7.0</text><text x="180.2" y="195.25" font-size="1.7" fill="#444">Solver</text><text x="180.2" y="198.9" font-size="2.5">openEMS 0.37.0b1 · FDTD</text><text x="258.2" y="195.25" font-size="1.7" fill="#444">Drawing no.</text><text x="258.2" y="198.9" font-size="2.243">MEANDER-DIPOLE-867-01</text></g></g></svg>
