<?xml version="1.0" encoding="UTF-8"?>
<svg xmlns="http://www.w3.org/2000/svg" version="1.1" width="160mm" height="132.917mm" viewBox="0 0 160 132.917" font-family="'IBM Plex Sans', Helvetica, Arial, sans-serif"><title>Microstrip line (50 ohm, two-port) — technical drawing</title><desc>Microstrip line (50 ohm, two-port) (microstrip-line) · Fairbeam 0.7.0 · third-angle projection</desc><rect x="0" y="0" width="160" height="132.917" fill="#fff" stroke="none"/><g transform="translate(2.5 18)"><g class="view view-top"><g><polygon points="0.7,32.28 63.86,32.28 63.86,0.7 0.7,0.7" fill="#fff" stroke="none"/></g><g fill="none" stroke="#000" stroke-width="0.35"><polygon points="0.7,32.28 63.86,32.28 63.86,0.7 0.7,0.7"/></g><g stroke-linejoin="round"><polygon points="0.7,17.989 63.86,17.989 63.86,14.992 0.7,14.992" fill="#d9d9d9" stroke="#000" stroke-width="0.5"/></g><g stroke="#000" stroke-width="0.25" stroke-dasharray="6 1 0.5 1"><line x1="32.28" y1="-2.3" x2="32.28" y2="35.28"/><line x1="-2.3" y1="16.49" x2="66.86" y2="16.49"/></g><g class="ports"><line x1="0.7" y1="17.989" x2="0.7" y2="14.992" stroke="#000" stroke-width="0.25"/><g><circle cx="0.7" cy="16.49" r="1.3" fill="#fff" stroke="#000" stroke-width="0.3"/><path d="M-0.106 16.49Q0.297 15.515 0.7 16.49T1.506 16.49" fill="none" stroke="#000" stroke-width="0.3"/></g><line x1="63.86" y1="17.989" x2="63.86" y2="14.992" stroke="#000" stroke-width="0.25"/><g><circle cx="63.86" cy="16.49" r="1.3" fill="#fff" stroke="#000" stroke-width="0.3"/><path d="M63.054 16.49Q63.457 15.515 63.86 16.49T64.666 16.49" fill="none" stroke="#000" stroke-width="0.3"/></g></g><g class="dimensions"><g stroke="#000" stroke-width="0.25" fill="none"><line x1="32.28" y1="-0.8" x2="32.28" y2="-8.5"/><line x1="63.86" y1="15.69" x2="63.86" y2="-8.5"/><line x1="32.28" y1="-7" x2="63.86" y2="-7"/><line x1="0.7" y1="15.69" x2="0.7" y2="-14"/><line x1="32.28" y1="-0.8" x2="32.28" y2="-14"/><line x1="0.7" y1="-12.5" x2="32.28" y2="-12.5"/><line x1="0.7" y1="33.08" x2="0.7" y2="41.48"/><line x1="63.86" y1="33.08" x2="63.86" y2="41.48"/><line x1="0.7" y1="39.98" x2="63.86" y2="39.98"/><line x1="64.66" y1="14.992" x2="73.06" y2="14.992"/><line x1="64.66" y1="17.989" x2="73.06" y2="17.989"/><line x1="71.56" y1="4.312" x2="71.56" y2="21.989"/><line x1="64.66" y1="0.7" x2="78.56" y2="0.7"/><line x1="64.66" y1="32.28" x2="78.56" y2="32.28"/><line x1="77.06" y1="0.7" x2="77.06" y2="32.28"/></g><g><polygon points="32.28,-7 34.78,-7.417 34.78,-6.583" fill="#000" stroke="none"/><polygon points="63.86,-7 61.36,-6.583 61.36,-7.417" fill="#000" stroke="none"/><polygon points="0.7,-12.5 3.2,-12.917 3.2,-12.083" fill="#000" stroke="none"/><polygon points="32.28,-12.5 29.78,-12.083 29.78,-12.917" fill="#000" stroke="none"/><polygon points="0.7,39.98 3.2,39.563 3.2,40.397" fill="#000" stroke="none"/><polygon points="63.86,39.98 61.36,40.397 61.36,39.563" fill="#000" stroke="none"/><polygon points="71.56,14.992 71.144,12.492 71.977,12.492" fill="#000" stroke="none"/><polygon points="71.56,17.989 71.977,20.489 71.144,20.489" fill="#000" stroke="none"/><polygon points="77.06,0.7 77.477,3.2 76.644,3.2" fill="#000" stroke="none"/><polygon points="77.06,32.28 76.644,29.78 77.477,29.78" fill="#000" stroke="none"/></g><g fill="#000" font-size="2.5" stroke="none"><text x="48.07" y="-7.7" text-anchor="middle">board_w = 20</text><text x="16.49" y="-13.2" text-anchor="middle">board_w = 20</text><text x="32.28" y="39.28" text-anchor="middle">length = 40</text><text x="70.86" y="7.652" text-anchor="middle" transform="rotate(-90 70.86 7.652)">1.898</text><text x="76.36" y="16.49" text-anchor="middle" transform="rotate(-90 76.36 16.49)">board_w = 20</text></g></g><g class="triad"><circle cx="17.176" cy="47.813" r="0.35" fill="#000" stroke="none"/><line x1="17.176" y1="47.813" x2="21.376" y2="47.813" stroke="#000" stroke-width="0.25"/><polygon points="21.376,47.813 19.906,48.058 19.906,47.568" fill="#000" stroke="none"/><text x="22.676" y="48.548" font-size="2.1" text-anchor="start" font-style="italic">x</text><line x1="17.176" y1="47.813" x2="17.176" y2="43.613" stroke="#000" stroke-width="0.25"/><polygon points="17.176,43.613 17.421,45.083 16.931,45.083" fill="#000" stroke="none"/><text x="17.176" y="43.048" font-size="2.1" text-anchor="middle" font-style="italic">y</text></g><text x="25.376" y="48.213" font-size="3" font-weight="600">(a) Top view (xy)</text></g></g><g transform="translate(97.996 22.358)"><g class="view view-iso"><polygon points="0.7,12.791 39.436,35.156 58.804,23.973 20.068,1.609" fill="#d9d9d9" stroke="#000" stroke-width="0.35" stroke-linejoin="round"/><polygon points="0.7,11.882 39.436,34.246 58.804,23.064 20.068,0.7" fill="#fff" stroke="#000" stroke-width="0.25" stroke-linejoin="round"/><polygon points="9.465,6.822 48.201,29.186 50.039,28.125 11.303,5.76" fill="#d9d9d9" stroke="#000" stroke-width="0.35" stroke-linejoin="round"/><polygon points="0.7,12.791 39.436,35.156 39.436,34.246 0.7,11.882" fill="#fff" stroke="#000" stroke-width="0.25" stroke-linejoin="round"/><polygon points="39.436,35.156 58.804,23.973 58.804,23.064 39.436,34.246" fill="#fff" stroke="#000" stroke-width="0.25" stroke-linejoin="round"/><line x1="9.465" y1="7.731" x2="11.303" y2="5.76" stroke="#000" stroke-width="0.25"/><g><circle cx="10.384" cy="6.746" r="1.105" fill="#fff" stroke="#000" stroke-width="0.3"/><path d="M9.699 6.746Q10.041 5.917 10.384 6.746T11.069 6.746" fill="none" stroke="#000" stroke-width="0.3"/></g><text x="12.484" y="7.481" font-size="2.1">P1</text><line x1="48.201" y1="30.095" x2="50.039" y2="28.125" stroke="#000" stroke-width="0.25"/><g><circle cx="49.12" cy="29.11" r="1.105" fill="#fff" stroke="#000" stroke-width="0.3"/><path d="M48.435 29.11Q48.778 28.281 49.12 29.11T49.805 29.11" fill="none" stroke="#000" stroke-width="0.3"/></g><text x="51.22" y="29.845" font-size="2.1">P2</text><g class="triad"><circle cx="15.337" cy="42.656" r="0.35" fill="#000" stroke="none"/><line x1="15.337" y1="42.656" x2="18.282" y2="44.356" stroke="#000" stroke-width="0.25"/><polygon points="18.282,44.356 17.152,43.932 17.35,43.589" fill="#000" stroke="none"/><text x="19.407" y="45.741" font-size="2.1" text-anchor="start" font-style="italic">x</text><line x1="15.337" y1="42.656" x2="18.282" y2="40.956" stroke="#000" stroke-width="0.25"/><polygon points="18.282,40.956 17.35,41.722 17.152,41.379" fill="#000" stroke="none"/><text x="19.407" y="41.041" font-size="2.1" text-anchor="start" font-style="italic">y</text><line x1="15.337" y1="42.656" x2="15.337" y2="39.256" stroke="#000" stroke-width="0.25"/><polygon points="15.337,39.256 15.535,40.446 15.139,40.446" fill="#000" stroke="none"/><text x="15.337" y="38.691" font-size="2.1" text-anchor="middle" font-style="italic">z</text></g><text x="22.137" y="43.856" font-size="3" font-weight="600">(b) Isometric view</text></g></g><g transform="translate(2.5 95.993)"><g class="view view-front"><g><polygon points="0.7,1.984 63.86,1.984 63.86,0.7 0.7,0.7" fill="#fff" stroke="none"/></g><path d="M0.7 1.195L1.195 0.7M0.901 1.984L2.185 0.7M1.891 1.984L3.175 0.7M2.881 1.984L4.165 0.7M3.871 1.984L5.155 0.7M4.861 1.984L6.145 0.7M5.851 1.984L7.135 0.7M6.841 1.984L8.125 0.7M7.831 1.984L9.115 0.7M8.821 1.984L10.105 0.7M9.811 1.984L11.094 0.7M10.801 1.984L12.084 0.7M11.791 1.984L13.074 0.7M12.781 1.984L14.064 0.7M13.771 1.984L15.054 0.7M14.76 1.984L16.044 0.7M15.75 1.984L17.034 0.7M16.74 1.984L18.024 0.7M17.73 1.984L19.014 0.7M18.72 1.984L20.004 0.7M19.71 1.984L20.994 0.7M20.7 1.984L21.984 0.7M21.69 1.984L22.974 0.7M22.68 1.984L23.964 0.7M23.67 1.984L24.954 0.7M24.66 1.984L25.944 0.7M25.65 1.984L26.934 0.7M26.64 1.984L27.924 0.7M27.63 1.984L28.914 0.7M28.62 1.984L29.904 0.7M29.61 1.984L30.893 0.7M30.6 1.984L31.883 0.7M31.59 1.984L32.873 0.7M32.58 1.984L33.863 0.7M33.57 1.984L34.853 0.7M34.559 1.984L35.843 0.7M35.549 1.984L36.833 0.7M36.539 1.984L37.823 0.7M37.529 1.984L38.813 0.7M38.519 1.984L39.803 0.7M39.509 1.984L40.793 0.7M40.499 1.984L41.783 0.7M41.489 1.984L42.773 0.7M42.479 1.984L43.763 0.7M43.469 1.984L44.753 0.7M44.459 1.984L45.743 0.7M45.449 1.984L46.733 0.7M46.439 1.984L47.723 0.7M47.429 1.984L48.713 0.7M48.419 1.984L49.702 0.7M49.409 1.984L50.692 0.7M50.399 1.984L51.682 0.7M51.389 1.984L52.672 0.7M52.379 1.984L53.662 0.7M53.369 1.984L54.652 0.7M54.358 1.984L55.642 0.7M55.348 1.984L56.632 0.7M56.338 1.984L57.622 0.7M57.328 1.984L58.612 0.7M58.318 1.984L59.602 0.7M59.308 1.984L60.592 0.7M60.298 1.984L61.582 0.7M61.288 1.984L62.572 0.7M62.278 1.984L63.562 0.7M63.268 1.984L63.86 1.391" fill="none" stroke="#000" stroke-width="0.18"/><g fill="none" stroke="#000" stroke-width="0.35"><polygon points="0.7,1.984 63.86,1.984 63.86,0.7 0.7,0.7"/></g><g stroke-linejoin="round"><rect x="0.7" y="0" width="63.16" height="0.7" fill="#000" stroke="none"/><rect x="0.7" y="1.984" width="63.16" height="0.7" fill="#000" stroke="none"/></g><g stroke="#000" stroke-width="0.25" stroke-dasharray="6 1 0.5 1"><line x1="32.28" y1="-2.3" x2="32.28" y2="4.984"/></g><g class="ports"><line x1="0.7" y1="1.984" x2="0.7" y2="0.7" stroke="#000" stroke-width="0.25"/><g><circle cx="0.7" cy="1.342" r="1.3" fill="#fff" stroke="#000" stroke-width="0.3"/><path d="M-0.106 1.342Q0.297 0.367 0.7 1.342T1.506 1.342" fill="none" stroke="#000" stroke-width="0.3"/></g><line x1="63.86" y1="1.984" x2="63.86" y2="0.7" stroke="#000" stroke-width="0.25"/><g><circle cx="63.86" cy="1.342" r="1.3" fill="#fff" stroke="#000" stroke-width="0.3"/><path d="M63.054 1.342Q63.457 0.367 63.86 1.342T64.666 1.342" fill="none" stroke="#000" stroke-width="0.3"/></g><g><polyline points="1.619,0.423 5.155,-3.113 14.202,-3.113" fill="none" stroke="#000" stroke-width="0.25"/><rect x="5.155" y="-5.108" width="9.047" height="1.795" fill="#fff" stroke="none" fill-opacity="0.85"/><text x="5.755" y="-3.713" font-size="2.1" text-anchor="start">P1 50 Ω</text></g><g><polyline points="64.779,0.423 68.315,-3.113 77.362,-3.113" fill="none" stroke="#000" stroke-width="0.25"/><rect x="68.315" y="-5.108" width="9.047" height="1.795" fill="#fff" stroke="none" fill-opacity="0.85"/><text x="68.915" y="-3.713" font-size="2.1" text-anchor="start">P2 50 Ω</text></g></g><g class="dimensions"><g stroke="#000" stroke-width="0.25" fill="none"><line x1="64.66" y1="0.7" x2="86.862" y2="0.7"/><line x1="64.66" y1="1.984" x2="86.862" y2="1.984"/><line x1="85.362" y1="-19.58" x2="85.362" y2="5.984"/></g><g><polygon points="85.362,0.7 84.946,-1.8 85.779,-1.8" fill="#000" stroke="none"/><polygon points="85.362,1.984 85.779,4.484 84.946,4.484" fill="#000" stroke="none"/></g><g fill="#000" font-size="2.5" stroke="none"><text x="84.662" y="-11.44" text-anchor="middle" transform="rotate(-90 84.662 -11.44)">sub_h = 0.813</text></g></g><g class="triad"><circle cx="16.15" cy="11.884" r="0.35" fill="#000" stroke="none"/><line x1="16.15" y1="11.884" x2="20.35" y2="11.884" stroke="#000" stroke-width="0.25"/><polygon points="20.35,11.884 18.88,12.129 18.88,11.639" fill="#000" stroke="none"/><text x="21.65" y="12.619" font-size="2.1" text-anchor="start" font-style="italic">x</text><line x1="16.15" y1="11.884" x2="16.15" y2="7.684" stroke="#000" stroke-width="0.25"/><polygon points="16.15,7.684 16.395,9.154 15.905,9.154" fill="#000" stroke="none"/><text x="16.15" y="7.119" font-size="2.1" text-anchor="middle" font-style="italic">z</text></g><text x="24.35" y="12.284" font-size="3" font-weight="600">(c) Front view (xz)</text></g></g><g transform="translate(97.996 95.993)"><g class="view view-side"><g><polygon points="0.7,1.984 32.28,1.984 32.28,0.7 0.7,0.7" fill="#fff" stroke="none"/></g><path d="M0.7 1.195L1.195 0.7M0.901 1.984L2.185 0.7M1.891 1.984L3.175 0.7M2.881 1.984L4.165 0.7M3.871 1.984L5.155 0.7M4.861 1.984L6.145 0.7M5.851 1.984L7.135 0.7M6.841 1.984L8.125 0.7M7.831 1.984L9.115 0.7M8.821 1.984L10.105 0.7M9.811 1.984L11.094 0.7M10.801 1.984L12.084 0.7M11.791 1.984L13.074 0.7M12.781 1.984L14.064 0.7M13.771 1.984L15.054 0.7M14.76 1.984L16.044 0.7M15.75 1.984L17.034 0.7M16.74 1.984L18.024 0.7M17.73 1.984L19.014 0.7M18.72 1.984L20.004 0.7M19.71 1.984L20.994 0.7M20.7 1.984L21.984 0.7M21.69 1.984L22.974 0.7M22.68 1.984L23.964 0.7M23.67 1.984L24.954 0.7M24.66 1.984L25.944 0.7M25.65 1.984L26.934 0.7M26.64 1.984L27.924 0.7M27.63 1.984L28.914 0.7M28.62 1.984L29.904 0.7M29.61 1.984L30.893 0.7M30.6 1.984L31.883 0.7M31.59 1.984L32.28 1.293" fill="none" stroke="#000" stroke-width="0.18"/><g fill="none" stroke="#000" stroke-width="0.35"><polygon points="0.7,1.984 32.28,1.984 32.28,0.7 0.7,0.7"/></g><g stroke-linejoin="round"><rect x="0.7" y="1.984" width="31.58" height="0.7" fill="#000" stroke="none"/><rect x="14.992" y="0" width="2.997" height="0.7" fill="#000" stroke="none"/></g><g stroke="#000" stroke-width="0.25" stroke-dasharray="6 1 0.5 1"><line x1="16.49" y1="-2.3" x2="16.49" y2="4.984"/></g><g class="ports"><line x1="14.992" y1="1.984" x2="17.989" y2="0.7" stroke="#000" stroke-width="0.25"/><g><circle cx="16.49" cy="1.342" r="1.3" fill="#fff" stroke="#000" stroke-width="0.3"/><path d="M15.684 1.342Q16.087 0.367 16.49 1.342T17.296 1.342" fill="none" stroke="#000" stroke-width="0.3"/></g><line x1="14.992" y1="1.984" x2="17.989" y2="0.7" stroke="#000" stroke-width="0.25"/><g><circle cx="16.49" cy="1.342" r="1.3" fill="#fff" stroke="#000" stroke-width="0.3"/><path d="M15.684 1.342Q16.087 0.367 16.49 1.342T17.296 1.342" fill="none" stroke="#000" stroke-width="0.3"/></g></g><g class="triad"><circle cx="0.331" cy="8.884" r="0.35" fill="#000" stroke="none"/><line x1="0.331" y1="8.884" x2="4.531" y2="8.884" stroke="#000" stroke-width="0.25"/><polygon points="4.531,8.884 3.061,9.129 3.061,8.639" fill="#000" stroke="none"/><text x="5.831" y="9.619" font-size="2.1" text-anchor="start" font-style="italic">y</text><line x1="0.331" y1="8.884" x2="0.331" y2="4.684" stroke="#000" stroke-width="0.25"/><polygon points="0.331,4.684 0.576,6.154 0.086,6.154" fill="#000" stroke="none"/><text x="0.331" y="4.119" font-size="2.1" text-anchor="middle" font-style="italic">z</text></g><text x="8.531" y="9.284" font-size="3" font-weight="600">(d) Right view (yz)</text></g></g><g font-size="2.1" fill="#000" class="notes"><text x="2" y="114.377" font-weight="600">NOTES</text><text x="2" y="117.317">1. All dimensions in mm.</text><text x="2" y="120.257">2. Ground plane = Substrate outline (40 × 20).</text><text x="2" y="123.197">3. Metal parts are PEC; zero-thickness sheets are drawn with a minimum line width (solid black when seen edge-on).</text><text x="2" y="126.137">4. P1: lumped port, 50 Ω, along z, gap 1.898 mm, excited.</text><text x="2" y="129.077">5. P2: lumped port, 50 Ω, along z, gap 1.898 mm.</text></g></svg>
