<?xml version="1.0" encoding="UTF-8"?>
<svg xmlns="http://www.w3.org/2000/svg" version="1.1" width="160mm" height="174.805mm" viewBox="0 0 160 174.805" font-family="'IBM Plex Sans', Helvetica, Arial, sans-serif"><title>Sierpinski gasket monopole · iterations=3 — technical drawing</title><desc>Sierpinski gasket monopole · iterations=3 (sierpinski-monopole) · Fairbeam 0.1.0 · third-angle projection</desc><rect x="0" y="0" width="160" height="174.805" fill="#fff" stroke="none"/><g transform="translate(6 56.794)"><g class="view view-top"><g></g><g fill="none" stroke="#000" stroke-width="0.35"></g><g stroke-linejoin="round"><rect x="31.573" y="0.35" width="1.835" height="0.7" fill="#000" stroke="none"/><rect x="28.517" y="0.35" width="7.948" height="0.7" fill="#000" stroke="none"/><rect x="28.12" y="0.35" width="1.086" height="0.7" fill="#000" stroke="none"/><rect x="35.777" y="0.35" width="1.086" height="0.7" fill="#000" stroke="none"/><rect x="24.543" y="0.35" width="7.948" height="0.7" fill="#000" stroke="none"/><rect x="32.491" y="0.35" width="7.948" height="0.7" fill="#000" stroke="none"/><rect x="24.146" y="0.35" width="1.086" height="0.7" fill="#000" stroke="none"/><rect x="31.803" y="0.35" width="1.377" height="0.7" fill="#000" stroke="none"/><rect x="39.751" y="0.35" width="1.086" height="0.7" fill="#000" stroke="none"/><rect x="20.57" y="0.35" width="7.948" height="0.7" fill="#000" stroke="none"/><rect x="36.465" y="0.35" width="7.948" height="0.7" fill="#000" stroke="none"/><rect x="20.172" y="0.35" width="1.086" height="0.7" fill="#000" stroke="none"/><rect x="27.829" y="0.35" width="1.377" height="0.7" fill="#000" stroke="none"/><rect x="35.777" y="0.35" width="1.377" height="0.7" fill="#000" stroke="none"/><rect x="43.725" y="0.35" width="1.086" height="0.7" fill="#000" stroke="none"/><rect x="16.596" y="0.35" width="7.948" height="0.7" fill="#000" stroke="none"/><rect x="24.543" y="0.35" width="7.948" height="0.7" fill="#000" stroke="none"/><rect x="32.491" y="0.35" width="7.948" height="0.7" fill="#000" stroke="none"/><rect x="40.439" y="0.35" width="7.948" height="0.7" fill="#000" stroke="none"/><rect x="16.198" y="0.35" width="1.086" height="0.7" fill="#000" stroke="none"/><rect x="23.855" y="0.35" width="1.377" height="0.7" fill="#000" stroke="none"/><rect x="31.803" y="0.35" width="1.377" height="0.7" fill="#000" stroke="none"/><rect x="39.751" y="0.35" width="1.377" height="0.7" fill="#000" stroke="none"/><rect x="47.699" y="0.35" width="1.086" height="0.7" fill="#000" stroke="none"/><rect x="12.622" y="0.35" width="7.948" height="0.7" fill="#000" stroke="none"/><rect x="44.413" y="0.35" width="7.948" height="0.7" fill="#000" stroke="none"/><rect x="12.224" y="0.35" width="1.086" height="0.7" fill="#000" stroke="none"/><rect x="19.881" y="0.35" width="1.377" height="0.7" fill="#000" stroke="none"/><rect x="43.725" y="0.35" width="1.377" height="0.7" fill="#000" stroke="none"/><rect x="51.672" y="0.35" width="1.086" height="0.7" fill="#000" stroke="none"/><rect x="8.648" y="0.35" width="7.948" height="0.7" fill="#000" stroke="none"/><rect x="16.596" y="0.35" width="7.948" height="0.7" fill="#000" stroke="none"/><rect x="40.439" y="0.35" width="7.948" height="0.7" fill="#000" stroke="none"/><rect x="48.387" y="0.35" width="7.948" height="0.7" fill="#000" stroke="none"/><rect x="8.25" y="0.35" width="1.086" height="0.7" fill="#000" stroke="none"/><rect x="15.907" y="0.35" width="1.377" height="0.7" fill="#000" stroke="none"/><rect x="23.855" y="0.35" width="1.377" height="0.7" fill="#000" stroke="none"/><rect x="39.751" y="0.35" width="1.377" height="0.7" fill="#000" stroke="none"/><rect x="47.699" y="0.35" width="1.377" height="0.7" fill="#000" stroke="none"/><rect x="55.646" y="0.35" width="1.086" height="0.7" fill="#000" stroke="none"/><rect x="4.674" y="0.35" width="7.948" height="0.7" fill="#000" stroke="none"/><rect x="20.57" y="0.35" width="7.948" height="0.7" fill="#000" stroke="none"/><rect x="36.465" y="0.35" width="7.948" height="0.7" fill="#000" stroke="none"/><rect x="52.361" y="0.35" width="7.948" height="0.7" fill="#000" stroke="none"/><rect x="4.277" y="0.35" width="1.086" height="0.7" fill="#000" stroke="none"/><rect x="11.933" y="0.35" width="1.377" height="0.7" fill="#000" stroke="none"/><rect x="19.881" y="0.35" width="1.377" height="0.7" fill="#000" stroke="none"/><rect x="27.829" y="0.35" width="1.377" height="0.7" fill="#000" stroke="none"/><rect x="35.777" y="0.35" width="1.377" height="0.7" fill="#000" stroke="none"/><rect x="43.725" y="0.35" width="1.377" height="0.7" fill="#000" stroke="none"/><rect x="51.672" y="0.35" width="1.377" height="0.7" fill="#000" stroke="none"/><rect x="59.62" y="0.35" width="1.086" height="0.7" fill="#000" stroke="none"/><rect x="0.7" y="0.35" width="7.948" height="0.7" fill="#000" stroke="none"/><rect x="8.648" y="0.35" width="7.948" height="0.7" fill="#000" stroke="none"/><rect x="16.596" y="0.35" width="7.948" height="0.7" fill="#000" stroke="none"/><rect x="24.543" y="0.35" width="7.948" height="0.7" fill="#000" stroke="none"/><rect x="32.491" y="0.35" width="7.948" height="0.7" fill="#000" stroke="none"/><rect x="40.439" y="0.35" width="7.948" height="0.7" fill="#000" stroke="none"/><rect x="48.387" y="0.35" width="7.948" height="0.7" fill="#000" stroke="none"/><rect x="56.335" y="0.35" width="7.948" height="0.7" fill="#000" stroke="none"/><rect x="7.96" y="0.35" width="1.377" height="0.7" fill="#000" stroke="none"/><rect x="15.907" y="0.35" width="1.377" height="0.7" fill="#000" stroke="none"/><rect x="23.855" y="0.35" width="1.377" height="0.7" fill="#000" stroke="none"/><rect x="31.803" y="0.35" width="1.377" height="0.7" fill="#000" stroke="none"/><rect x="39.751" y="0.35" width="1.377" height="0.7" fill="#000" stroke="none"/><rect x="47.699" y="0.35" width="1.377" height="0.7" fill="#000" stroke="none"/><rect x="55.646" y="0.35" width="1.377" height="0.7" fill="#000" stroke="none"/></g><g stroke="#000" stroke-width="0.25" stroke-dasharray="6 1 0.5 1"><line x1="32.491" y1="-2.3" x2="32.491" y2="3.7"/></g><g class="ports"><g><circle cx="32.491" cy="0.7" r="1.3" fill="#fff" stroke="#000" stroke-width="0.3"/><path d="M31.685 0.7Q32.088 -0.275 32.491 0.7T33.297 0.7" fill="none" stroke="#000" stroke-width="0.3"/></g></g><g class="triad"><circle cx="17.387" cy="7.6" r="0.35" fill="#000" stroke="none"/><line x1="17.387" y1="7.6" x2="21.587" y2="7.6" stroke="#000" stroke-width="0.25"/><polygon points="21.587,7.6 20.117,7.845 20.117,7.355" fill="#000" stroke="none"/><text x="22.887" y="8.335" font-size="2.1" text-anchor="start" font-style="italic">x</text><line x1="17.387" y1="7.6" x2="17.387" y2="3.4" stroke="#000" stroke-width="0.25"/><polygon points="17.387,3.4 17.632,4.87 17.142,4.87" fill="#000" stroke="none"/><text x="17.387" y="2.835" font-size="2.1" text-anchor="middle" font-style="italic">y</text></g><text x="25.587" y="8" font-size="3" font-weight="600">(a) Top view (xy)</text></g></g><g transform="translate(97.616 3)"><g class="view view-iso"><polygon points="0.7,32.611 29.942,49.494 59.184,32.611 29.942,15.728" fill="#f0f0f0" stroke="#000" stroke-width="0.25"/><text x="29.942" y="52.594" font-size="2.1" fill="#000" text-anchor="middle">PEC ground (infinite)</text><polygon points="29.59,31.9 30.294,32.306 30.294,31.494 29.59,31.088" fill="#d9d9d9" stroke="#000" stroke-width="0.25" stroke-linejoin="round"/><polygon points="28.683,28.025 28.267,27.785 28.571,28.57 28.683,28.635" fill="#d9d9d9" stroke="#000" stroke-width="0.25" stroke-linejoin="round"/><polygon points="29.942,32.103 28.419,28.178 31.465,29.936" fill="#d9d9d9" stroke="#000" stroke-width="0.25" stroke-linejoin="round"/><polygon points="27.16,24.1 26.744,23.86 27.048,24.645 27.16,24.709" fill="#d9d9d9" stroke="#000" stroke-width="0.25" stroke-linejoin="round"/><polygon points="28.419,28.178 26.896,24.252 29.942,26.011" fill="#d9d9d9" stroke="#000" stroke-width="0.25" stroke-linejoin="round"/><polygon points="25.637,20.175 25.221,19.934 25.525,20.719 25.637,20.784" fill="#d9d9d9" stroke="#000" stroke-width="0.25" stroke-linejoin="round"/><polygon points="26.896,24.252 25.373,20.327 28.419,22.086" fill="#d9d9d9" stroke="#000" stroke-width="0.25" stroke-linejoin="round"/><polygon points="31.617,29.72 31.201,29.479 31.201,30.089 31.313,30.153" fill="#d9d9d9" stroke="#000" stroke-width="0.25" stroke-linejoin="round"/><polygon points="24.114,16.249 23.698,16.009 24.002,16.794 24.114,16.858" fill="#d9d9d9" stroke="#000" stroke-width="0.25" stroke-linejoin="round"/><polygon points="25.373,20.327 23.85,16.401 26.896,18.16" fill="#d9d9d9" stroke="#000" stroke-width="0.25" stroke-linejoin="round"/><polygon points="29.678,25.554 29.678,26.163 30.206,26.468 30.206,25.859" fill="#d9d9d9" stroke="#000" stroke-width="0.25" stroke-linejoin="round"/><polygon points="22.591,12.324 22.175,12.084 22.479,12.869 22.591,12.933" fill="#d9d9d9" stroke="#000" stroke-width="0.25" stroke-linejoin="round"/><polygon points="31.465,29.936 29.942,26.011 32.988,27.77" fill="#d9d9d9" stroke="#000" stroke-width="0.25" stroke-linejoin="round"/><polygon points="23.85,16.401 22.327,12.476 25.373,14.235" fill="#d9d9d9" stroke="#000" stroke-width="0.25" stroke-linejoin="round"/><polygon points="28.155,21.629 28.155,22.238 28.683,22.542 28.683,21.933" fill="#d9d9d9" stroke="#000" stroke-width="0.25" stroke-linejoin="round"/><polygon points="21.068,8.398 20.652,8.158 20.956,8.943 21.068,9.008" fill="#d9d9d9" stroke="#000" stroke-width="0.25" stroke-linejoin="round"/><polygon points="22.327,12.476 20.804,8.551 23.85,10.309" fill="#d9d9d9" stroke="#000" stroke-width="0.25" stroke-linejoin="round"/><polygon points="26.632,17.703 26.632,18.312 27.16,18.617 27.16,18.008" fill="#d9d9d9" stroke="#000" stroke-width="0.25" stroke-linejoin="round"/><polygon points="19.545,4.473 19.129,4.233 19.433,5.018 19.545,5.082" fill="#d9d9d9" stroke="#000" stroke-width="0.25" stroke-linejoin="round"/><polygon points="28.419,22.086 26.896,18.16 29.942,19.919" fill="#d9d9d9" stroke="#000" stroke-width="0.25" stroke-linejoin="round"/><polygon points="33.14,27.553 32.724,27.313 32.724,27.922 32.836,27.986" fill="#d9d9d9" stroke="#000" stroke-width="0.25" stroke-linejoin="round"/><polygon points="20.804,8.551 19.281,4.625 22.327,6.384" fill="#d9d9d9" stroke="#000" stroke-width="0.25" stroke-linejoin="round"/><polygon points="25.109,13.778 25.109,14.387 25.637,14.692 25.637,14.082" fill="#d9d9d9" stroke="#000" stroke-width="0.25" stroke-linejoin="round"/><polygon points="31.201,23.387 31.201,23.996 31.729,24.301 31.729,23.692" fill="#d9d9d9" stroke="#000" stroke-width="0.25" stroke-linejoin="round"/><polygon points="19.281,4.625 17.758,0.7 20.804,2.459" fill="#d9d9d9" stroke="#000" stroke-width="0.25" stroke-linejoin="round"/><polygon points="23.586,9.852 23.586,10.462 24.114,10.766 24.114,10.157" fill="#d9d9d9" stroke="#000" stroke-width="0.25" stroke-linejoin="round"/><polygon points="32.988,27.77 31.465,23.844 34.511,25.603" fill="#d9d9d9" stroke="#000" stroke-width="0.25" stroke-linejoin="round"/><polygon points="25.373,14.235 23.85,10.309 26.896,12.068" fill="#d9d9d9" stroke="#000" stroke-width="0.25" stroke-linejoin="round"/><polygon points="29.678,19.462 29.678,20.071 30.206,20.376 30.206,19.766" fill="#d9d9d9" stroke="#000" stroke-width="0.25" stroke-linejoin="round"/><polygon points="22.063,5.927 22.063,6.536 22.591,6.841 22.591,6.232" fill="#d9d9d9" stroke="#000" stroke-width="0.25" stroke-linejoin="round"/><polygon points="31.465,23.844 29.942,19.919 32.988,21.677" fill="#d9d9d9" stroke="#000" stroke-width="0.25" stroke-linejoin="round"/><polygon points="20.54,2.306 20.54,2.611 21.068,2.916 21.068,2.611" fill="#d9d9d9" stroke="#000" stroke-width="0.25" stroke-linejoin="round"/><polygon points="34.663,25.386 34.247,25.146 34.247,25.755 34.359,25.819" fill="#d9d9d9" stroke="#000" stroke-width="0.25" stroke-linejoin="round"/><polygon points="22.327,6.384 20.804,2.459 23.85,4.217" fill="#d9d9d9" stroke="#000" stroke-width="0.25" stroke-linejoin="round"/><polygon points="26.632,11.611 26.632,12.22 27.16,12.525 27.16,11.916" fill="#d9d9d9" stroke="#000" stroke-width="0.25" stroke-linejoin="round"/><polygon points="32.724,21.22 32.724,21.83 33.252,22.134 33.252,21.525" fill="#d9d9d9" stroke="#000" stroke-width="0.25" stroke-linejoin="round"/><polygon points="25.109,7.686 25.109,8.295 25.637,8.6 25.637,7.99" fill="#d9d9d9" stroke="#000" stroke-width="0.25" stroke-linejoin="round"/><polygon points="34.511,25.603 32.988,21.677 36.034,23.436" fill="#d9d9d9" stroke="#000" stroke-width="0.25" stroke-linejoin="round"/><polygon points="26.896,12.068 25.373,8.143 28.419,9.901" fill="#d9d9d9" stroke="#000" stroke-width="0.25" stroke-linejoin="round"/><polygon points="23.586,4.065 23.586,4.37 24.114,4.674 24.114,4.37" fill="#d9d9d9" stroke="#000" stroke-width="0.25" stroke-linejoin="round"/><polygon points="25.373,8.143 23.85,4.217 26.896,5.976" fill="#d9d9d9" stroke="#000" stroke-width="0.25" stroke-linejoin="round"/><polygon points="36.187,23.219 35.77,22.979 35.77,23.588 35.882,23.653" fill="#d9d9d9" stroke="#000" stroke-width="0.25" stroke-linejoin="round"/><polygon points="28.155,9.444 28.155,10.054 28.683,10.358 28.683,9.749" fill="#d9d9d9" stroke="#000" stroke-width="0.25" stroke-linejoin="round"/><polygon points="34.247,19.054 34.247,19.663 34.775,19.968 34.775,19.358" fill="#d9d9d9" stroke="#000" stroke-width="0.25" stroke-linejoin="round"/><polygon points="26.632,5.824 26.632,6.128 27.16,6.433 27.16,6.128" fill="#d9d9d9" stroke="#000" stroke-width="0.25" stroke-linejoin="round"/><polygon points="36.034,23.436 34.511,19.511 37.557,21.269" fill="#d9d9d9" stroke="#000" stroke-width="0.25" stroke-linejoin="round"/><polygon points="28.419,9.901 26.896,5.976 29.942,7.735" fill="#d9d9d9" stroke="#000" stroke-width="0.25" stroke-linejoin="round"/><polygon points="32.724,15.128 32.724,15.738 33.252,16.042 33.252,15.433" fill="#d9d9d9" stroke="#000" stroke-width="0.25" stroke-linejoin="round"/><polygon points="34.511,19.511 32.988,15.585 36.034,17.344" fill="#d9d9d9" stroke="#000" stroke-width="0.25" stroke-linejoin="round"/><polygon points="31.201,11.203 31.201,11.812 31.729,12.117 31.729,11.508" fill="#d9d9d9" stroke="#000" stroke-width="0.25" stroke-linejoin="round"/><polygon points="32.988,15.585 31.465,11.66 34.511,13.419" fill="#d9d9d9" stroke="#000" stroke-width="0.25" stroke-linejoin="round"/><polygon points="37.71,21.053 37.293,20.812 37.293,21.422 37.405,21.486" fill="#d9d9d9" stroke="#000" stroke-width="0.25" stroke-linejoin="round"/><polygon points="29.678,7.582 29.678,7.887 30.206,8.191 30.206,7.887" fill="#d9d9d9" stroke="#000" stroke-width="0.25" stroke-linejoin="round"/><polygon points="31.465,11.66 29.942,7.735 32.988,9.493" fill="#d9d9d9" stroke="#000" stroke-width="0.25" stroke-linejoin="round"/><polygon points="35.77,16.887 35.77,17.496 36.298,17.801 36.298,17.192" fill="#d9d9d9" stroke="#000" stroke-width="0.25" stroke-linejoin="round"/><polygon points="37.557,21.269 36.034,17.344 39.08,19.103" fill="#d9d9d9" stroke="#000" stroke-width="0.25" stroke-linejoin="round"/><polygon points="34.247,12.962 34.247,13.571 34.775,13.875 34.775,13.266" fill="#d9d9d9" stroke="#000" stroke-width="0.25" stroke-linejoin="round"/><polygon points="32.724,9.341 32.724,9.645 33.252,9.95 33.252,9.645" fill="#d9d9d9" stroke="#000" stroke-width="0.25" stroke-linejoin="round"/><polygon points="34.511,13.419 32.988,9.493 36.034,11.252" fill="#d9d9d9" stroke="#000" stroke-width="0.25" stroke-linejoin="round"/><polygon points="39.233,18.886 38.816,18.646 38.816,19.255 38.928,19.319" fill="#d9d9d9" stroke="#000" stroke-width="0.25" stroke-linejoin="round"/><polygon points="37.293,14.72 37.293,15.33 37.821,15.634 37.821,15.025" fill="#d9d9d9" stroke="#000" stroke-width="0.25" stroke-linejoin="round"/><polygon points="39.08,19.103 37.557,15.177 40.603,16.936" fill="#d9d9d9" stroke="#000" stroke-width="0.25" stroke-linejoin="round"/><polygon points="35.77,11.1 35.77,11.404 36.298,11.709 36.298,11.404" fill="#d9d9d9" stroke="#000" stroke-width="0.25" stroke-linejoin="round"/><polygon points="37.557,15.177 36.034,11.252 39.08,13.01" fill="#d9d9d9" stroke="#000" stroke-width="0.25" stroke-linejoin="round"/><polygon points="40.756,16.719 40.339,16.479 40.339,17.088 40.451,17.153" fill="#d9d9d9" stroke="#000" stroke-width="0.25" stroke-linejoin="round"/><polygon points="38.816,12.858 38.816,13.163 39.344,13.467 39.344,13.163" fill="#d9d9d9" stroke="#000" stroke-width="0.25" stroke-linejoin="round"/><polygon points="40.603,16.936 39.08,13.01 42.126,14.769" fill="#d9d9d9" stroke="#000" stroke-width="0.25" stroke-linejoin="round"/><line x1="29.942" y1="32.611" x2="29.942" y2="32.103" stroke="#000" stroke-width="0.25"/><g><circle cx="29.942" cy="32.357" r="1.105" fill="#fff" stroke="#000" stroke-width="0.3"/><path d="M29.257 32.357Q29.6 31.528 29.942 32.357T30.627 32.357" fill="none" stroke="#000" stroke-width="0.3"/></g><text x="32.042" y="33.092" font-size="2.1">P1</text><g class="triad"><circle cx="15.527" cy="60.594" r="0.35" fill="#000" stroke="none"/><line x1="15.527" y1="60.594" x2="18.472" y2="62.294" stroke="#000" stroke-width="0.25"/><polygon points="18.472,62.294 17.342,61.87 17.54,61.527" fill="#000" stroke="none"/><text x="19.597" y="63.679" font-size="2.1" text-anchor="start" font-style="italic">x</text><line x1="15.527" y1="60.594" x2="18.472" y2="58.894" stroke="#000" stroke-width="0.25"/><polygon points="18.472,58.894 17.54,59.66 17.342,59.317" fill="#000" stroke="none"/><text x="19.597" y="58.979" font-size="2.1" text-anchor="start" font-style="italic">y</text><line x1="15.527" y1="60.594" x2="15.527" y2="57.194" stroke="#000" stroke-width="0.25"/><polygon points="15.527,57.194 15.725,58.384 15.329,58.384" fill="#000" stroke="none"/><text x="15.527" y="56.629" font-size="2.1" text-anchor="middle" font-style="italic">z</text></g><text x="22.327" y="61.794" font-size="3" font-weight="600">(b) Isometric view</text></g></g><g transform="translate(6 84.294)"><g class="view view-front"><g></g><g fill="none" stroke="#000" stroke-width="0.35"></g><g stroke-linejoin="round"><polygon points="32.491,55.764 28.517,48.881 36.465,48.881" fill="#d9d9d9" stroke="#000" stroke-width="0.5"/><polygon points="28.517,48.881 24.543,41.998 32.491,41.998" fill="#d9d9d9" stroke="#000" stroke-width="0.5"/><polygon points="36.465,48.881 32.491,41.998 40.439,41.998" fill="#d9d9d9" stroke="#000" stroke-width="0.5"/><polygon points="24.543,41.998 20.57,35.115 28.517,35.115" fill="#d9d9d9" stroke="#000" stroke-width="0.5"/><polygon points="20.57,35.115 16.596,28.232 24.543,28.232" fill="#d9d9d9" stroke="#000" stroke-width="0.5"/><polygon points="28.517,35.115 24.543,28.232 32.491,28.232" fill="#d9d9d9" stroke="#000" stroke-width="0.5"/><polygon points="40.439,41.998 36.465,35.115 44.413,35.115" fill="#d9d9d9" stroke="#000" stroke-width="0.5"/><polygon points="36.465,35.115 32.491,28.232 40.439,28.232" fill="#d9d9d9" stroke="#000" stroke-width="0.5"/><polygon points="44.413,35.115 40.439,28.232 48.387,28.232" fill="#d9d9d9" stroke="#000" stroke-width="0.5"/><polygon points="16.596,28.232 12.622,21.349 20.57,21.349" fill="#d9d9d9" stroke="#000" stroke-width="0.5"/><polygon points="12.622,21.349 8.648,14.466 16.596,14.466" fill="#d9d9d9" stroke="#000" stroke-width="0.5"/><polygon points="20.57,21.349 16.596,14.466 24.543,14.466" fill="#d9d9d9" stroke="#000" stroke-width="0.5"/><polygon points="8.648,14.466 4.674,7.583 12.622,7.583" fill="#d9d9d9" stroke="#000" stroke-width="0.5"/><polygon points="4.674,7.583 0.7,0.7 8.648,0.7" fill="#d9d9d9" stroke="#000" stroke-width="0.5"/><polygon points="12.622,7.583 8.648,0.7 16.596,0.7" fill="#d9d9d9" stroke="#000" stroke-width="0.5"/><polygon points="24.543,14.466 20.57,7.583 28.517,7.583" fill="#d9d9d9" stroke="#000" stroke-width="0.5"/><polygon points="20.57,7.583 16.596,0.7 24.543,0.7" fill="#d9d9d9" stroke="#000" stroke-width="0.5"/><polygon points="28.517,7.583 24.543,0.7 32.491,0.7" fill="#d9d9d9" stroke="#000" stroke-width="0.5"/><polygon points="48.387,28.232 44.413,21.349 52.361,21.349" fill="#d9d9d9" stroke="#000" stroke-width="0.5"/><polygon points="44.413,21.349 40.439,14.466 48.387,14.466" fill="#d9d9d9" stroke="#000" stroke-width="0.5"/><polygon points="52.361,21.349 48.387,14.466 56.335,14.466" fill="#d9d9d9" stroke="#000" stroke-width="0.5"/><polygon points="40.439,14.466 36.465,7.583 44.413,7.583" fill="#d9d9d9" stroke="#000" stroke-width="0.5"/><polygon points="36.465,7.583 32.491,0.7 40.439,0.7" fill="#d9d9d9" stroke="#000" stroke-width="0.5"/><polygon points="44.413,7.583 40.439,0.7 48.387,0.7" fill="#d9d9d9" stroke="#000" stroke-width="0.5"/><polygon points="56.335,14.466 52.361,7.583 60.309,7.583" fill="#d9d9d9" stroke="#000" stroke-width="0.5"/><polygon points="52.361,7.583 48.387,0.7 56.335,0.7" fill="#d9d9d9" stroke="#000" stroke-width="0.5"/><polygon points="60.309,7.583 56.335,0.7 64.282,0.7" fill="#d9d9d9" stroke="#000" stroke-width="0.5"/><polygon points="29.206,48.193 28.12,48.193 28.915,49.569 29.206,49.569" fill="#d9d9d9" stroke="#000" stroke-width="0.5"/><polygon points="36.863,48.193 35.777,48.193 35.777,49.569 36.068,49.569" fill="#d9d9d9" stroke="#000" stroke-width="0.5"/><polygon points="25.232,41.31 24.146,41.31 24.941,42.686 25.232,42.686" fill="#d9d9d9" stroke="#000" stroke-width="0.5"/><polygon points="31.803,41.31 31.803,42.686 33.18,42.686 33.18,41.31" fill="#d9d9d9" stroke="#000" stroke-width="0.5"/><polygon points="40.836,41.31 39.751,41.31 39.751,42.686 40.042,42.686" fill="#d9d9d9" stroke="#000" stroke-width="0.5"/><polygon points="21.258,34.427 20.172,34.427 20.967,35.803 21.258,35.803" fill="#d9d9d9" stroke="#000" stroke-width="0.5"/><polygon points="27.829,34.427 27.829,35.803 29.206,35.803 29.206,34.427" fill="#d9d9d9" stroke="#000" stroke-width="0.5"/><polygon points="17.284,27.544 16.198,27.544 16.993,28.92 17.284,28.92" fill="#d9d9d9" stroke="#000" stroke-width="0.5"/><polygon points="23.855,27.544 23.855,28.92 25.232,28.92 25.232,27.544" fill="#d9d9d9" stroke="#000" stroke-width="0.5"/><polygon points="31.803,27.544 31.803,28.92 33.18,28.92 33.18,27.544" fill="#d9d9d9" stroke="#000" stroke-width="0.5"/><polygon points="35.777,34.427 35.777,35.803 37.153,35.803 37.153,34.427" fill="#d9d9d9" stroke="#000" stroke-width="0.5"/><polygon points="44.81,34.427 43.725,34.427 43.725,35.803 44.016,35.803" fill="#d9d9d9" stroke="#000" stroke-width="0.5"/><polygon points="39.751,27.544 39.751,28.92 41.127,28.92 41.127,27.544" fill="#d9d9d9" stroke="#000" stroke-width="0.5"/><polygon points="48.784,27.544 47.699,27.544 47.699,28.92 47.989,28.92" fill="#d9d9d9" stroke="#000" stroke-width="0.5"/><polygon points="13.31,20.661 12.224,20.661 13.019,22.037 13.31,22.037" fill="#d9d9d9" stroke="#000" stroke-width="0.5"/><polygon points="19.881,20.661 19.881,22.037 21.258,22.037 21.258,20.661" fill="#d9d9d9" stroke="#000" stroke-width="0.5"/><polygon points="9.336,13.778 8.25,13.778 9.045,15.154 9.336,15.154" fill="#d9d9d9" stroke="#000" stroke-width="0.5"/><polygon points="15.907,13.778 15.907,15.154 17.284,15.154 17.284,13.778" fill="#d9d9d9" stroke="#000" stroke-width="0.5"/><polygon points="23.855,13.778 23.855,15.154 25.232,15.154 25.232,13.778" fill="#d9d9d9" stroke="#000" stroke-width="0.5"/><polygon points="5.362,6.895 4.277,6.895 5.071,8.271 5.362,8.271" fill="#d9d9d9" stroke="#000" stroke-width="0.5"/><polygon points="11.933,6.895 11.933,8.271 13.31,8.271 13.31,6.895" fill="#d9d9d9" stroke="#000" stroke-width="0.5"/><rect x="7.96" y="0.694" width="1.377" height="0.7" fill="#000" stroke="none"/><rect x="15.907" y="0.694" width="1.377" height="0.7" fill="#000" stroke="none"/><polygon points="19.881,6.895 19.881,8.271 21.258,8.271 21.258,6.895" fill="#d9d9d9" stroke="#000" stroke-width="0.5"/><polygon points="27.829,6.895 27.829,8.271 29.206,8.271 29.206,6.895" fill="#d9d9d9" stroke="#000" stroke-width="0.5"/><rect x="23.855" y="0.694" width="1.377" height="0.7" fill="#000" stroke="none"/><rect x="31.803" y="0.694" width="1.377" height="0.7" fill="#000" stroke="none"/><polygon points="43.725,20.661 43.725,22.037 45.101,22.037 45.101,20.661" fill="#d9d9d9" stroke="#000" stroke-width="0.5"/><polygon points="52.758,20.661 51.672,20.661 51.672,22.037 51.963,22.037" fill="#d9d9d9" stroke="#000" stroke-width="0.5"/><polygon points="39.751,13.778 39.751,15.154 41.127,15.154 41.127,13.778" fill="#d9d9d9" stroke="#000" stroke-width="0.5"/><polygon points="47.699,13.778 47.699,15.154 49.075,15.154 49.075,13.778" fill="#d9d9d9" stroke="#000" stroke-width="0.5"/><polygon points="56.732,13.778 55.646,13.778 55.646,15.154 55.937,15.154" fill="#d9d9d9" stroke="#000" stroke-width="0.5"/><polygon points="35.777,6.895 35.777,8.271 37.153,8.271 37.153,6.895" fill="#d9d9d9" stroke="#000" stroke-width="0.5"/><polygon points="43.725,6.895 43.725,8.271 45.101,8.271 45.101,6.895" fill="#d9d9d9" stroke="#000" stroke-width="0.5"/><rect x="39.751" y="0.694" width="1.377" height="0.7" fill="#000" stroke="none"/><rect x="47.699" y="0.694" width="1.377" height="0.7" fill="#000" stroke="none"/><polygon points="51.672,6.895 51.672,8.271 53.049,8.271 53.049,6.895" fill="#d9d9d9" stroke="#000" stroke-width="0.5"/><polygon points="60.706,6.895 59.62,6.895 59.62,8.271 59.911,8.271" fill="#d9d9d9" stroke="#000" stroke-width="0.5"/><rect x="55.646" y="0.694" width="1.377" height="0.7" fill="#000" stroke="none"/><polygon points="31.573,55.764 33.409,55.764 33.409,53.929 31.573,53.929" fill="#d9d9d9" stroke="#000" stroke-width="0.5"/></g><g stroke="#000" stroke-width="0.25" stroke-dasharray="6 1 0.5 1"><line x1="32.491" y1="-2.3" x2="32.491" y2="58.764"/></g><g class="ground"><line x1="-4" y1="56.911" x2="68.982" y2="56.911" stroke="#000" stroke-width="0.5"/><path d="M-2.2 56.911L-3.8 58.711M-0.4 56.911L-2 58.711M1.4 56.911L-0.2 58.711M3.2 56.911L1.6 58.711M5 56.911L3.4 58.711M6.8 56.911L5.2 58.711M8.6 56.911L7 58.711M10.4 56.911L8.8 58.711M12.2 56.911L10.6 58.711M14 56.911L12.4 58.711M15.8 56.911L14.2 58.711M17.6 56.911L16 58.711M19.4 56.911L17.8 58.711M21.2 56.911L19.6 58.711M23 56.911L21.4 58.711M24.8 56.911L23.2 58.711M26.6 56.911L25 58.711M28.4 56.911L26.8 58.711M30.2 56.911L28.6 58.711M32 56.911L30.4 58.711M33.8 56.911L32.2 58.711M35.6 56.911L34 58.711M37.4 56.911L35.8 58.711M39.2 56.911L37.6 58.711M41 56.911L39.4 58.711M42.8 56.911L41.2 58.711M44.6 56.911L43 58.711M46.4 56.911L44.8 58.711M48.2 56.911L46.6 58.711M50 56.911L48.4 58.711M51.8 56.911L50.2 58.711M53.6 56.911L52 58.711M55.4 56.911L53.8 58.711M57.2 56.911L55.6 58.711M59 56.911L57.4 58.711M60.8 56.911L59.2 58.711M62.6 56.911L61 58.711M64.4 56.911L62.8 58.711M66.2 56.911L64.6 58.711M68 56.911L66.4 58.711" fill="none" stroke="#000" stroke-width="0.25"/><text x="-4" y="61.211" font-size="2.1">PEC ground plane (infinite)</text></g><g class="ports"><line x1="32.491" y1="56.911" x2="32.491" y2="55.764" stroke="#000" stroke-width="0.25"/><g><circle cx="32.491" cy="56.338" r="1.3" fill="#fff" stroke="#000" stroke-width="0.3"/><path d="M31.685 56.338Q32.088 55.363 32.491 56.338T33.297 56.338" fill="none" stroke="#000" stroke-width="0.3"/></g><g><polyline points="33.41,55.418 36.946,51.883 45.993,51.883" fill="none" stroke="#000" stroke-width="0.25"/><rect x="36.946" y="49.888" width="9.047" height="1.795" fill="#fff" stroke="none" fill-opacity="0.85"/><text x="37.546" y="51.283" font-size="2.1" text-anchor="start">P1 50 Ω</text></g></g><g class="dimensions"><g stroke="#000" stroke-width="0.25" fill="none"><line x1="0.7" y1="-0.1" x2="0.7" y2="-8.5"/><line x1="64.282" y1="-0.1" x2="64.282" y2="-8.5"/><line x1="0.7" y1="-7" x2="64.282" y2="-7"/><line x1="33.291" y1="55.764" x2="77.482" y2="55.764"/><line x1="33.291" y1="56.911" x2="77.482" y2="56.911"/><line x1="75.982" y1="43.479" x2="75.982" y2="60.911"/><line x1="65.082" y1="0.7" x2="82.982" y2="0.7"/><line x1="34.209" y1="55.764" x2="82.982" y2="55.764"/><line x1="81.482" y1="0.7" x2="81.482" y2="55.764"/></g><g><polygon points="0.7,-7 3.2,-7.417 3.2,-6.583" fill="#000" stroke="none"/><polygon points="64.282,-7 61.782,-6.583 61.782,-7.417" fill="#000" stroke="none"/><polygon points="75.982,55.764 75.566,53.264 76.399,53.264" fill="#000" stroke="none"/><polygon points="75.982,56.911 76.399,59.411 75.566,59.411" fill="#000" stroke="none"/><polygon points="81.482,0.7 81.899,3.2 81.066,3.2" fill="#000" stroke="none"/><polygon points="81.482,55.764 81.066,53.264 81.899,53.264" fill="#000" stroke="none"/></g><g fill="#000" font-size="2.5" stroke="none"><text x="32.491" y="-7.7" text-anchor="middle">55.43</text><text x="75.282" y="47.622" text-anchor="middle" transform="rotate(-90 75.282 47.622)">gap = 1</text><text x="80.782" y="28.232" text-anchor="middle" transform="rotate(-90 80.782 28.232)">height = 48</text></g></g><g class="angle"><polyline points="19.139,32.637 19.903,32.213 20.68,31.813 21.47,31.44 22.272,31.092 23.085,30.771 23.907,30.477 24.739,30.209 25.58,29.969 26.427,29.757 27.281,29.573 28.141,29.416 29.006,29.288 29.874,29.188 30.745,29.117 31.617,29.074 32.491,29.059 33.365,29.074 34.238,29.117 35.109,29.188 35.977,29.288 36.841,29.416 37.701,29.573 38.555,29.757 39.403,29.969 40.243,30.209 41.075,30.477 41.898,30.771 42.711,31.092 43.512,31.44 44.302,31.813 45.08,32.213 45.844,32.637" fill="none" stroke="#000" stroke-width="0.25"/><polygon points="19.139,32.637 21.096,31.026 21.512,31.748" fill="#000" stroke="none"/><polygon points="45.844,32.637 43.47,31.748 43.887,31.026" fill="#000" stroke="none"/><rect x="26.009" y="25.434" width="12.965" height="2.625" fill="#fff" stroke="none"/><text x="32.491" y="27.559" font-size="2.5" text-anchor="middle" fill="#000">flare = 60°</text></g><g class="triad"><circle cx="16.361" cy="68.411" r="0.35" fill="#000" stroke="none"/><line x1="16.361" y1="68.411" x2="20.561" y2="68.411" stroke="#000" stroke-width="0.25"/><polygon points="20.561,68.411 19.091,68.656 19.091,68.166" fill="#000" stroke="none"/><text x="21.861" y="69.146" font-size="2.1" text-anchor="start" font-style="italic">x</text><line x1="16.361" y1="68.411" x2="16.361" y2="64.211" stroke="#000" stroke-width="0.25"/><polygon points="16.361,64.211 16.606,65.681 16.116,65.681" fill="#000" stroke="none"/><text x="16.361" y="63.646" font-size="2.1" text-anchor="middle" font-style="italic">z</text></g><text x="24.561" y="68.811" font-size="3" font-weight="600">(c) Front view (xz)</text></g></g><g transform="translate(113.375 84.294)"><g class="view view-side"><g></g><g fill="none" stroke="#000" stroke-width="0.35"></g><g stroke-linejoin="round"><rect x="0.35" y="6.895" width="0.7" height="1.377" fill="#000" stroke="none"/><rect x="0.35" y="0.7" width="0.7" height="6.883" fill="#000" stroke="none"/><rect x="0.35" y="13.778" width="0.7" height="1.377" fill="#000" stroke="none"/><rect x="0.35" y="0.7" width="0.7" height="0.688" fill="#000" stroke="none"/><rect x="0.35" y="7.583" width="0.7" height="6.883" fill="#000" stroke="none"/><rect x="0.35" y="20.661" width="0.7" height="1.377" fill="#000" stroke="none"/><rect x="0.35" y="6.895" width="0.7" height="1.377" fill="#000" stroke="none"/><rect x="0.35" y="14.466" width="0.7" height="6.883" fill="#000" stroke="none"/><rect x="0.35" y="0.7" width="0.7" height="6.883" fill="#000" stroke="none"/><rect x="0.35" y="27.544" width="0.7" height="1.377" fill="#000" stroke="none"/><rect x="0.35" y="13.778" width="0.7" height="1.377" fill="#000" stroke="none"/><rect x="0.35" y="0.7" width="0.7" height="0.688" fill="#000" stroke="none"/><rect x="0.35" y="21.349" width="0.7" height="6.883" fill="#000" stroke="none"/><rect x="0.35" y="34.427" width="0.7" height="1.377" fill="#000" stroke="none"/><rect x="0.35" y="20.661" width="0.7" height="1.377" fill="#000" stroke="none"/><rect x="0.35" y="6.895" width="0.7" height="1.377" fill="#000" stroke="none"/><rect x="0.35" y="28.232" width="0.7" height="6.883" fill="#000" stroke="none"/><rect x="0.35" y="14.466" width="0.7" height="6.883" fill="#000" stroke="none"/><rect x="0.35" y="0.7" width="0.7" height="6.883" fill="#000" stroke="none"/><rect x="0.35" y="41.31" width="0.7" height="1.377" fill="#000" stroke="none"/><rect x="0.35" y="27.544" width="0.7" height="1.377" fill="#000" stroke="none"/><rect x="0.35" y="13.778" width="0.7" height="1.377" fill="#000" stroke="none"/><rect x="0.35" y="0.7" width="0.7" height="0.688" fill="#000" stroke="none"/><rect x="0.35" y="35.115" width="0.7" height="6.883" fill="#000" stroke="none"/><rect x="0.35" y="7.583" width="0.7" height="6.883" fill="#000" stroke="none"/><rect x="0.35" y="48.193" width="0.7" height="1.377" fill="#000" stroke="none"/><rect x="0.35" y="34.427" width="0.7" height="1.377" fill="#000" stroke="none"/><rect x="0.35" y="6.895" width="0.7" height="1.377" fill="#000" stroke="none"/><rect x="0.35" y="41.998" width="0.7" height="6.883" fill="#000" stroke="none"/><rect x="0.35" y="28.232" width="0.7" height="6.883" fill="#000" stroke="none"/><rect x="0.35" y="0.7" width="0.7" height="6.883" fill="#000" stroke="none"/><rect x="0.35" y="41.31" width="0.7" height="1.377" fill="#000" stroke="none"/><rect x="0.35" y="27.544" width="0.7" height="1.377" fill="#000" stroke="none"/><rect x="0.35" y="0.7" width="0.7" height="0.688" fill="#000" stroke="none"/><rect x="0.35" y="53.929" width="0.7" height="1.835" fill="#000" stroke="none"/><rect x="0.35" y="48.881" width="0.7" height="6.883" fill="#000" stroke="none"/><rect x="0.35" y="48.193" width="0.7" height="1.377" fill="#000" stroke="none"/><rect x="0.35" y="34.427" width="0.7" height="1.377" fill="#000" stroke="none"/><rect x="0.35" y="6.895" width="0.7" height="1.377" fill="#000" stroke="none"/><rect x="0.35" y="41.998" width="0.7" height="6.883" fill="#000" stroke="none"/><rect x="0.35" y="28.232" width="0.7" height="6.883" fill="#000" stroke="none"/><rect x="0.35" y="0.7" width="0.7" height="6.883" fill="#000" stroke="none"/><rect x="0.35" y="41.31" width="0.7" height="1.377" fill="#000" stroke="none"/><rect x="0.35" y="27.544" width="0.7" height="1.377" fill="#000" stroke="none"/><rect x="0.35" y="13.778" width="0.7" height="1.377" fill="#000" stroke="none"/><rect x="0.35" y="0.7" width="0.7" height="0.688" fill="#000" stroke="none"/><rect x="0.35" y="35.115" width="0.7" height="6.883" fill="#000" stroke="none"/><rect x="0.35" y="7.583" width="0.7" height="6.883" fill="#000" stroke="none"/><rect x="0.35" y="34.427" width="0.7" height="1.377" fill="#000" stroke="none"/><rect x="0.35" y="20.661" width="0.7" height="1.377" fill="#000" stroke="none"/><rect x="0.35" y="6.895" width="0.7" height="1.377" fill="#000" stroke="none"/><rect x="0.35" y="28.232" width="0.7" height="6.883" fill="#000" stroke="none"/><rect x="0.35" y="14.466" width="0.7" height="6.883" fill="#000" stroke="none"/><rect x="0.35" y="0.7" width="0.7" height="6.883" fill="#000" stroke="none"/><rect x="0.35" y="27.544" width="0.7" height="1.377" fill="#000" stroke="none"/><rect x="0.35" y="13.778" width="0.7" height="1.377" fill="#000" stroke="none"/><rect x="0.35" y="0.7" width="0.7" height="0.688" fill="#000" stroke="none"/><rect x="0.35" y="21.349" width="0.7" height="6.883" fill="#000" stroke="none"/><rect x="0.35" y="20.661" width="0.7" height="1.377" fill="#000" stroke="none"/><rect x="0.35" y="6.895" width="0.7" height="1.377" fill="#000" stroke="none"/><rect x="0.35" y="14.466" width="0.7" height="6.883" fill="#000" stroke="none"/><rect x="0.35" y="0.7" width="0.7" height="6.883" fill="#000" stroke="none"/><rect x="0.35" y="13.778" width="0.7" height="1.377" fill="#000" stroke="none"/><rect x="0.35" y="0.7" width="0.7" height="0.688" fill="#000" stroke="none"/><rect x="0.35" y="7.583" width="0.7" height="6.883" fill="#000" stroke="none"/><rect x="0.35" y="6.895" width="0.7" height="1.377" fill="#000" stroke="none"/><rect x="0.35" y="0.7" width="0.7" height="6.883" fill="#000" stroke="none"/></g><g class="ground"><line x1="-4" y1="56.911" x2="5.4" y2="56.911" stroke="#000" stroke-width="0.5"/><path d="M-2.2 56.911L-3.8 58.711M-0.4 56.911L-2 58.711M1.4 56.911L-0.2 58.711M3.2 56.911L1.6 58.711M5 56.911L3.4 58.711" fill="none" stroke="#000" stroke-width="0.25"/></g><g class="ports"><line x1="0.7" y1="56.911" x2="0.7" y2="55.764" stroke="#000" stroke-width="0.25"/><g><circle cx="0.7" cy="56.338" r="1.3" fill="#fff" stroke="#000" stroke-width="0.3"/><path d="M-0.106 56.338Q0.297 55.363 0.7 56.338T1.506 56.338" fill="none" stroke="#000" stroke-width="0.3"/></g></g><g class="triad"><circle cx="-15.459" cy="65.311" r="0.35" fill="#000" stroke="none"/><line x1="-15.459" y1="65.311" x2="-11.259" y2="65.311" stroke="#000" stroke-width="0.25"/><polygon points="-11.259,65.311 -12.729,65.556 -12.729,65.066" fill="#000" stroke="none"/><text x="-9.959" y="66.046" font-size="2.1" text-anchor="start" font-style="italic">y</text><line x1="-15.459" y1="65.311" x2="-15.459" y2="61.111" stroke="#000" stroke-width="0.25"/><polygon points="-15.459,61.111 -15.214,62.581 -15.704,62.581" fill="#000" stroke="none"/><text x="-15.459" y="60.546" font-size="2.1" text-anchor="middle" font-style="italic">z</text></g><text x="-7.259" y="65.711" font-size="3" font-weight="600">(d) Right view (yz)</text></g></g><g font-size="2.1" fill="#000" class="notes"><text x="2" y="159.205" font-weight="600">NOTES</text><text x="2" y="162.145">1. All dimensions in mm.</text><text x="2" y="165.085">2. Metal parts are PEC; zero-thickness sheets are drawn with a minimum line width (solid black when seen edge-on).</text><text x="2" y="168.025">3. Infinite PEC ground plane at z = 0 mm (boundary condition, image theory), shown as a hatched ground line.</text><text x="2" y="170.965">4. P1: lumped port, 50 Ω, along z, gap 1 mm, excited.</text></g></svg>
