<?xml version="1.0" encoding="UTF-8"?>
<svg xmlns="http://www.w3.org/2000/svg" version="1.1" width="297mm" height="210mm" viewBox="0 0 297 210" font-family="'IBM Plex Sans', Helvetica, Arial, sans-serif"><title>Wilkinson divider (2.4 GHz) — technical drawing</title><desc>Wilkinson divider (2.4 GHz) (wilkinson-divider) · Fairbeam 0.7.0 · third-angle projection · scale 1:1 · A4</desc><rect x="0" y="0" width="297" height="210" fill="#fff" stroke="none"/><g class="frame"><rect x="20" y="10" width="267" height="190" fill="none" stroke="#000" stroke-width="0.5"/><g stroke="#000" stroke-width="0.5"><line x1="148.5" y1="0" x2="148.5" y2="15"/><line x1="148.5" y1="195" x2="148.5" y2="210"/><line x1="0" y1="105" x2="25" y2="105"/><line x1="282" y1="105" x2="297" y2="105"/></g><rect x="0.2" y="0.2" width="296.6" height="209.6" fill="none" stroke="#000" stroke-width="0.125" stroke-opacity="0.35"/></g><g transform="translate(97.5 43.5)"><g class="view view-top"><g><polygon points="0.7,28.598 38.486,28.598 38.486,0.7 0.7,0.7" fill="#fff" stroke="none"/></g><g fill="none" stroke="#000" stroke-width="0.35"><polygon points="0.7,28.598 38.486,28.598 38.486,0.7 0.7,0.7"/></g><g stroke-linejoin="round"><polygon points="0.7,15.598 11.218,15.598 11.218,13.7 0.7,13.7" fill="#d9d9d9" stroke="#000" stroke-width="0.5"/><polygon points="10.183,14.649 11.218,14.649 11.218,9.131 10.183,9.131" fill="#d9d9d9" stroke="#000" stroke-width="0.5"/><polygon points="10.183,10.167 24.537,10.167 24.537,9.131 10.183,9.131" fill="#d9d9d9" stroke="#000" stroke-width="0.5"/><polygon points="23.502,13.7 24.537,13.7 24.537,9.131 23.502,9.131" fill="#d9d9d9" stroke="#000" stroke-width="0.5"/><polygon points="23.502,13.7 29.435,13.7 29.435,11.802 23.502,11.802" fill="#d9d9d9" stroke="#000" stroke-width="0.5"/><polygon points="27.537,13.7 29.435,13.7 29.435,6.7 27.537,6.7" fill="#d9d9d9" stroke="#000" stroke-width="0.5"/><polygon points="27.537,8.598 38.486,8.598 38.486,6.7 27.537,6.7" fill="#d9d9d9" stroke="#000" stroke-width="0.5"/><polygon points="10.183,20.167 11.218,20.167 11.218,14.649 10.183,14.649" fill="#d9d9d9" stroke="#000" stroke-width="0.5"/><polygon points="10.183,20.167 24.537,20.167 24.537,19.132 10.183,19.132" fill="#d9d9d9" stroke="#000" stroke-width="0.5"/><polygon points="23.502,20.167 24.537,20.167 24.537,15.598 23.502,15.598" fill="#d9d9d9" stroke="#000" stroke-width="0.5"/><polygon points="23.502,17.496 29.435,17.496 29.435,15.598 23.502,15.598" fill="#d9d9d9" stroke="#000" stroke-width="0.5"/><polygon points="27.537,22.598 29.435,22.598 29.435,15.598 27.537,15.598" fill="#d9d9d9" stroke="#000" stroke-width="0.5"/><polygon points="27.537,22.598 38.486,22.598 38.486,20.7 27.537,20.7" fill="#d9d9d9" stroke="#000" stroke-width="0.5"/></g><g stroke="#000" stroke-width="0.25" stroke-dasharray="6 1 0.5 1"><line x1="19.593" y1="-2.3" x2="19.593" y2="31.598"/><line x1="-2.3" y1="14.649" x2="41.486" y2="14.649"/></g><g class="ports"><line x1="0.7" y1="15.598" x2="0.7" y2="13.7" stroke="#000" stroke-width="0.25"/><g><circle cx="0.7" cy="14.649" r="1.3" fill="#fff" stroke="#000" stroke-width="0.3"/><path d="M-0.106 14.649Q0.297 13.674 0.7 14.649T1.506 14.649" fill="none" stroke="#000" stroke-width="0.3"/></g><line x1="38.486" y1="8.598" x2="38.486" y2="6.7" stroke="#000" stroke-width="0.25"/><g><circle cx="38.486" cy="7.649" r="1.3" fill="#fff" stroke="#000" stroke-width="0.3"/><path d="M37.68 7.649Q38.083 6.674 38.486 7.649T39.292 7.649" fill="none" stroke="#000" stroke-width="0.3"/></g><line x1="38.486" y1="22.598" x2="38.486" y2="20.7" stroke="#000" stroke-width="0.25"/><g><circle cx="38.486" cy="21.649" r="1.3" fill="#fff" stroke="#000" stroke-width="0.3"/><path d="M37.68 21.649Q38.083 20.674 38.486 21.649T39.292 21.649" fill="none" stroke="#000" stroke-width="0.3"/></g></g><g class="lumped"><g><rect x="23.109" y="13.7" width="1.82" height="1.898" fill="#fff" stroke="#000" stroke-width="0.3"/><path d="M24.019 13.928L24.565 14.134L23.473 14.34L24.565 14.546L23.473 14.752L24.565 14.958L23.473 15.164L24.019 15.37" fill="none" stroke="#000" stroke-width="0.3" stroke-linejoin="round"/><g><rect x="25.429" y="13.599" width="8.219" height="2.31" fill="#fff" stroke="none"/><text x="25.729" y="15.384" font-size="2.1">R 100 Ω</text></g></g></g><g class="dimensions"><g stroke="#000" stroke-width="0.25" fill="none"><line x1="19.593" y1="-0.8" x2="19.593" y2="-8.5"/><line x1="38.486" y1="6.849" x2="38.486" y2="-8.5"/><line x1="19.593" y1="-7" x2="38.486" y2="-7"/><line x1="0.7" y1="13.849" x2="0.7" y2="-14"/><line x1="19.593" y1="-0.8" x2="19.593" y2="-14"/><line x1="0.7" y1="-12.5" x2="19.593" y2="-12.5"/><line x1="11.218" y1="7.798" x2="11.218" y2="-19.5"/><line x1="38.486" y1="7.798" x2="38.486" y2="-19.5"/><line x1="11.218" y1="-18" x2="38.486" y2="-18"/><line x1="24.537" y1="20.967" x2="24.537" y2="37.798"/><line x1="27.537" y1="20.967" x2="27.537" y2="37.798"/><line x1="20.537" y1="36.298" x2="33.037" y2="36.298"/><line x1="0.7" y1="16.398" x2="0.7" y2="37.798"/><line x1="10.183" y1="16.398" x2="10.183" y2="37.798"/><line x1="0.7" y1="36.298" x2="10.183" y2="36.298"/><line x1="27.537" y1="23.398" x2="27.537" y2="43.298"/><line x1="38.486" y1="23.398" x2="38.486" y2="43.298"/><line x1="27.537" y1="41.798" x2="38.486" y2="41.798"/><line x1="10.183" y1="20.967" x2="10.183" y2="48.798"/><line x1="38.486" y1="23.398" x2="38.486" y2="48.798"/><line x1="10.183" y1="47.298" x2="38.486" y2="47.298"/><line x1="0.7" y1="29.398" x2="0.7" y2="54.298"/><line x1="38.486" y1="29.398" x2="38.486" y2="54.298"/><line x1="0.7" y1="52.798" x2="38.486" y2="52.798"/><line x1="-0.1" y1="13.7" x2="-8.5" y2="13.7"/><line x1="-0.1" y1="15.598" x2="-8.5" y2="15.598"/><line x1="-7" y1="3.02" x2="-7" y2="19.598"/><line x1="-0.8" y1="14.649" x2="-14" y2="14.649"/><line x1="37.686" y1="21.649" x2="-14" y2="21.649"/><line x1="-12.5" y1="14.649" x2="-12.5" y2="21.649"/><line x1="37.686" y1="7.649" x2="-19.5" y2="7.649"/><line x1="-0.8" y1="14.649" x2="-19.5" y2="14.649"/><line x1="-18" y1="7.649" x2="-18" y2="14.649"/><line x1="39.286" y1="6.7" x2="47.686" y2="6.7"/><line x1="39.286" y1="8.598" x2="47.686" y2="8.598"/><line x1="46.186" y1="-3.98" x2="46.186" y2="12.598"/><line x1="39.286" y1="20.7" x2="53.186" y2="20.7"/><line x1="39.286" y1="22.598" x2="53.186" y2="22.598"/><line x1="51.686" y1="10.02" x2="51.686" y2="26.598"/><line x1="28.337" y1="17.496" x2="58.686" y2="17.496"/><line x1="28.337" y1="20.167" x2="58.686" y2="20.167"/><line x1="57.186" y1="6.816" x2="57.186" y2="24.167"/><line x1="39.286" y1="8.598" x2="64.186" y2="8.598"/><line x1="39.286" y1="20.7" x2="64.186" y2="20.7"/><line x1="62.686" y1="8.598" x2="62.686" y2="20.7"/><line x1="39.286" y1="6.7" x2="69.686" y2="6.7"/><line x1="39.286" y1="20.7" x2="69.686" y2="20.7"/><line x1="68.186" y1="6.7" x2="68.186" y2="20.7"/><line x1="39.286" y1="8.598" x2="75.186" y2="8.598"/><line x1="39.286" y1="22.598" x2="75.186" y2="22.598"/><line x1="73.686" y1="8.598" x2="73.686" y2="22.598"/><line x1="39.286" y1="6.7" x2="80.686" y2="6.7"/><line x1="39.286" y1="22.598" x2="80.686" y2="22.598"/><line x1="79.186" y1="6.7" x2="79.186" y2="22.598"/><line x1="39.286" y1="0.7" x2="86.186" y2="0.7"/><line x1="39.286" y1="28.598" x2="86.186" y2="28.598"/><line x1="84.686" y1="0.7" x2="84.686" y2="28.598"/></g><g><polygon points="19.593,-7 22.093,-7.417 22.093,-6.583" fill="#000" stroke="none"/><polygon points="38.486,-7 35.986,-6.583 35.986,-7.417" fill="#000" stroke="none"/><polygon points="0.7,-12.5 3.2,-12.917 3.2,-12.083" fill="#000" stroke="none"/><polygon points="19.593,-12.5 17.093,-12.083 17.093,-12.917" fill="#000" stroke="none"/><polygon points="11.218,-18 13.718,-18.417 13.718,-17.583" fill="#000" stroke="none"/><polygon points="38.486,-18 35.986,-17.583 35.986,-18.417" fill="#000" stroke="none"/><polygon points="24.537,36.298 22.037,36.715 22.037,35.881" fill="#000" stroke="none"/><polygon points="27.537,36.298 30.037,35.881 30.037,36.715" fill="#000" stroke="none"/><polygon points="0.7,36.298 3.2,35.881 3.2,36.715" fill="#000" stroke="none"/><polygon points="10.183,36.298 7.682,36.715 7.682,35.881" fill="#000" stroke="none"/><polygon points="27.537,41.798 30.037,41.381 30.037,42.215" fill="#000" stroke="none"/><polygon points="38.486,41.798 35.986,42.215 35.986,41.381" fill="#000" stroke="none"/><polygon points="10.183,47.298 12.683,46.881 12.683,47.715" fill="#000" stroke="none"/><polygon points="38.486,47.298 35.986,47.715 35.986,46.881" fill="#000" stroke="none"/><polygon points="0.7,52.798 3.2,52.381 3.2,53.215" fill="#000" stroke="none"/><polygon points="38.486,52.798 35.986,53.215 35.986,52.381" fill="#000" stroke="none"/><polygon points="-7,13.7 -7.417,11.2 -6.583,11.2" fill="#000" stroke="none"/><polygon points="-7,15.598 -6.583,18.098 -7.417,18.098" fill="#000" stroke="none"/><polygon points="-12.5,14.649 -12.083,17.149 -12.917,17.149" fill="#000" stroke="none"/><polygon points="-12.5,21.649 -12.917,19.149 -12.083,19.149" fill="#000" stroke="none"/><polygon points="-18,7.649 -17.583,10.149 -18.417,10.149" fill="#000" stroke="none"/><polygon points="-18,14.649 -18.417,12.149 -17.583,12.149" fill="#000" stroke="none"/><polygon points="46.186,6.7 45.769,4.2 46.602,4.2" fill="#000" stroke="none"/><polygon points="46.186,8.598 46.602,11.098 45.769,11.098" fill="#000" stroke="none"/><polygon points="51.686,20.7 51.269,18.2 52.102,18.2" fill="#000" stroke="none"/><polygon points="51.686,22.598 52.102,25.098 51.269,25.098" fill="#000" stroke="none"/><polygon points="57.186,17.496 56.769,14.996 57.602,14.996" fill="#000" stroke="none"/><polygon points="57.186,20.167 57.602,22.667 56.769,22.667" fill="#000" stroke="none"/><polygon points="62.686,8.598 63.102,11.098 62.269,11.098" fill="#000" stroke="none"/><polygon points="62.686,20.7 62.269,18.2 63.102,18.2" fill="#000" stroke="none"/><polygon points="68.186,6.7 68.602,9.2 67.769,9.2" fill="#000" stroke="none"/><polygon points="68.186,20.7 67.769,18.2 68.602,18.2" fill="#000" stroke="none"/><polygon points="73.686,8.598 74.102,11.098 73.269,11.098" fill="#000" stroke="none"/><polygon points="73.686,22.598 73.269,20.098 74.102,20.098" fill="#000" stroke="none"/><polygon points="79.186,6.7 79.602,9.2 78.769,9.2" fill="#000" stroke="none"/><polygon points="79.186,22.598 78.769,20.098 79.602,20.098" fill="#000" stroke="none"/><polygon points="84.686,0.7 85.102,3.2 84.269,3.2" fill="#000" stroke="none"/><polygon points="84.686,28.598 84.269,26.098 85.102,26.098" fill="#000" stroke="none"/></g><g fill="#000" font-size="2.5" stroke="none"><text x="29.039" y="-7.7" text-anchor="middle">18.89</text><text x="10.146" y="-13.2" text-anchor="middle">18.89</text><text x="24.852" y="-18.7" text-anchor="middle">27.27</text><text x="32.287" y="35.598" text-anchor="middle">3</text><text x="5.441" y="35.598" text-anchor="middle">9.482</text><text x="33.011" y="41.098" text-anchor="middle">10.95</text><text x="24.334" y="46.598" text-anchor="middle">28.3</text><text x="19.593" y="52.098" text-anchor="middle">37.79</text><text x="-7.7" y="6.36" text-anchor="middle" transform="rotate(-90 -7.7 6.36)">1.898</text><text x="-13.2" y="18.149" text-anchor="middle" transform="rotate(-90 -13.2 18.149)">7</text><text x="-18.7" y="11.149" text-anchor="middle" transform="rotate(-90 -18.7 11.149)">7</text><text x="45.486" y="-0.64" text-anchor="middle" transform="rotate(-90 45.486 -0.64)">1.898</text><text x="50.986" y="13.36" text-anchor="middle" transform="rotate(-90 50.986 13.36)">1.898</text><text x="56.486" y="10.156" text-anchor="middle" transform="rotate(-90 56.486 10.156)">2.671</text><text x="61.986" y="14.649" text-anchor="middle" transform="rotate(-90 61.986 14.649)">12.1</text><text x="67.486" y="13.7" text-anchor="middle" transform="rotate(-90 67.486 13.7)">14</text><text x="72.986" y="15.598" text-anchor="middle" transform="rotate(-90 72.986 15.598)">14</text><text x="78.486" y="14.649" text-anchor="middle" transform="rotate(-90 78.486 14.649)">15.9</text><text x="83.986" y="14.649" text-anchor="middle" transform="rotate(-90 83.986 14.649)">27.9</text></g></g><g class="triad"><circle cx="6.692" cy="60.631" r="0.35" fill="#000" stroke="none"/><line x1="6.692" y1="60.631" x2="10.892" y2="60.631" stroke="#000" stroke-width="0.25"/><polygon points="10.892,60.631 9.422,60.876 9.422,60.386" fill="#000" stroke="none"/><text x="12.192" y="61.366" font-size="2.1" text-anchor="start" font-style="italic">x</text><line x1="6.692" y1="60.631" x2="6.692" y2="56.431" stroke="#000" stroke-width="0.25"/><polygon points="6.692,56.431 6.937,57.901 6.447,57.901" fill="#000" stroke="none"/><text x="6.692" y="55.866" font-size="2.1" text-anchor="middle" font-style="italic">y</text></g><text x="14.892" y="61.031" font-size="3" font-weight="600">Top view (xy)</text></g></g><g transform="translate(198.5 81.392)"><g class="view view-iso"><polygon points="0.7,6.727 14.059,14.44 23.923,8.745 10.563,1.032" fill="#d9d9d9" stroke="#000" stroke-width="0.35" stroke-linejoin="round"/><polygon points="0.7,6.395 14.059,14.108 23.923,8.413 10.563,0.7" fill="#fff" stroke="#000" stroke-width="0.25" stroke-linejoin="round"/><polygon points="5.296,3.741 9.015,5.888 9.686,5.5 5.967,3.354" fill="#d9d9d9" stroke="#000" stroke-width="0.25" stroke-linejoin="round"/><polygon points="8.984,5.483 9.35,5.694 11.301,4.568 10.935,4.357" fill="#d9d9d9" stroke="#000" stroke-width="0.25" stroke-linejoin="round"/><polygon points="10.569,4.568 15.644,7.498 16.01,7.287 10.935,4.357" fill="#d9d9d9" stroke="#000" stroke-width="0.25" stroke-linejoin="round"/><polygon points="7.034,6.609 7.399,6.82 9.35,5.694 8.984,5.483" fill="#d9d9d9" stroke="#000" stroke-width="0.25" stroke-linejoin="round"/><polygon points="14.029,8.008 14.395,8.219 16.01,7.287 15.644,7.075" fill="#d9d9d9" stroke="#000" stroke-width="0.25" stroke-linejoin="round"/><polygon points="7.034,6.609 12.109,9.539 12.474,9.328 7.399,6.398" fill="#d9d9d9" stroke="#000" stroke-width="0.25" stroke-linejoin="round"/><polygon points="15.455,8.832 16.127,9.219 18.601,7.79 17.93,7.403" fill="#d9d9d9" stroke="#000" stroke-width="0.25" stroke-linejoin="round"/><polygon points="14.029,8.008 16.127,9.219 16.798,8.832 14.7,7.621" fill="#d9d9d9" stroke="#000" stroke-width="0.25" stroke-linejoin="round"/><polygon points="17.259,7.79 21.13,10.025 21.801,9.638 17.93,7.403" fill="#d9d9d9" stroke="#000" stroke-width="0.25" stroke-linejoin="round"/><polygon points="11.743,9.328 12.109,9.539 13.724,8.607 13.358,8.395" fill="#d9d9d9" stroke="#000" stroke-width="0.25" stroke-linejoin="round"/><polygon points="12.687,8.783 14.784,9.994 15.455,9.607 13.358,8.395" fill="#d9d9d9" stroke="#000" stroke-width="0.25" stroke-linejoin="round"/><polygon points="12.31,10.648 12.981,11.035 15.455,9.607 14.784,9.219" fill="#d9d9d9" stroke="#000" stroke-width="0.25" stroke-linejoin="round"/><polygon points="0.7,6.727 14.059,14.44 14.059,14.108 0.7,6.395" fill="#fff" stroke="#000" stroke-width="0.25" stroke-linejoin="round"/><polygon points="14.059,14.44 23.923,8.745 23.923,8.413 14.059,14.108" fill="#fff" stroke="#000" stroke-width="0.25" stroke-linejoin="round"/><polygon points="12.31,10.648 16.181,12.883 16.852,12.495 12.981,10.261" fill="#d9d9d9" stroke="#000" stroke-width="0.25" stroke-linejoin="round"/><line x1="5.296" y1="4.073" x2="5.967" y2="3.354" stroke="#000" stroke-width="0.25"/><g><circle cx="5.632" cy="3.713" r="1.105" fill="#fff" stroke="#000" stroke-width="0.3"/><path d="M4.947 3.713Q5.289 2.885 5.632 3.713T6.317 3.713" fill="none" stroke="#000" stroke-width="0.3"/></g><text x="7.732" y="4.448" font-size="2.1">P1</text><line x1="21.13" y1="10.357" x2="21.801" y2="9.638" stroke="#000" stroke-width="0.25"/><g><circle cx="21.466" cy="9.997" r="1.105" fill="#fff" stroke="#000" stroke-width="0.3"/><path d="M20.781 9.997Q21.123 9.169 21.466 9.997T22.151 9.997" fill="none" stroke="#000" stroke-width="0.3"/></g><text x="23.566" y="10.732" font-size="2.1">P2</text><line x1="16.181" y1="13.215" x2="16.852" y2="12.495" stroke="#000" stroke-width="0.25"/><g><circle cx="16.516" cy="12.855" r="1.105" fill="#fff" stroke="#000" stroke-width="0.3"/><path d="M15.831 12.855Q16.174 12.026 16.516 12.855T17.201 12.855" fill="none" stroke="#000" stroke-width="0.3"/></g><text x="18.616" y="13.59" font-size="2.1">P3</text><g class="lumped"><polygon points="13.358,8.395 13.724,8.607 14.395,8.219 14.029,8.008" fill="#fff" stroke="#000" stroke-width="0.3" stroke-linejoin="round"/><path d="M13.621 8.455L13.804 8.476L13.657 8.307L13.95 8.392L13.803 8.223L14.095 8.308L13.949 8.139L14.131 8.16" fill="none" stroke="#000" stroke-width="0.25" stroke-linejoin="round"/><g><rect x="14.895" y="7.257" width="8.219" height="2.31" fill="#fff" stroke="none"/><text x="15.195" y="9.042" font-size="2.1">R 100 Ω</text></g></g><g class="triad"><circle cx="-3.481" cy="21.94" r="0.35" fill="#000" stroke="none"/><line x1="-3.481" y1="21.94" x2="-0.536" y2="23.64" stroke="#000" stroke-width="0.25"/><polygon points="-0.536,23.64 -1.666,23.216 -1.468,22.873" fill="#000" stroke="none"/><text x="0.59" y="25.025" font-size="2.1" text-anchor="start" font-style="italic">x</text><line x1="-3.481" y1="21.94" x2="-0.536" y2="20.24" stroke="#000" stroke-width="0.25"/><polygon points="-0.536,20.24 -1.468,21.006 -1.666,20.663" fill="#000" stroke="none"/><text x="0.59" y="20.325" font-size="2.1" text-anchor="start" font-style="italic">y</text><line x1="-3.481" y1="21.94" x2="-3.481" y2="18.54" stroke="#000" stroke-width="0.25"/><polygon points="-3.481,18.54 -3.282,19.73 -3.679,19.73" fill="#000" stroke="none"/><text x="-3.481" y="17.975" font-size="2.1" text-anchor="middle" font-style="italic">z</text></g><text x="3.319" y="23.14" font-size="3" font-weight="600">Isometric view (1:2)</text></g></g><g transform="translate(97.5 124.711)"><g class="view view-front"><g><polygon points="0.7,1.513 38.486,1.513 38.486,0.7 0.7,0.7" fill="#fff" stroke="none"/></g><path d="M0.7 1.195L1.195 0.7M1.372 1.513L2.185 0.7M2.362 1.513L3.175 0.7M3.352 1.513L4.165 0.7M4.342 1.513L5.155 0.7M5.332 1.513L6.145 0.7M6.322 1.513L7.135 0.7M7.312 1.513L8.125 0.7M8.302 1.513L9.115 0.7M9.292 1.513L10.105 0.7M10.281 1.513L11.094 0.7M11.271 1.513L12.084 0.7M12.261 1.513L13.074 0.7M13.251 1.513L14.064 0.7M14.241 1.513L15.054 0.7M15.231 1.513L16.044 0.7M16.221 1.513L17.034 0.7M17.211 1.513L18.024 0.7M18.201 1.513L19.014 0.7M19.191 1.513L20.004 0.7M20.181 1.513L20.994 0.7M21.171 1.513L21.984 0.7M22.161 1.513L22.974 0.7M23.151 1.513L23.964 0.7M24.141 1.513L24.954 0.7M25.131 1.513L25.944 0.7M26.121 1.513L26.934 0.7M27.111 1.513L27.924 0.7M28.101 1.513L28.914 0.7M29.091 1.513L29.904 0.7M30.08 1.513L30.893 0.7M31.07 1.513L31.883 0.7M32.06 1.513L32.873 0.7M33.05 1.513L33.863 0.7M34.04 1.513L34.853 0.7M35.03 1.513L35.843 0.7M36.02 1.513L36.833 0.7M37.01 1.513L37.823 0.7M38 1.513L38.486 1.027" fill="none" stroke="#000" stroke-width="0.18"/><g fill="none" stroke="#000" stroke-width="0.35"><polygon points="0.7,1.513 38.486,1.513 38.486,0.7 0.7,0.7"/></g><g stroke-linejoin="round"><rect x="27.537" y="0" width="10.949" height="0.7" fill="#000" stroke="none"/><rect x="10.183" y="0" width="14.354" height="0.7" fill="#000" stroke="none"/><rect x="23.502" y="0" width="1.035" height="0.7" fill="#000" stroke="none"/><rect x="23.502" y="0" width="5.933" height="0.7" fill="#000" stroke="none"/><rect x="27.537" y="0" width="1.898" height="0.7" fill="#000" stroke="none"/><rect x="10.183" y="0" width="1.035" height="0.7" fill="#000" stroke="none"/><rect x="0.7" y="0" width="10.518" height="0.7" fill="#000" stroke="none"/><rect x="23.502" y="0" width="5.933" height="0.7" fill="#000" stroke="none"/><rect x="10.183" y="0" width="1.035" height="0.7" fill="#000" stroke="none"/><rect x="10.183" y="0" width="14.354" height="0.7" fill="#000" stroke="none"/><rect x="23.502" y="0" width="1.035" height="0.7" fill="#000" stroke="none"/><rect x="27.537" y="0" width="1.898" height="0.7" fill="#000" stroke="none"/><rect x="27.537" y="0" width="10.949" height="0.7" fill="#000" stroke="none"/><rect x="0.7" y="1.513" width="37.786" height="0.7" fill="#000" stroke="none"/></g><g stroke="#000" stroke-width="0.25" stroke-dasharray="6 1 0.5 1"><line x1="19.593" y1="-2.3" x2="19.593" y2="4.513"/></g><g class="ports"><line x1="0.7" y1="1.513" x2="0.7" y2="0.7" stroke="#000" stroke-width="0.25"/><g><circle cx="0.7" cy="1.107" r="1.3" fill="#fff" stroke="#000" stroke-width="0.3"/><path d="M-0.106 1.107Q0.297 0.131 0.7 1.107T1.506 1.107" fill="none" stroke="#000" stroke-width="0.3"/></g><line x1="38.486" y1="1.513" x2="38.486" y2="0.7" stroke="#000" stroke-width="0.25"/><g><circle cx="38.486" cy="1.107" r="1.3" fill="#fff" stroke="#000" stroke-width="0.3"/><path d="M37.68 1.107Q38.083 0.131 38.486 1.107T39.292 1.107" fill="none" stroke="#000" stroke-width="0.3"/></g><line x1="38.486" y1="1.513" x2="38.486" y2="0.7" stroke="#000" stroke-width="0.25"/><g><circle cx="38.486" cy="1.107" r="1.3" fill="#fff" stroke="#000" stroke-width="0.3"/><path d="M37.68 1.107Q38.083 0.131 38.486 1.107T39.292 1.107" fill="none" stroke="#000" stroke-width="0.3"/></g><g><polyline points="1.619,0.187 5.155,-3.348 14.202,-3.348" fill="none" stroke="#000" stroke-width="0.25"/><rect x="5.155" y="-5.343" width="9.047" height="1.795" fill="#fff" stroke="none" fill-opacity="0.85"/><text x="5.755" y="-3.948" font-size="2.1" text-anchor="start">P1 50 Ω</text></g><g><polyline points="39.405,0.187 42.941,-3.348 51.988,-3.348" fill="none" stroke="#000" stroke-width="0.25"/><rect x="42.941" y="-5.343" width="9.047" height="1.795" fill="#fff" stroke="none" fill-opacity="0.85"/><text x="43.541" y="-3.948" font-size="2.1" text-anchor="start">P2 50 Ω</text></g><g><polyline points="39.405,0.187 42.941,-3.348 51.988,-3.348" fill="none" stroke="#000" stroke-width="0.25"/><rect x="42.941" y="-5.343" width="9.047" height="1.795" fill="#fff" stroke="none" fill-opacity="0.85"/><text x="43.541" y="-3.948" font-size="2.1" text-anchor="start">P3 50 Ω</text></g></g><g class="lumped"><g><rect x="23.109" y="-0.21" width="1.82" height="1.82" fill="#fff" stroke="#000" stroke-width="0.3"/></g></g><g class="dimensions"><g stroke="#000" stroke-width="0.25" fill="none"><line x1="39.286" y1="0.7" x2="61.488" y2="0.7"/><line x1="39.286" y1="1.513" x2="61.488" y2="1.513"/><line x1="59.988" y1="-9.98" x2="59.988" y2="5.513"/></g><g><polygon points="59.988,0.7 59.571,-1.8 60.405,-1.8" fill="#000" stroke="none"/><polygon points="59.988,1.513 60.405,4.013 59.571,4.013" fill="#000" stroke="none"/></g><g fill="#000" font-size="2.5" stroke="none"><text x="59.288" y="-6.64" text-anchor="middle" transform="rotate(-90 59.288 -6.64)">0.813</text></g></g><g class="triad"><circle cx="5.597" cy="11.413" r="0.35" fill="#000" stroke="none"/><line x1="5.597" y1="11.413" x2="9.797" y2="11.413" stroke="#000" stroke-width="0.25"/><polygon points="9.797,11.413 8.327,11.658 8.327,11.168" fill="#000" stroke="none"/><text x="11.097" y="12.148" font-size="2.1" text-anchor="start" font-style="italic">x</text><line x1="5.597" y1="11.413" x2="5.597" y2="7.213" stroke="#000" stroke-width="0.25"/><polygon points="5.597,7.213 5.842,8.683 5.352,8.683" fill="#000" stroke="none"/><text x="5.597" y="6.648" font-size="2.1" text-anchor="middle" font-style="italic">z</text></g><text x="13.797" y="11.813" font-size="3" font-weight="600">Front view (xz)</text></g></g><g transform="translate(192.319 124.711)"><g class="view view-side"><g><polygon points="0.7,1.513 28.598,1.513 28.598,0.7 0.7,0.7" fill="#fff" stroke="none"/></g><path d="M0.7 1.195L1.195 0.7M1.372 1.513L2.185 0.7M2.362 1.513L3.175 0.7M3.352 1.513L4.165 0.7M4.342 1.513L5.155 0.7M5.332 1.513L6.145 0.7M6.322 1.513L7.135 0.7M7.312 1.513L8.125 0.7M8.302 1.513L9.115 0.7M9.292 1.513L10.105 0.7M10.281 1.513L11.094 0.7M11.271 1.513L12.084 0.7M12.261 1.513L13.074 0.7M13.251 1.513L14.064 0.7M14.241 1.513L15.054 0.7M15.231 1.513L16.044 0.7M16.221 1.513L17.034 0.7M17.211 1.513L18.024 0.7M18.201 1.513L19.014 0.7M19.191 1.513L20.004 0.7M20.181 1.513L20.994 0.7M21.171 1.513L21.984 0.7M22.161 1.513L22.974 0.7M23.151 1.513L23.964 0.7M24.141 1.513L24.954 0.7M25.131 1.513L25.944 0.7M26.121 1.513L26.934 0.7M27.111 1.513L27.924 0.7M28.101 1.513L28.598 1.016" fill="none" stroke="#000" stroke-width="0.18"/><g fill="none" stroke="#000" stroke-width="0.35"><polygon points="0.7,1.513 28.598,1.513 28.598,0.7 0.7,0.7"/></g><g stroke-linejoin="round"><rect x="13.7" y="0" width="1.898" height="0.7" fill="#000" stroke="none"/><rect x="14.649" y="0" width="5.518" height="0.7" fill="#000" stroke="none"/><rect x="9.131" y="0" width="5.518" height="0.7" fill="#000" stroke="none"/><rect x="19.132" y="0" width="1.035" height="0.7" fill="#000" stroke="none"/><rect x="15.598" y="0" width="4.569" height="0.7" fill="#000" stroke="none"/><rect x="9.131" y="0" width="1.035" height="0.7" fill="#000" stroke="none"/><rect x="9.131" y="0" width="4.569" height="0.7" fill="#000" stroke="none"/><rect x="15.598" y="0" width="1.898" height="0.7" fill="#000" stroke="none"/><rect x="15.598" y="0" width="7" height="0.7" fill="#000" stroke="none"/><rect x="11.802" y="0" width="1.898" height="0.7" fill="#000" stroke="none"/><rect x="6.7" y="0" width="7" height="0.7" fill="#000" stroke="none"/><rect x="0.7" y="1.513" width="27.898" height="0.7" fill="#000" stroke="none"/><rect x="20.7" y="0" width="1.898" height="0.7" fill="#000" stroke="none"/><rect x="6.7" y="0" width="1.898" height="0.7" fill="#000" stroke="none"/></g><g stroke="#000" stroke-width="0.25" stroke-dasharray="6 1 0.5 1"><line x1="14.649" y1="-2.3" x2="14.649" y2="4.513"/></g><g class="ports"><line x1="13.7" y1="1.513" x2="15.598" y2="0.7" stroke="#000" stroke-width="0.25"/><g><circle cx="14.649" cy="1.107" r="1.3" fill="#fff" stroke="#000" stroke-width="0.3"/><path d="M13.843 1.107Q14.246 0.131 14.649 1.107T15.455 1.107" fill="none" stroke="#000" stroke-width="0.3"/></g><line x1="20.7" y1="1.513" x2="22.598" y2="0.7" stroke="#000" stroke-width="0.25"/><g><circle cx="21.649" cy="1.107" r="1.3" fill="#fff" stroke="#000" stroke-width="0.3"/><path d="M20.843 1.107Q21.246 0.131 21.649 1.107T22.455 1.107" fill="none" stroke="#000" stroke-width="0.3"/></g><line x1="6.7" y1="1.513" x2="8.598" y2="0.7" stroke="#000" stroke-width="0.25"/><g><circle cx="7.649" cy="1.107" r="1.3" fill="#fff" stroke="#000" stroke-width="0.3"/><path d="M6.843 1.107Q7.246 0.131 7.649 1.107T8.455 1.107" fill="none" stroke="#000" stroke-width="0.3"/></g></g><g class="lumped"><g><rect x="13.7" y="-0.21" width="1.898" height="1.82" fill="#fff" stroke="#000" stroke-width="0.3"/><path d="M13.928 0.7L14.134 1.246L14.34 0.154L14.546 1.246L14.752 0.154L14.958 1.246L15.164 0.154L15.37 0.7" fill="none" stroke="#000" stroke-width="0.3" stroke-linejoin="round"/></g></g><g class="triad"><circle cx="0.755" cy="8.413" r="0.35" fill="#000" stroke="none"/><line x1="0.755" y1="8.413" x2="4.955" y2="8.413" stroke="#000" stroke-width="0.25"/><polygon points="4.955,8.413 3.485,8.658 3.485,8.168" fill="#000" stroke="none"/><text x="6.255" y="9.148" font-size="2.1" text-anchor="start" font-style="italic">y</text><line x1="0.755" y1="8.413" x2="0.755" y2="4.213" stroke="#000" stroke-width="0.25"/><polygon points="0.755,4.213 1,5.683 0.51,5.683" fill="#000" stroke="none"/><text x="0.755" y="3.648" font-size="2.1" text-anchor="middle" font-style="italic">z</text></g><text x="8.955" y="8.813" font-size="3" font-weight="600">Right view (yz)</text></g></g><g font-size="2.25" fill="#000" class="notes"><text x="24" y="168.9" font-weight="600">NOTES</text><text x="24" y="172.05">1. All dimensions in mm.</text><text x="24" y="175.2">2. Ground plane = Substrate outline (37.79 × 27.9).</text><text x="24" y="178.35">3. Metal parts are PEC; zero-thickness sheets are drawn with a minimum</text><text x="26.925" y="181.5">line width (solid black when seen edge-on).</text><text x="24" y="184.65">4. P1: lumped port, 50 Ω, along z, gap 1.898 mm, excited.</text><text x="24" y="187.8">5. P2: lumped port, 50 Ω, along z, gap 1.898 mm.</text><text x="24" y="190.95">6. P3: lumped port, 50 Ω, along z, gap 1.898 mm.</text><text x="24" y="194.1">7. Isolation resistor 100 ohm: 100 Ω resistor, current along y.</text></g><g class="title-block"><rect x="107" y="151.65" width="180" height="48.35" fill="#fff" stroke="#000" stroke-width="0.5"/><line x1="191" y1="151.65" x2="191" y2="176.5" stroke="#000" stroke-width="0.5"/><line x1="107" y1="176.5" x2="287" y2="176.5" stroke="#000" stroke-width="0.5"/><line x1="247" y1="176.5" x2="247" y2="185.5" stroke="#000" stroke-width="0.25"/><line x1="107" y1="185.5" x2="287" y2="185.5" stroke="#000" stroke-width="0.25"/><line x1="159" y1="185.5" x2="159" y2="192.75" stroke="#000" stroke-width="0.25"/><line x1="183" y1="185.5" x2="183" y2="192.75" stroke="#000" stroke-width="0.25"/><line x1="201" y1="185.5" x2="201" y2="192.75" stroke="#000" stroke-width="0.25"/><g><polygon points="244.756,187.675 248.744,188.581 248.744,190.394 244.756,191.3" fill="none" stroke="#000" stroke-width="0.25"/><circle cx="252.188" cy="189.488" r="1.813" fill="none" stroke="#000" stroke-width="0.25"/><circle cx="252.188" cy="189.488" r="0.906" fill="none" stroke="#000" stroke-width="0.25"/><line x1="243.756" y1="189.488" x2="255" y2="189.488" stroke="#000" stroke-width="0.125" stroke-dasharray="3 0.6 0.4 0.6"/></g><line x1="257" y1="185.5" x2="257" y2="192.75" stroke="#000" stroke-width="0.25"/><line x1="107" y1="192.75" x2="287" y2="192.75" stroke="#000" stroke-width="0.25"/><line x1="137" y1="192.75" x2="137" y2="200" stroke="#000" stroke-width="0.25"/><line x1="179" y1="192.75" x2="179" y2="200" stroke="#000" stroke-width="0.25"/><line x1="257" y1="192.75" x2="257" y2="200" stroke="#000" stroke-width="0.25"/><g stroke="#000" stroke-width="0.25"><line x1="107" y1="155.2" x2="287" y2="155.2" stroke-opacity="1"/><line x1="107" y1="158.75" x2="287" y2="158.75" stroke-opacity="0.35"/><line x1="107" y1="162.3" x2="287" y2="162.3" stroke-opacity="0.35"/><line x1="107" y1="165.85" x2="287" y2="165.85" stroke-opacity="0.35"/><line x1="107" y1="169.4" x2="287" y2="169.4" stroke-opacity="0.35"/><line x1="107" y1="172.95" x2="287" y2="172.95" stroke-opacity="0.35"/><line x1="147" y1="151.65" x2="147" y2="176.5"/><line x1="169" y1="151.65" x2="169" y2="176.5"/><line x1="221" y1="151.65" x2="221" y2="176.5"/><line x1="251" y1="151.65" x2="251" y2="176.5"/><line x1="265" y1="151.65" x2="265" y2="176.5"/></g><g fill="#000"><text x="108.2" y="154.277" font-weight="600" font-size="1.9">Geometry parameter</text><text x="108.2" y="157.827" font-size="1.9">Substrate thickness</text><text x="108.2" y="161.377" font-size="1.9">Resistor gap</text><text x="108.2" y="164.927" font-size="1.9">Arm offset from the centre line</text><text x="108.2" y="168.477" font-size="1.9">Output jog clearance</text><text x="108.2" y="172.027" font-size="1.9">Arm length scale</text><text x="108.2" y="175.577" font-size="1.9">50 Ω line length at each port</text><text x="148.2" y="154.277" font-weight="600" font-size="1.9">Key</text><text x="148.2" y="157.827" font-size="1.9">sub_h</text><text x="148.2" y="161.377" font-size="1.9">gap</text><text x="148.2" y="164.927" font-size="1.9">offset</text><text x="148.2" y="168.477" font-size="1.9">clearance</text><text x="148.2" y="172.027" font-size="1.9">arm_scale</text><text x="148.2" y="175.577" font-size="1.9">feed_len</text><text x="170.2" y="154.277" font-weight="600" font-size="1.9">Value</text><text x="189.8" y="157.827" text-anchor="end" font-size="1.9">0.813 mm</text><text x="189.8" y="161.377" text-anchor="end" font-size="1.9">0 mm</text><text x="189.8" y="164.927" text-anchor="end" font-size="1.9">5 mm</text><text x="189.8" y="168.477" text-anchor="end" font-size="1.9">3 mm</text><text x="189.8" y="172.027" text-anchor="end" font-size="1.9">1</text><text x="189.8" y="175.577" text-anchor="end" font-size="1.9">10 mm</text><text x="192.2" y="154.277" font-weight="600" font-size="1.9">Part</text><text x="192.2" y="157.827" font-size="1.9">Substrate</text><text x="192.2" y="161.377" font-size="1.9">Ground plane</text><text x="192.2" y="164.927" font-size="1.9">Divider traces</text><text x="222.2" y="154.277" font-weight="600" font-size="1.9">Material</text><text x="222.2" y="157.827" font-size="1.9">Dielectric</text><text x="222.2" y="161.377" font-size="1.9">PEC</text><text x="222.2" y="164.927" font-size="1.9">PEC</text><text x="252.2" y="154.277" font-weight="600" font-size="1.9">εr</text><text x="263.8" y="157.827" text-anchor="end" font-size="1.9">3.38</text><text x="263.8" y="161.377" text-anchor="end" font-size="1.9">—</text><text x="263.8" y="164.927" text-anchor="end" font-size="1.9">—</text><text x="266.2" y="154.277" font-weight="600" font-size="1.9">tan δ</text><text x="266.2" y="157.827" font-size="1.9">0.0027 @ 2.4 GHz</text><text x="266.2" y="161.377" font-size="1.9">—</text><text x="266.2" y="164.927" font-size="1.9">—</text><text x="108.2" y="179" font-size="1.7" fill="#444">Title</text><text x="108.2" y="183.9" font-size="3.5" font-weight="600">Wilkinson divider (2.4 GHz)</text><text x="248.2" y="179" font-size="1.7" fill="#444">Sheet</text><text x="248.2" y="184.4" font-size="2.5">1 / 1</text><text x="108.2" y="188" font-size="1.7" fill="#444">Model</text><text x="108.2" y="191.65" font-size="2.5">wilkinson-divider</text><text x="160.2" y="188" font-size="1.7" fill="#444">Scale</text><text x="160.2" y="191.65" font-size="2.5">1:1</text><text x="184.2" y="188" font-size="1.7" fill="#444">Units</text><text x="184.2" y="191.65" font-size="2.5">mm</text><text x="202.2" y="188" font-size="1.7" fill="#444">Projection: third angle</text><text x="258.2" y="188" font-size="1.7" fill="#444">Size</text><text x="258.2" y="191.65" font-size="2.5">A4</text><text x="108.2" y="195.25" font-size="1.7" fill="#444">Date</text><text x="108.2" y="198.9" font-size="2.5">2026-09-25</text><text x="138.2" y="195.25" font-size="1.7" fill="#444">Generator</text><text x="138.2" y="198.9" font-size="2.5">Fairbeam 0.7.0</text><text x="180.2" y="195.25" font-size="1.7" fill="#444">Solver</text><text x="180.2" y="198.9" font-size="2.5">openEMS 0.37.0b1 · FDTD</text><text x="258.2" y="195.25" font-size="1.7" fill="#444">Drawing no.</text><text x="258.2" y="198.9" font-size="2.4">WILKINSON-DIVIDER-01</text></g></g></svg>
