0
SECTION
2
HEADER
9
$ACADVER
1
AC1009
0
ENDSEC
0
SECTION
2
TABLES
0
TABLE
2
LTYPE
70
1
0
LTYPE
2
CONTINUOUS
70
0
3
Solid line
72
65
73
0
40
0
0
ENDTAB
0
TABLE
2
LAYER
70
3
0
LAYER
2
B_Cu
70
0
62
5
6
CONTINUOUS
0
LAYER
2
B_Cu_Antipad
70
0
62
2
6
CONTINUOUS
0
LAYER
2
Drill
70
0
62
7
6
CONTINUOUS
0
ENDTAB
0
ENDSEC
0
SECTION
2
ENTITIES
0
POLYLINE
8
B_Cu
66
1
70
1
10
0
20
0
30
0
0
VERTEX
8
B_Cu
10
-30
20
-30
30
0
0
VERTEX
8
B_Cu
10
30
20
-30
30
0
0
VERTEX
8
B_Cu
10
30
20
30
30
0
0
VERTEX
8
B_Cu
10
-30
20
30
30
0
0
SEQEND
8
B_Cu
0
CIRCLE
8
B_Cu_Antipad
10
-6
20
0
30
0
40
2.1
0
CIRCLE
8
Drill
10
-6
20
0
30
0
40
0.65
0
ENDSEC
0
EOF
